<svg width="60" height="60" viewBox="0 0 60 60" fill="none" xmlns="http://www.w3.org/2000/svg">
<g clip-path="url(#clip0_96_521)">
<path d="M34.7707 1.85999C33.7452 0.083787 31.4662 -0.526991 29.6901 0.498628C28.8297 0.995383 28.2143 1.79741 27.9573 2.75705C27.7781 3.4256 27.7884 4.11478 27.9787 4.76235L22.63 10.7493C22.1987 11.232 22.2404 11.9727 22.7231 12.404C23.2058 12.8352 23.9467 12.7933 24.3777 12.3108L29.1385 6.98187L36.4342 19.6185L43.7299 32.2551L18.5965 37.4952L13.3493 28.407L12.0336 26.1282L17.3519 20.1754C17.7831 19.6927 17.7414 18.9519 17.2587 18.5207C16.776 18.0894 16.0351 18.1314 15.6041 18.6138L9.84604 25.0588L4.29502 28.2637C2.30964 29.4099 0.889453 31.2608 0.296136 33.4751C-0.297181 35.6895 0.00727087 38.0024 1.15348 39.9878C2.29968 41.9731 4.15053 43.3933 6.36489 43.9867C7.10446 44.1847 7.85469 44.2828 8.60023 44.2828C9.85565 44.2828 11.0969 44.0038 12.2488 43.4578L13.7304 46.0239C14.3355 47.0718 15.4369 47.6584 16.5679 47.6584C17.1136 47.6584 17.6659 47.5211 18.1729 47.234L24.8816 58.8538C25.3054 59.5881 26.0771 59.9989 26.8697 59.9989C27.258 59.9989 27.6516 59.9002 28.0114 59.6924L32.5019 57.0997C33.1921 56.7013 33.6198 55.9879 33.6463 55.1914C33.6727 54.3948 33.293 53.6547 32.6307 53.2114L31.3012 52.3216L25.8161 42.8212C27.3591 41.913 27.8861 39.9221 26.9893 38.3687L26.8711 38.1639L45.075 34.3685C45.7851 35.1103 46.765 35.5164 47.7669 35.5164C48.3973 35.5164 49.036 35.3561 49.6202 35.0188C51.3961 33.9934 52.0068 31.7143 50.9815 29.9382L34.7707 1.85999ZM6.97157 41.7227C5.36189 41.2914 4.01647 40.2591 3.18327 38.8159C2.35007 37.3727 2.1287 35.6914 2.56007 34.0818C2.99143 32.4722 4.02373 31.1268 5.467 30.2935L10.166 27.5805L13.2855 32.9835L16.405 38.3865L11.7058 41.0994C10.2624 41.9327 8.58113 42.1541 6.97157 41.7227ZM29.7712 54.1178L31.2571 55.1123L26.8852 57.6365L20.2032 46.063L23.7871 43.9939L29.4082 53.7299C29.4978 53.8852 29.6219 54.018 29.7712 54.1178ZM24.9597 39.5407C25.2152 39.9831 25.0631 40.5507 24.6207 40.8061L23.6303 41.378C23.6301 41.3781 23.63 41.3781 23.6299 41.3782C23.6298 41.3783 23.6297 41.3783 23.6296 41.3784L18.017 44.6189C18.0168 44.619 18.0165 44.6191 18.0163 44.6192C18.0161 44.6193 18.016 44.6195 18.0157 44.6196L17.0256 45.1912C16.5833 45.4467 16.0157 45.2946 15.7601 44.8521L14.2934 42.3117L18.4285 39.9243L24.4555 38.6677L24.9597 39.5407ZM48.4485 32.9893C48.1303 33.173 47.7593 33.2218 47.4048 33.1266C47.0499 33.0314 46.7531 32.8039 46.5695 32.4857L30.3584 4.40751C30.1748 4.08935 30.1259 3.71857 30.221 3.36373C30.316 3.00889 30.5437 2.71217 30.8619 2.52854C31.0779 2.40385 31.3141 2.34455 31.5474 2.34455C32.0232 2.34455 32.4865 2.59123 32.7411 3.03209L48.9521 31.1103C49.3312 31.767 49.1054 32.61 48.4485 32.9893Z" fill="#0D66C4"/>
<path d="M46.6028 13.7477C46.8199 14.1236 47.2137 14.3338 47.6188 14.3338C47.8176 14.3338 48.0191 14.2831 48.2036 14.1766L55.7747 9.80539C56.3352 9.48184 56.5273 8.76512 56.2036 8.20461C55.8801 7.6441 55.1633 7.45203 54.6028 7.77571L47.0317 12.1469C46.4712 12.4705 46.2791 13.1872 46.6028 13.7477Z" fill="#0D66C4"/>
<path d="M44.2367 9.8236C44.4212 9.93012 44.6227 9.98074 44.8214 9.98074C45.2264 9.98074 45.6204 9.77063 45.8374 9.39469L49.4447 3.14672C49.7684 2.58621 49.5763 1.86949 49.0158 1.54594C48.4552 1.22227 47.7386 1.41434 47.415 1.97485L43.8077 8.22281C43.4841 8.7832 43.6761 9.50004 44.2367 9.8236Z" fill="#0D66C4"/>
<path d="M56.4499 16.587H50.7446C50.0975 16.587 49.5728 17.1116 49.5728 17.7589C49.5728 18.4061 50.0975 18.9307 50.7446 18.9307H56.4499C57.097 18.9307 57.6218 18.4061 57.6218 17.7589C57.6218 17.1116 57.097 16.587 56.4499 16.587Z" fill="#0D66C4"/>
<path d="M59.6578 5.86039C59.4387 5.64242 59.1376 5.51703 58.8294 5.51703C58.5199 5.51703 58.2187 5.64242 57.9997 5.86039C57.7818 6.07836 57.6562 6.3807 57.6562 6.6889C57.6562 6.99711 57.7816 7.29945 57.9997 7.51742C58.2187 7.73539 58.5199 7.86078 58.8294 7.86078C59.1376 7.86078 59.4387 7.73539 59.6578 7.51742C59.8758 7.29945 60 6.99711 60 6.6889C60 6.3807 59.8758 6.07836 59.6578 5.86039Z" fill="#0D66C4"/>
<path d="M19.9912 16.6335C20.2995 16.6335 20.6006 16.5093 20.8197 16.2913C21.0377 16.0733 21.1619 15.771 21.1619 15.4628C21.1619 15.1534 21.0377 14.8523 20.8197 14.6331C20.6019 14.4151 20.2995 14.2909 19.9912 14.2909C19.6818 14.2909 19.3807 14.4151 19.1628 14.6331C18.9437 14.8523 18.8193 15.1534 18.8193 15.4628C18.8193 15.771 18.9437 16.0733 19.1628 16.2913C19.3807 16.5093 19.683 16.6335 19.9912 16.6335Z" fill="#0D66C4"/>
</g>
<defs>
<clipPath id="clip0_96_521">
<rect width="60" height="60" fill="white"/>
</clipPath>
</defs>
</svg>
