<svg width="60" height="60" viewBox="0 0 60 60" fill="none" xmlns="http://www.w3.org/2000/svg">
<g clip-path="url(#clip0_96_499)">
<path d="M51.2132 8.78683C45.547 3.12052 38.0133 0 30 0C21.9867 0 14.453 3.12052 8.78683 8.78683C3.12065 14.4531 0 21.9867 0 30C0 38.0133 3.12052 45.547 8.78683 51.2132C14.4531 56.8794 21.9867 60 30 60C38.0133 60 45.547 56.8795 51.2132 51.2132C56.8794 45.5469 60 38.0133 60 30C60 21.9867 56.8795 14.453 51.2132 8.78683ZM49.8387 49.8387C44.5396 55.1378 37.494 58.0562 30 58.0562C22.506 58.0562 15.4604 55.1378 10.1613 49.8387C4.8622 44.5396 1.94384 37.494 1.94384 30C1.94384 22.506 4.8622 15.4604 10.1613 10.1613C15.4604 4.8622 22.506 1.94384 30 1.94384C37.494 1.94384 44.5396 4.8622 49.8387 10.1613C55.1378 15.4604 58.0562 22.506 58.0562 30C58.0562 37.494 55.1378 44.5396 49.8387 49.8387Z" fill="#0D66C4"/>
<path d="M30.0001 4.14688C15.7446 4.14688 4.14697 15.7445 4.14697 30C4.14697 44.2555 15.7446 55.8531 30.0001 55.8531C44.2556 55.8531 55.8532 44.2555 55.8532 30C55.8532 15.7445 44.2556 4.14688 30.0001 4.14688ZM30.972 53.8879V49.6976C30.972 49.1609 30.5369 48.7257 30.0001 48.7257C29.4633 48.7257 29.0282 49.1609 29.0282 49.6976V53.8879C16.6161 53.389 6.61112 43.384 6.1122 30.9719H10.3025C10.8392 30.9719 11.2744 30.5368 11.2744 30C11.2744 29.4633 10.8392 29.0281 10.3025 29.0281H6.1122C6.61112 16.616 16.6161 6.61103 29.0282 6.11211V10.3024C29.0282 10.8391 29.4633 11.2743 30.0001 11.2743C30.5369 11.2743 30.972 10.8391 30.972 10.3024V6.11211C43.3841 6.61103 53.3891 16.616 53.888 29.0281H49.6977C49.161 29.0281 48.7258 29.4633 48.7258 30C48.7258 30.5368 49.161 30.9719 49.6977 30.9719H53.888C53.3891 43.384 43.3841 53.389 30.972 53.8879Z" fill="#0D66C4"/>
<path d="M43.0827 15.6345L24.4218 23.9282C24.2019 24.0259 24.026 24.2018 23.9283 24.4217L15.6346 43.0826C15.4713 43.45 15.5511 43.8802 15.8354 44.1645C16.0216 44.3508 16.2702 44.4492 16.5229 44.4492C16.6561 44.4492 16.7905 44.4219 16.9174 44.3655L35.5783 36.0718C35.7982 35.9741 35.974 35.7982 36.0717 35.5783L44.3655 16.9174C44.5288 16.55 44.4489 16.1198 44.1646 15.8355C43.8803 15.551 43.4501 15.4712 43.0827 15.6345ZM25.13 26.5043L26.5101 27.8845C26.1346 28.5018 25.918 29.2261 25.918 30C25.918 32.2508 27.7492 34.0821 30.0001 34.0821C30.774 34.0821 31.4983 33.8655 32.1156 33.49L33.4958 34.8701L18.4372 41.5628L25.13 26.5043ZM30.0001 32.1382C28.8211 32.1382 27.8619 31.179 27.8619 30C27.8619 28.821 28.8211 27.8618 30.0001 27.8618C31.1791 27.8618 32.1383 28.821 32.1383 30C32.1383 31.179 31.1791 32.1382 30.0001 32.1382ZM34.8702 33.4957L33.4901 32.1156C33.8656 31.4982 34.0822 30.7739 34.0822 30C34.0822 27.7492 32.2509 25.9179 30.0001 25.9179C29.2262 25.9179 28.5019 26.1345 27.8845 26.51L26.5044 25.1299L41.563 18.4372L34.8702 33.4957Z" fill="#0D66C4"/>
</g>
<defs>
<clipPath id="clip0_96_499">
<rect width="60" height="60" fill="white"/>
</clipPath>
</defs>
</svg>
