<svg width="60" height="60" viewBox="0 0 60 60" fill="none" xmlns="http://www.w3.org/2000/svg">
<g clip-path="url(#clip0_96_483)">
<path d="M58.8281 0H11.4844C10.8373 0 10.3125 0.524648 10.3125 1.17188V6.32812H6.32812C5.68102 6.32812 5.15625 6.85289 5.15625 7.5V13.8281H1.17188C0.524648 13.8281 0 14.3529 0 15V53.6719C0 57.1611 2.83887 60 6.32812 60H53.6719C57.1611 60 60 57.1611 60 53.6719V1.17188C60 0.524648 59.4752 0 58.8281 0ZM57.6562 53.6719C57.6562 55.8689 55.8689 57.6562 53.6719 57.6562H11.2397C12.1245 56.5676 12.6562 55.1809 12.6562 53.6719V37.8519C12.6562 37.2048 12.1315 36.68 11.4844 36.68C10.8373 36.68 10.3125 37.2048 10.3125 37.8519V53.6719C10.3125 55.8689 8.52516 57.6562 6.32812 57.6562C4.13109 57.6562 2.34375 55.8689 2.34375 53.6719V16.1719H5.15625V52.5C5.15625 53.1471 5.68102 53.6719 6.32812 53.6719C6.97523 53.6719 7.5 53.1471 7.5 52.5V8.67188H10.3125V27.305C10.3125 27.9523 10.8373 28.4769 11.4844 28.4769C12.1315 28.4769 12.6562 27.9523 12.6562 27.305V2.34375H57.6562V53.6719Z" fill="#0D66C4"/>
<path d="M17.1094 18.5156H53.2031C53.8502 18.5156 54.375 17.991 54.375 17.3438V8.90625C54.375 8.25914 53.8502 7.73438 53.2031 7.73438H17.1094C16.4621 7.73438 15.9375 8.25914 15.9375 8.90625V17.3438C15.9375 17.991 16.4621 18.5156 17.1094 18.5156ZM18.2812 10.0781H52.0312V16.1719H18.2812V10.0781Z" fill="#0D66C4"/>
<path d="M17.1094 46.6406H35.1562C35.8034 46.6406 36.3281 46.1159 36.3281 45.4688V22.9688C36.3281 22.3215 35.8034 21.7969 35.1562 21.7969H17.1094C16.4621 21.7969 15.9375 22.3215 15.9375 22.9688V45.4688C15.9375 46.1159 16.4621 46.6406 17.1094 46.6406ZM18.2812 24.1406H33.9844V44.2969H18.2812V24.1406Z" fill="#0D66C4"/>
<path d="M53.2031 21.7969H40.7812C40.1341 21.7969 39.6094 22.3215 39.6094 22.9688C39.6094 23.616 40.1341 24.1406 40.7812 24.1406H53.2031C53.8502 24.1406 54.375 23.616 54.375 22.9688C54.375 22.3215 53.8502 21.7969 53.2031 21.7969Z" fill="#0D66C4"/>
<path d="M53.2031 27.4219H40.7812C40.1341 27.4219 39.6094 27.9465 39.6094 28.5938C39.6094 29.241 40.1341 29.7656 40.7812 29.7656H53.2031C53.8502 29.7656 54.375 29.241 54.375 28.5938C54.375 27.9465 53.8502 27.4219 53.2031 27.4219Z" fill="#0D66C4"/>
<path d="M53.2031 33.0469H40.7812C40.1341 33.0469 39.6094 33.5716 39.6094 34.2188C39.6094 34.8659 40.1341 35.3906 40.7812 35.3906H53.2031C53.8502 35.3906 54.375 34.8659 54.375 34.2188C54.375 33.5716 53.8502 33.0469 53.2031 33.0469Z" fill="#0D66C4"/>
<path d="M53.2031 38.6719H40.7812C40.1341 38.6719 39.6094 39.1966 39.6094 39.8438C39.6094 40.4909 40.1341 41.0156 40.7812 41.0156H53.2031C53.8502 41.0156 54.375 40.4909 54.375 39.8438C54.375 39.1966 53.8502 38.6719 53.2031 38.6719Z" fill="#0D66C4"/>
<path d="M53.2031 44.2969H40.7812C40.1341 44.2969 39.6094 44.8216 39.6094 45.4688C39.6094 46.1159 40.1341 46.6406 40.7812 46.6406H53.2031C53.8502 46.6406 54.375 46.1159 54.375 45.4688C54.375 44.8216 53.8502 44.2969 53.2031 44.2969Z" fill="#0D66C4"/>
<path d="M17.1094 52.2656H53.2031C53.8502 52.2656 54.375 51.7409 54.375 51.0938C54.375 50.4466 53.8502 49.9219 53.2031 49.9219H17.1094C16.4621 49.9219 15.9375 50.4466 15.9375 51.0938C15.9375 51.7409 16.4621 52.2656 17.1094 52.2656Z" fill="#0D66C4"/>
<path d="M11.543 31.4062C11.2348 31.4062 10.9324 31.5315 10.7145 31.7496C10.4965 31.9676 10.3711 32.2699 10.3711 32.5781C10.3711 32.8875 10.4964 33.1887 10.7145 33.4065C10.9324 33.6257 11.2348 33.75 11.543 33.75C11.8512 33.75 12.1535 33.6258 12.3714 33.4065C12.5893 33.1887 12.7148 32.8863 12.7148 32.5781C12.7148 32.2699 12.5895 31.9676 12.3714 31.7496C12.1535 31.5315 11.8512 31.4062 11.543 31.4062Z" fill="#0D66C4"/>
</g>
<defs>
<clipPath id="clip0_96_483">
<rect width="60" height="60" fill="white"/>
</clipPath>
</defs>
</svg>
