<svg width="60" height="60" viewBox="0 0 60 60" fill="none" xmlns="http://www.w3.org/2000/svg">
<g clip-path="url(#clip0_96_539)">
<path d="M38.7591 29.3144H42.3618C43.2912 29.3144 44.0473 28.5583 44.0473 27.629V22.4049H49.2713C50.2007 22.4049 50.9568 21.6488 50.9568 20.7194V17.1168C50.9568 16.1874 50.2007 15.4313 49.2713 15.4313H44.0473V10.2072C44.0473 9.27782 43.2912 8.52184 42.3618 8.52184H38.7591C37.8297 8.52184 37.0736 9.27794 37.0736 10.2072V15.4313H31.8496C30.9202 15.4313 30.1641 16.1874 30.1641 17.1168V20.7194C30.1641 21.6488 30.9202 22.4049 31.8496 22.4049H37.0736V27.629C37.0736 28.5583 37.8298 29.3144 38.7591 29.3144ZM31.9219 20.6471V17.1891H37.1459C38.0754 17.1891 38.8315 16.433 38.8315 15.5037V10.2795H42.2895V15.5036C42.2895 16.433 43.0456 17.189 43.9749 17.189H49.199V20.647H43.9749C43.0456 20.647 42.2895 21.4031 42.2895 22.3324V27.5564H38.8315V22.3324C38.8315 21.403 38.0754 20.647 37.1459 20.647L31.9219 20.6471Z" fill="#0D66C4"/>
<path d="M7.06274 33.9712C7.06274 36.0909 8.78728 37.8153 10.907 37.8153C13.0266 37.8153 14.7511 36.0909 14.7511 33.9712C14.7511 31.8515 13.0266 30.1271 10.907 30.1271C8.78728 30.1271 7.06274 31.8515 7.06274 33.9712ZM12.9931 33.9712C12.9931 35.1216 12.0573 36.0575 10.9068 36.0575C9.75642 36.0575 8.82044 35.1216 8.82044 33.9712C8.82044 32.8208 9.7563 31.8849 10.9068 31.8849C12.0573 31.8849 12.9931 32.8208 12.9931 33.9712Z" fill="#0D66C4"/>
<path d="M6.9978 51.284H8.27305C8.63141 51.284 8.9702 51.4574 9.17962 51.7481L13.5451 57.806C14.102 58.5786 14.9502 59.0045 15.8494 59.0045C16.1491 59.0045 16.4543 58.9572 16.7563 58.8597C17.9647 58.4697 18.7455 57.3972 18.7455 56.1275V52.3677C18.7455 51.7702 19.2315 51.2841 19.829 51.2841H24.0057C24.4913 51.2841 24.8847 50.8906 24.8847 50.4052C24.8847 49.9198 24.4913 49.5263 24.0057 49.5263H19.829C18.2623 49.5263 16.9877 50.8009 16.9877 52.3677V56.1275C16.9877 56.8795 16.3974 57.1285 16.2163 57.187C16.0355 57.2452 15.411 57.3886 14.9713 56.7785L10.6058 50.7208C10.067 49.9729 9.19497 49.5264 8.27305 49.5264H6.9978C4.10852 49.5261 1.75783 47.1756 1.75783 44.2863V22.4367C1.75783 19.5474 4.10852 17.1968 6.9978 17.1968H21.1209V29.843C21.1209 29.9388 21.1243 30.0338 21.1282 30.1286C21.1083 30.1283 21.0883 30.1272 21.0683 30.1272C18.9486 30.1272 17.2242 31.8516 17.2242 33.9713C17.2242 36.091 18.9486 37.8155 21.0683 37.8155C22.5088 37.8155 23.7921 37.0061 24.4487 35.7978C25.5164 36.4583 26.7735 36.8407 28.1187 36.8407H37.1213V44.2864C37.1213 47.1757 34.7706 49.5263 31.8813 49.5263H28.1072C27.6217 49.5263 27.2283 49.9198 27.2283 50.4052C27.2283 50.8906 27.6217 51.2841 28.1072 51.2841H31.8813C35.74 51.2841 38.8791 48.145 38.8791 44.2864V36.8406H40.171C40.7685 36.8406 41.2545 37.3267 41.2545 37.9242V41.684C41.2545 42.9537 42.0353 44.0261 43.2437 44.4161C43.5458 44.5137 43.8509 44.561 44.1506 44.561C45.0497 44.5609 45.8981 44.1351 46.4549 43.3625L50.8204 37.3048C51.0298 37.0141 51.3688 36.8406 51.7269 36.8406H53.0022C56.8607 36.8406 59.9999 33.7015 59.9999 29.8429V20.9689C59.9999 20.4835 59.6065 20.09 59.121 20.09C58.6355 20.09 58.2421 20.4835 58.2421 20.9689V29.8429C58.2421 32.7322 55.8914 35.0828 53.0022 35.0828H51.7271C50.8054 35.0828 49.9333 35.5292 49.3943 36.2771L45.0288 42.3349C44.5893 42.9448 43.9648 42.8016 43.7837 42.7434C43.6027 42.6849 43.0125 42.436 43.0125 41.684V37.9242C43.0125 36.3574 41.7378 35.0828 40.1711 35.0828H38.0003H28.1188C25.2211 35.0828 22.8789 32.7232 22.8789 29.8429C22.8789 28.7898 22.8789 9.01168 22.8789 7.99331C22.8789 5.10402 25.2295 2.75345 28.1188 2.75345H53.0024C55.8916 2.75345 58.2423 5.10402 58.2423 7.99331V16.8673C58.2423 17.3527 58.6357 17.7462 59.1212 17.7462C59.6067 17.7462 60.0001 17.3527 60.0001 16.8673V7.99319C60.0001 4.13464 56.861 0.995506 53.0024 0.995506H28.1187C24.26 0.995506 21.1209 4.13464 21.1209 7.99319V15.4389H6.9978C3.13913 15.4389 0 18.578 0 22.4367V44.2863C0 48.1448 3.13913 51.284 6.9978 51.284ZM23.0389 34.6561C22.753 35.4778 21.967 36.0576 21.0684 36.0576C19.9181 36.0576 18.9821 35.1218 18.9821 33.9713C18.9821 32.8209 19.918 31.885 21.0684 31.885C21.1922 31.885 21.3145 31.8959 21.435 31.9174C21.7406 32.9004 22.2866 33.8634 23.0389 34.6561Z" fill="#0D66C4"/>
</g>
<defs>
<clipPath id="clip0_96_539">
<rect width="60" height="60" fill="white"/>
</clipPath>
</defs>
</svg>
