<svg width="60" height="60" viewBox="0 0 60 60" fill="none" xmlns="http://www.w3.org/2000/svg">
<g clip-path="url(#clip0_96_531)">
<path d="M59.1211 50.814H57.566V19.2383C57.566 16.9256 55.684 15.0442 53.3707 15.0442H51.3062C51.5319 14.5719 51.6564 14.0481 51.6564 13.5038C51.6564 12.1784 50.929 10.9695 49.7579 10.3487L38.2654 4.26082C37.8364 4.03348 37.3044 4.19707 37.0773 4.6261C36.8501 5.055 37.0137 5.58692 37.4426 5.81414L48.9349 11.9019C49.5383 12.2217 49.8986 12.8205 49.8986 13.5038C49.8986 14.187 49.5383 14.7857 48.9352 15.1054L37.7634 21.0236L30.6609 12.9243C30.3409 12.5592 29.7855 12.5229 29.4206 12.8429C29.0557 13.163 29.0193 13.7183 29.3393 14.0832L36.1671 21.8693L31.9399 24.1086C30.7253 24.7512 29.2751 24.7512 28.0608 24.1089L11.0651 15.1056C10.4618 14.7858 10.1014 14.187 10.1014 13.5039C10.1014 12.8208 10.4617 12.222 11.0648 11.9022L28.0602 2.89887C29.2748 2.25621 30.725 2.25621 31.9392 2.89864L34.372 4.1877C34.8009 4.41504 35.333 4.25156 35.5602 3.82266C35.7874 3.39375 35.6239 2.86172 35.1952 2.63449L32.7619 1.3452C31.0324 0.430081 28.9673 0.430081 27.2378 1.34531L10.2418 10.3489C9.07102 10.9696 8.34375 12.1785 8.34375 13.5039C8.34375 14.0482 8.4682 14.5719 8.69391 15.0443H6.6293C4.31602 15.0443 2.43398 16.9257 2.43398 19.2384V50.8141H0.878906C0.393516 50.8141 0 51.2077 0 51.6931V53.6411C0 56.7841 2.55703 59.3413 5.70012 59.3413H54.2998C57.4429 59.3413 60 56.7843 60 53.6411V51.6931C60 51.2075 59.6065 50.814 59.1211 50.814ZM37.5605 35.5661L38.7064 37.551C38.9433 37.9613 38.7853 38.3235 38.7064 38.4601C38.6276 38.5968 38.3928 38.9147 37.9191 38.9147H37.2018C36.728 38.9147 36.4934 38.5968 36.4144 38.4601C36.3354 38.3234 36.1775 37.9613 36.4144 37.551L37.5605 35.5661ZM38.4394 22.6548L42.0762 20.7282V24.2184C42.0762 26.7251 40.6596 28.9723 38.4394 30.0394V22.6548ZM29.9999 26.3487C30.9485 26.3487 31.8974 26.1198 32.7622 25.6623L36.6816 23.5861V30.7194C31.8795 32.3101 26.5665 32.1315 21.8794 30.1834C19.4764 29.1847 17.9238 26.8433 17.9238 24.2186V20.7281L27.2382 25.6624C28.1029 26.12 29.0512 26.3487 29.9999 26.3487ZM4.1918 19.2383C4.1918 17.8949 5.28527 16.802 6.6293 16.802H10.5125L14.9367 19.1457H7.41445C6.92906 19.1457 6.53555 19.5393 6.53555 20.0247V47.5918C6.53555 48.0772 6.92906 48.4707 7.41445 48.4707H12.0539C12.5393 48.4707 12.9328 48.0772 12.9328 47.5918C12.9328 47.1064 12.5393 46.7129 12.0539 46.7129H8.29336V20.9036H16.166V24.2184C16.166 27.5558 18.1438 30.5343 21.2048 31.8066C23.9995 32.9681 26.9998 33.5489 30.0001 33.5489C32.2564 33.5489 34.5127 33.2202 36.6817 32.5632V33.5727L34.8922 36.6721C34.4101 37.507 34.4101 38.5041 34.8922 39.339C35.3743 40.174 36.2377 40.6725 37.2019 40.6725H37.9192C38.8834 40.6725 39.7467 40.174 40.2288 39.339C40.7109 38.5041 40.7109 37.507 40.2288 36.6721L38.4394 33.5727V31.9492C38.5582 31.9022 38.6772 31.8557 38.7953 31.8066C41.8562 30.5343 43.834 27.5558 43.834 24.2184V20.9036H51.7066V46.7129H15.5695C15.0841 46.7129 14.6906 47.1064 14.6906 47.5918C14.6906 48.0772 15.0841 48.4707 15.5695 48.4707H52.5855C53.0709 48.4707 53.4645 48.0772 53.4645 47.5918V20.0247C53.4645 19.5393 53.0709 19.1457 52.5855 19.1457H45.0632L49.4873 16.802H53.3706C54.7146 16.802 55.8081 17.8949 55.8081 19.2383V50.814H4.1918V19.2383ZM35.4352 52.5723C35.1104 53.5174 34.2124 54.1986 33.1586 54.1986H26.8416C25.7876 54.1986 24.8897 53.5174 24.5648 52.5723H35.4352ZM58.2422 53.6409C58.2422 55.8148 56.4736 57.5834 54.2998 57.5834H5.70012C3.52629 57.5834 1.75781 55.8148 1.75781 53.6409V52.5718H3.30387C3.30691 52.5718 3.30984 52.5723 3.31289 52.5723H22.7516C23.1179 54.4968 24.812 55.9564 26.8416 55.9564H33.1586C35.188 55.9564 36.8821 54.4966 37.2484 52.5723H56.6871C56.6902 52.5723 56.6931 52.5718 56.6961 52.5718H58.2422V53.6409Z" fill="#0D66C4"/>
<path d="M30.2658 43.4903C30.2658 43.0049 29.8723 42.6114 29.3869 42.6114H11.7917C11.3064 42.6114 10.9128 43.0049 10.9128 43.4903C10.9128 43.9757 11.3064 44.3692 11.7917 44.3692H29.387C29.8723 44.3692 30.2658 43.9757 30.2658 43.4903Z" fill="#0D66C4"/>
<path d="M11.7917 40.6726H23.5562C24.0416 40.6726 24.4351 40.2791 24.4351 39.7937C24.4351 39.3083 24.0416 38.9148 23.5562 38.9148H11.7917C11.3064 38.9148 10.9128 39.3083 10.9128 39.7937C10.9128 40.2791 11.3062 40.6726 11.7917 40.6726Z" fill="#0D66C4"/>
</g>
<defs>
<clipPath id="clip0_96_531">
<rect width="60" height="60" fill="white"/>
</clipPath>
</defs>
</svg>
