<svg width="385" height="282" viewBox="0 0 385 282" fill="none" xmlns="http://www.w3.org/2000/svg">
<path d="M249.542 119.993L191.547 120.431L191.587 125.725L249.582 125.287L249.542 119.993Z" fill="#323657"/>
<path d="M260.301 71.165L244.201 123.661L249.033 125.135L265.133 72.639L260.301 71.165Z" fill="#323657"/>
<path d="M359.553 132.184H355.039V263.376H359.553V132.184Z" fill="#706865"/>
<path d="M186.147 132.198L385 132.198V124.3L186.147 124.3V132.198Z" fill="#B59074"/>
<path d="M209.15 263.393H213.663L213.663 132.2H209.15L209.15 263.393Z" fill="#706865"/>
<path d="M189.854 114.631C189.854 114.631 192.863 115.226 194.282 115.282C195.73 115.339 202.344 112.338 204.473 112.621C206.602 112.904 220.427 118.765 221.08 119.189C221.704 119.614 220.796 120.548 220.796 120.548L189.002 120.916L189.854 114.631Z" fill="#EEA886"/>
<path d="M135.492 248.088L133.448 252.476C133.448 252.476 124.847 249.277 124.819 249.164C124.762 249.051 127.175 243.049 127.175 243.049L135.492 248.088Z" fill="#515269"/>
<path d="M209.043 248.003L211.428 254.939C211.428 254.939 202.003 257.006 200.641 256.893C200.527 256.893 198.852 249.051 198.852 249.051L209.043 248.003Z" fill="#6A6B8A"/>
<path d="M199.562 254.883C199.562 254.883 206.148 253.099 206.347 252.816C206.545 252.533 208.958 250.891 210.207 251.117C211.456 251.315 211.57 252.816 212.819 253.127C214.068 253.439 223.691 256.496 225.026 257.289C226.36 258.082 232.718 255.76 233.939 257.402C235.16 259.044 236.352 263.376 226.36 264.876C216.367 266.377 205.637 270.822 203.252 270.227C200.84 269.576 199.193 257.544 199.562 254.883Z" fill="#003D81"/>
<path d="M124.137 248.031C124.137 248.031 130.241 250.636 130.553 250.523C130.865 250.41 133.704 250.636 134.527 251.542C135.35 252.448 134.527 253.637 135.293 254.628C136.06 255.619 140.403 261.338 141.681 262.668C142.731 263.744 148.437 264.763 150.254 266.688C151.645 268.132 149.998 273.879 140.29 271.133C130.837 268.444 119.113 263.801 117.637 261.904C116.16 260.007 122.264 249.843 124.137 248.031Z" fill="#003D81"/>
<path d="M130.411 161.712C130.411 161.712 157.265 173.631 162.943 177.679C168.62 181.756 181.082 189.258 181.508 191.07C181.934 192.91 184.375 191.127 179.975 200.271C175.547 209.444 154.682 231.498 152.723 233.904C150.679 236.396 136.202 251.372 136.202 251.372L125.301 243.19C125.301 243.19 146.251 212.473 149.288 207.943C152.326 203.414 153.688 202.763 151.9 200.753C150.112 198.771 142.958 198.799 106.083 183.568C102.393 182.039 92.1166 178.529 90.754 173.574C88.3127 164.656 90.4133 153.36 100.32 148.378C110.171 143.452 130.411 161.712 130.411 161.712Z" fill="#0D2744"/>
<path d="M143.157 75.5339C142.93 75.7321 142.674 76.1851 142.39 76.8079C141.993 77.7139 141.596 78.9595 141.198 80.3185C139.977 84.5651 138.87 90.0007 138.87 90.0007C138.87 90.0007 123.541 77.2609 125.699 76.4399C127.884 75.6472 129.474 71.9102 129.474 71.9102C129.474 71.9102 144.775 74.0901 143.157 75.5339Z" fill="#EEA886"/>
<path d="M142.22 119.614C142.22 119.614 129.758 143.395 129.219 152.313C128.679 161.231 103.188 149.51 103.188 149.51L142.22 119.614Z" fill="#EDDCC5"/>
<path d="M129.247 151.746L129.531 153.955L129.985 156.871C129.616 156.842 105.089 155.314 103.301 155.767C101.513 156.22 106.679 149.991 106.679 149.991L129.247 151.746Z" fill="#323657"/>
<path d="M129.985 156.899C129.985 156.899 157.719 163.41 164.589 165.59C171.459 167.77 183.239 171.621 186.419 173.432C188.094 174.395 190.677 175.839 193.743 185.833C197.234 197.157 205.211 229.035 207.028 233.989C208.163 237.103 211.428 249.362 211.428 249.362L197.263 251.825C197.263 251.825 180.372 217.937 179.01 208.906C176.71 193.703 170.806 193.618 168.421 192.231C166.037 190.844 154.54 193.448 113.634 190.192C109.546 189.881 98.3616 189.655 95.4661 185.266C90.2429 177.311 84.9628 168.28 93.0816 160.296C101.172 152.284 129.985 156.899 129.985 156.899Z" fill="#003D81"/>
<path d="M148.579 43.5145C148.579 43.5145 153.376 51.7812 152.297 54.0461C151.19 56.2826 157.322 61.7466 156.3 62.9074C155.307 64.0681 153.234 65.4553 153.263 65.7951C153.291 66.1348 151.474 76.9212 149.118 77.1477C146.762 77.3742 130.666 76.5532 129.332 71.5422C127.998 66.5312 124.081 55.5183 123.144 53.4799C122.235 51.3849 131.518 35.6158 148.579 43.5145Z" fill="#EEA886"/>
<path d="M128.736 41.9006C127.402 42.8915 126.323 43.939 125.443 45.0148C124.393 45.4961 118.148 48.582 119.453 51.9226C121.185 56.3957 128.225 68.4278 128.821 69.6735C128.906 69.8434 128.906 69.5319 128.85 68.8525C129.275 64.6059 134.527 59.8496 134.527 59.8496L137.309 58.604C135.861 55.9145 136.429 53.3665 136.429 53.3665C139.58 49.9975 150.112 46.3454 150.112 46.3454C148.607 31.4256 135.776 36.6914 128.736 41.9006Z" fill="#0F3970"/>
<path d="M133.477 56.3676C132.739 55.2352 128.821 55.4333 129.389 58.7457C129.957 62.0864 134.783 64.7476 135.833 63.2754C136.883 61.8033 134.272 57.5567 133.477 56.3676Z" fill="#EEA886"/>
<path d="M125.699 76.4397C125.699 76.4397 106.225 87.764 101.853 107.497C97.4533 127.258 89.5048 161.938 89.3629 166.043C89.3629 166.043 115.706 153.417 129.957 156.871C129.957 156.871 138.927 124.681 143.668 117.094C148.38 109.478 141.368 91.6143 141.368 91.6143C141.368 91.6143 134.669 80.9128 125.699 76.4397Z" fill="#6998D0"/>
<path d="M142.419 76.8078C142.021 77.7137 141.624 78.9594 141.226 80.3183C138.927 79.3558 134.527 75.3356 134.413 75.1941C136.23 75.9302 142.419 76.8078 142.419 76.8078Z" fill="#A77860"/>
<path d="M133.278 86.7449C133.278 86.7449 135.322 89.0947 138.189 94.0491C141.425 99.683 144.065 105.232 144.775 106.478C146.194 109.026 151.275 111.63 153.518 112.593C155.59 113.47 191.387 114.235 191.841 114.206C192.267 114.178 191.33 125.049 191.33 125.049C191.33 125.049 141.908 126.465 139.75 124.483C137.593 122.53 131.348 115.084 128.736 111.404C126.238 107.893 122.406 102.118 120.39 99.6546C118.119 96.8802 113.35 87.3961 119.425 82.6399C127.146 76.6097 131.404 83.9705 133.278 86.7449Z" fill="#6998D0"/>
<path d="M122.831 102.939C122.831 102.939 126.635 114.518 129.985 119.642C133.335 124.766 138.388 129.834 138.388 129.834L140.233 124.427C140.233 124.427 126.153 107.553 122.831 102.939Z" fill="#406FB5"/>
<path d="M60.5783 267.679L61.7705 270.991L111.704 255.562L109.319 248.852L60.5783 267.679Z" fill="#918783"/>
<path d="M113.407 199.054H107.729V253.212H113.407V199.054Z" fill="#918783"/>
<path d="M127.345 196.166H93.848V199.365H127.345V196.166Z" fill="#5E5854"/>
<path d="M161.012 267.679L159.848 270.991L109.887 255.562L112.101 248.428L161.012 267.679Z" fill="#918783"/>
<path d="M125.84 270.652V274.502L109.887 255.562L112.101 248.428L125.84 270.652Z" fill="#918783"/>
<path d="M165.696 272.294C165.696 274.87 163.595 276.937 161.041 276.937C158.457 276.937 156.385 274.842 156.385 272.294C156.385 269.718 158.486 267.651 161.041 267.651C163.595 267.651 165.696 269.718 165.696 272.294Z" fill="#BFB2AC"/>
<path d="M126.238 272.294C126.238 274.87 124.137 276.937 121.582 276.937C118.999 276.937 116.927 274.842 116.927 272.294C116.927 269.718 119.028 267.651 121.582 267.651C124.137 267.651 126.238 269.718 126.238 272.294Z" fill="#BFB2AC"/>
<path d="M65.2338 272.294C65.2338 274.87 63.1331 276.937 60.5783 276.937C57.995 276.937 55.9228 274.842 55.9228 272.294C55.9228 269.718 58.0234 267.651 60.5783 267.651C63.1615 267.651 65.2338 269.718 65.2338 272.294Z" fill="#BFB2AC"/>
<path d="M144.491 196.166H77.1281C73.8351 196.166 71.1383 193.505 71.1383 190.193V190.051C71.1383 186.767 73.8067 184.077 77.1281 184.077H144.491C147.784 184.077 150.481 186.739 150.481 190.051V190.193C150.452 193.505 147.784 196.166 144.491 196.166Z" fill="#E2D2CA"/>
<path d="M86.7513 175.612H62.9628C57.2286 175.612 52.6014 170.998 52.6014 165.279V110.384C52.6014 104.666 57.2286 100.051 62.9628 100.051H86.7513C92.4855 100.051 97.1126 104.666 97.1126 110.384V165.279C97.1126 170.998 92.4571 175.612 86.7513 175.612Z" fill="#E2D2CA"/>
<path d="M97.6237 193.165C89.5617 193.165 83.0042 190.476 78.1784 185.125C67.2493 173.093 69.208 151.916 69.2932 151.01C69.4635 149.34 70.9397 148.123 72.6145 148.292C74.2893 148.462 75.51 149.934 75.3397 151.605C75.3113 151.86 73.5797 171.026 82.692 181.048C86.3823 185.096 91.2649 187.078 97.6237 187.078C99.2985 187.078 100.661 188.437 100.661 190.107C100.661 191.806 99.2985 193.165 97.6237 193.165Z" fill="#E2D2CA"/>
<path d="M255.145 2.03911C255.145 2.03911 264.512 6.59715 262.185 19.0539C259.857 31.4823 258.835 33.1527 261.446 38.0221C264.03 42.8916 267.096 63.6151 264.768 67.5503C262.44 71.4855 235.898 50.2807 232.208 32.5015C228.517 14.7223 234.535 6.79532 236.664 3.851C238.793 0.906681 246.884 -2.12257 255.145 2.03911Z" fill="#0E2D3D"/>
<path d="M257.756 46.9399C257.756 46.9399 262.525 47.9025 265.194 51.8377C267.067 54.5839 267.209 60.6424 267.464 61.8031C267.72 62.9355 271.297 75.9019 271.297 75.9019L261.361 82.5549L257.756 46.9399Z" fill="#5C9AFF"/>
<path d="M294.461 268.415C294.461 268.415 300.933 277.135 300.053 278.494C299.173 279.881 292.332 280.079 288.187 278.494C284.043 276.909 283.929 266.717 282.056 262.328C281.261 260.488 282.964 255.081 285.32 254.685C287.676 254.288 290.259 255.449 290.259 255.449C290.259 255.449 287.818 261.621 294.461 268.415Z" fill="#1D3B54"/>
<path d="M290.316 255.392C290.316 255.392 291.679 259.101 292.19 262.64C292.616 265.584 296.817 271.813 296.618 272.605C296.42 273.398 291.083 274.106 288.897 272.067C286.711 270.029 285.32 264.112 284.838 260.601C284.383 257.317 283.816 255.675 283.816 255.675C283.816 255.675 288.244 253.212 290.316 255.392Z" fill="#EEA886"/>
<path d="M238.027 268.557C238.027 268.557 244.272 277.107 243.392 278.494C242.512 279.881 235.671 280.079 231.526 278.494C227.382 276.909 227.268 266.717 225.394 262.328C224.6 260.488 226.303 255.081 228.659 254.685C231.015 254.288 233.797 255.534 233.797 255.534C233.797 255.534 231.384 261.762 238.027 268.557Z" fill="#1D3B54"/>
<path d="M233.797 255.534C233.797 255.534 234.28 259.582 235.075 262.442C235.87 265.301 240.128 271.813 239.929 272.605C239.73 273.398 234.393 274.106 232.208 272.067C230.022 270.029 228.347 264.14 228.148 260.602C227.949 257.034 228.631 254.713 228.631 254.713C228.631 254.713 231.725 253.382 233.797 255.534Z" fill="#EEA886"/>
<path d="M265.023 113.81C265.023 113.81 270.587 139.629 271.864 146.113C273.142 152.596 276.719 184.077 277.116 189.456C277.514 194.807 282.935 214.964 282.68 216.889C282.424 218.815 290.714 257.204 290.714 257.204C290.714 257.204 287.875 259.469 284.894 257.402C283.361 256.326 266.698 221.448 266.698 211.907C266.698 198.686 256.904 181.444 255.627 178.5C243.875 151.039 246.202 142.659 244.669 140.847C243.137 139.063 242.995 141.951 242.115 145.886C241.206 149.85 239.304 183.992 238.14 188.324C236.977 192.655 237.885 207.32 237.232 214.71C236.579 222.099 233.797 255.534 233.797 255.534C233.797 255.534 231.611 258.931 228.574 255.619C227.921 254.911 223.322 218.362 223.18 209.585C223.038 200.781 222.925 188.664 222.669 184.87C220.313 148.434 214.494 143.225 223.635 117.434C240.809 69.1355 265.023 113.81 265.023 113.81Z" fill="#EEA886"/>
<path d="M227.666 106.591C227.666 106.591 211.826 128.73 218.638 175.782C218.638 175.782 256.223 180.878 276.378 169.894C276.378 169.894 268.061 121.369 265.023 113.81C262.014 106.251 227.666 106.591 227.666 106.591Z" fill="#141954"/>
<path d="M281.885 261.564V270.68H283.078V263.631L281.885 261.564Z" fill="#1D3B54"/>
<path d="M225.224 261.564V270.68H226.417V263.631L225.224 261.564Z" fill="#1D3B54"/>
<path d="M248.928 43.7125C248.928 43.7125 254.775 46.4587 256.791 46.855C258.806 47.2514 266.698 57.4433 268.061 61.1803C269.452 64.889 268.061 70.4945 265.222 77.0343C262.383 83.5741 265.052 85.7823 263.774 92.3221C262.468 98.8619 261.333 112.734 261.588 116.386C261.844 120.038 228.773 120.718 221.25 114.093C221.25 114.093 228.829 102.769 229.795 101.155C230.76 99.5414 229.965 90.7084 229.057 88.4436C228.177 86.1787 222.215 66.9274 222.215 66.9274C222.215 66.9274 217.361 52.1208 221.733 48.7235C225.537 45.7792 235.926 44.7317 237.8 44.0806C239.702 43.4294 245.124 43.1463 248.928 43.7125Z" fill="#EDDAD3"/>
<path d="M250.801 56.7072L254.35 52.5738L251.255 41.6742C251.284 41.6459 250.233 47.7327 250.801 56.7072Z" fill="#D6C5BE"/>
<path d="M251.738 37.0029C251.738 37.0029 251.568 38.4751 251.397 40.4851C251.312 41.3911 251.227 42.3819 251.142 43.4294C250.915 46.3738 250.716 49.5446 250.83 51.1866C250.83 51.1866 244.755 57.2451 237.857 44.1089C237.857 44.1089 240.752 38.7015 238.566 31.3124C236.352 23.895 251.738 37.0029 251.738 37.0029Z" fill="#EEA886"/>
<path d="M250.801 51.1582V56.7071L243.818 51.4979L250.801 51.1582Z" fill="#EEA886"/>
<path d="M250.801 56.7072L247.906 53.1117L238.14 43.4294L234.989 46.4587L250.801 56.7072Z" fill="#D6C5BE"/>
<path d="M236.778 44.3354C236.778 44.3354 244.982 56.7356 245.379 62.1995C245.777 67.6635 242.342 108.516 239.588 121.624C236.835 134.732 216.935 120.152 216.935 120.152C216.935 120.152 230.306 98.5789 225.167 81.3093C220.029 64.0398 218.184 57.1319 218.184 57.1319C218.184 57.1319 219.944 47.5063 226.218 46.1473C231.668 44.9583 236.778 44.3354 236.778 44.3354Z" fill="#5C9AFF"/>
<path d="M268.628 62.8506C268.628 62.8506 270.105 68.0598 264.342 79.6106C264.342 79.6106 264.427 94.3605 264.597 98.9752C264.768 103.59 268.032 120.152 268.032 120.152L260.169 124.342C259.034 125.021 257.614 124.087 257.756 122.756C259.374 109.479 264.626 59.1702 253.271 45.6377L257.813 46.9683C257.813 46.9683 265.903 53.5647 268.628 62.8506Z" fill="#5C9AFF"/>
<path d="M254.35 52.574L258.835 53.7913L251.284 41.646L254.35 52.574Z" fill="#FAE6DE"/>
<path d="M247.906 53.1118L243.818 58.4625L235.444 44.5336L238.339 42.8916L247.906 53.1118Z" fill="#FAE6DE"/>
<path d="M254.971 73.8073L253.814 74.7209L264.666 88.3952L265.824 87.4816L254.971 73.8073Z" fill="#EB4747"/>
<path d="M253.157 86.8299C253.157 86.8299 254.208 86.8582 254.889 86.3486C256.053 85.471 256.479 83.2911 258.579 83.4326C260.652 83.6025 261.617 90.0856 261.106 91.303C260.595 92.5204 257.699 93.1432 253.441 92.2939C249.126 91.4729 253.157 86.8299 253.157 86.8299Z" fill="#EEA886"/>
<path d="M257.841 83.4893C257.841 83.4893 260.822 82.4701 264.285 81.734C267.323 81.0829 270.928 80.8564 271.268 81.3943C271.666 81.9888 268.316 82.4701 265.364 83.3194C262.639 84.0838 263.292 84.3669 263.292 84.3669C263.292 84.3669 263.121 84.282 266.215 83.9989C269.565 83.6874 273 83.6874 273.341 84.3669C273.511 84.6783 273.397 84.9048 272.177 85.2162C272.915 85.1879 273 85.3578 273.028 85.6692C273.17 87.1697 268.288 88.3587 266.357 88.84C267.862 88.472 268.969 88.387 268.43 89.3779C267.805 90.5387 260.85 91.9259 258.381 92.662C255.712 93.4263 257.841 83.4893 257.841 83.4893Z" fill="#EEA886"/>
<path d="M227.353 46.3739C225.309 45.7227 219.263 47.846 218.241 54.0178C217.219 60.1895 216.822 67.0124 215.856 70.3531C214.891 73.6655 212.478 88.3871 214.522 89.6044C216.566 90.8218 220.427 91.9259 225.82 91.9259C231.413 91.9259 253.072 92.8885 253.072 92.8885L254.435 85.2163C254.435 85.2163 246.202 84.7916 241.944 84.1404C238.14 83.5742 232.889 81.9605 226.7 81.2811C226.7 81.2811 228.006 72.165 228.971 69.5887C229.937 67.0124 236.579 49.3465 227.353 46.3739Z" fill="#5C9AFF"/>
<path d="M255.059 98.6639L276.889 94.3607L293.07 59.7932L269.764 62.2562L255.059 98.6639Z" fill="white"/>
<path d="M279.614 88.5003C279.614 88.5003 280.806 87.3962 281.885 85.8391C282.964 84.282 286.427 78.365 286.115 77.997C285.803 77.629 280.608 77.4874 279.671 78.3367C278.734 79.1861 280.608 79.4975 280.608 79.4975C280.608 79.4975 277.769 79.7806 277.968 80.5733C278.166 81.366 279.87 81.1395 279.87 81.1395C279.87 81.1395 277.599 81.5642 277.939 82.2719C278.28 82.9797 279.387 82.9514 279.387 82.9514C279.387 82.9514 277.372 83.2062 277.627 83.9706C277.883 84.735 281.062 85.471 280.636 86.0939C280.182 86.7733 279.614 88.5003 279.614 88.5003Z" fill="#EEA886"/>
<path d="M253.81 3.42638C253.81 3.42638 267.408 7.70131 260.027 31.1143C252.646 54.5273 234.053 28.3965 236.011 14.1279C237.942 -0.140778 253.81 3.42638 253.81 3.42638Z" fill="#EEA987"/>
<path d="M261.418 17.1005C261.418 17.1005 254.662 23.7253 243.335 24.5463C243.335 24.5463 238.992 29.6422 238.651 31.624C238.651 31.624 228.546 14.4676 240.979 4.16252C253.384 -6.11429 265.96 12.8539 261.418 17.1005Z" fill="#0E2D3D"/>
<path d="M243.477 24.999C243.392 23.3004 242.342 19.4218 239.787 20.4976C237.261 21.5734 239.929 29.4721 241.632 28.9909C241.632 29.0192 243.676 29.0475 243.477 24.999Z" fill="#EEA987"/>
<path d="M251.369 40.4851C251.284 41.391 251.199 42.3819 251.114 43.4294C243.25 39.5508 242.03 33.9736 242.001 33.8037C247.622 40.9946 251.369 40.4851 251.369 40.4851Z" fill="#A77860"/>
<path d="M35.0015 248.116L34.6041 248.088C34.6041 247.946 35.3705 233.48 35.1434 216.493C34.9447 200.809 33.866 179.718 29.8634 168.195L30.2324 168.053C34.2634 179.604 35.3422 200.781 35.5409 216.465C35.768 233.508 35.0299 247.975 35.0015 248.116Z" fill="url(#paint0_linear_164_881)"/>
<path d="M40.7357 248.116C40.679 247.182 35.9099 154.974 29.8918 127.229L30.2892 127.144C36.3357 154.917 41.1048 247.182 41.1616 248.088L40.7357 248.116Z" fill="url(#paint1_linear_164_881)"/>
<path d="M38.4931 251.174C38.4647 250.353 34.3769 169.045 37.5563 152.624L37.9537 152.709C34.7744 169.073 38.8337 250.325 38.8905 251.146L38.4931 251.174Z" fill="url(#paint2_linear_164_881)"/>
<path d="M38.2377 249.39H37.8402C37.8402 248.937 37.897 203.442 41.5873 182.69L41.9848 182.747C38.2944 203.47 38.2377 248.937 38.2377 249.39Z" fill="url(#paint3_linear_164_881)"/>
<path d="M70.2584 164.883C70.2584 164.883 66.199 137.195 56.008 150.331C48.968 159.39 44.3977 172.187 42.2118 179.236C41.2751 182.322 40.6789 185.521 40.5086 188.749L40.0544 196.506C62.1397 138.978 70.2584 164.883 70.2584 164.883Z" fill="url(#paint4_linear_164_881)"/>
<path d="M75.4249 131.702C75.4249 131.702 79.5126 105.232 56.377 117.037C34.2066 128.333 36.7047 162.335 36.7047 162.335C38.0389 156.673 40.4234 141.498 48.3434 131.702C69.2932 105.685 75.4249 131.702 75.4249 131.702Z" fill="url(#paint5_linear_164_881)"/>
<path d="M52.3745 216.437C39.1744 213.832 38.4647 225.128 38.4647 225.128V229.261C39.5718 222.155 52.3745 216.437 52.3745 216.437Z" fill="url(#paint6_linear_164_881)"/>
<path d="M19.8427 102.627C6.95487 92.9733 0 102.627 0 102.627C0 102.627 24.7821 103.816 34.2066 158.315C34.2066 158.315 32.7589 112.281 19.8427 102.627Z" fill="url(#paint7_linear_164_881)"/>
<path d="M9.16916 141.555C9.16916 141.555 29.8351 168.28 34.008 190.108L33.5538 185.012C33.5538 185.012 32.7306 146.254 9.16916 141.555Z" fill="url(#paint8_linear_164_881)"/>
<path d="M34.008 190.136L34.7177 198.091C34.8028 195.543 34.519 192.882 34.008 190.136Z" fill="#DAE5E8"/>
<path d="M17.9976 199.79C17.9976 199.79 34.3203 216.72 35.399 220.258C35.399 220.258 28.8415 200.781 17.9976 199.79Z" fill="url(#paint9_linear_164_881)"/>
<path d="M51.3525 281.495L57.2571 245.965H18.4233L24.3279 281.495H51.3525Z" fill="url(#paint10_linear_164_881)"/>
<path d="M60.9189 236.424H14.7897V245.965H60.9189V236.424Z" fill="url(#paint11_linear_164_881)"/>
<path d="M57.2571 245.965H18.4233L24.3279 281.495H30.9705C30.9705 281.495 24.4698 253.92 56.008 253.637L57.2571 245.965Z" fill="url(#paint12_linear_164_881)"/>
<defs>
<linearGradient id="paint0_linear_164_881" x1="29.8755" y1="208.088" x2="35.5987" y2="208.088" gradientUnits="userSpaceOnUse">
<stop stop-color="#6B9E34"/>
<stop offset="0.1351" stop-color="#61933C"/>
<stop offset="1" stop-color="#1F4A6E"/>
</linearGradient>
<linearGradient id="paint1_linear_164_881" x1="29.8688" y1="187.622" x2="41.1189" y2="187.622" gradientUnits="userSpaceOnUse">
<stop stop-color="#6B9E34"/>
<stop offset="0.1351" stop-color="#61933C"/>
<stop offset="1" stop-color="#1F4A6E"/>
</linearGradient>
<linearGradient id="paint2_linear_164_881" x1="36.3631" y1="201.915" x2="38.9011" y2="201.915" gradientUnits="userSpaceOnUse">
<stop stop-color="#6B9E34"/>
<stop offset="0.1351" stop-color="#61933C"/>
<stop offset="1" stop-color="#1F4A6E"/>
</linearGradient>
<linearGradient id="paint3_linear_164_881" x1="37.8458" y1="216.037" x2="41.9705" y2="216.037" gradientUnits="userSpaceOnUse">
<stop stop-color="#6B9E34"/>
<stop offset="0.1351" stop-color="#61933C"/>
<stop offset="1" stop-color="#1F4A6E"/>
</linearGradient>
<linearGradient id="paint4_linear_164_881" x1="40.0624" y1="171.628" x2="70.2721" y2="171.628" gradientUnits="userSpaceOnUse">
<stop stop-color="#6B9E34"/>
<stop offset="0.1351" stop-color="#61933C"/>
<stop offset="1" stop-color="#1F4A6E"/>
</linearGradient>
<linearGradient id="paint5_linear_164_881" x1="36.5958" y1="138.168" x2="75.6946" y2="138.168" gradientUnits="userSpaceOnUse">
<stop stop-color="#6B9E34"/>
<stop offset="0.1351" stop-color="#61933C"/>
<stop offset="1" stop-color="#1F4A6E"/>
</linearGradient>
<linearGradient id="paint6_linear_164_881" x1="38.4703" y1="222.663" x2="52.3776" y2="222.663" gradientUnits="userSpaceOnUse">
<stop stop-color="#6B9E34"/>
<stop offset="0.1351" stop-color="#61933C"/>
<stop offset="1" stop-color="#1F4A6E"/>
</linearGradient>
<linearGradient id="paint7_linear_164_881" x1="-0.00354841" y1="128.337" x2="34.197" y2="128.337" gradientUnits="userSpaceOnUse">
<stop stop-color="#6B9E34"/>
<stop offset="0.1351" stop-color="#61933C"/>
<stop offset="1" stop-color="#1F4A6E"/>
</linearGradient>
<linearGradient id="paint8_linear_164_881" x1="9.17001" y1="165.843" x2="34.0083" y2="165.843" gradientUnits="userSpaceOnUse">
<stop stop-color="#6B9E34"/>
<stop offset="0.1351" stop-color="#61933C"/>
<stop offset="1" stop-color="#1F4A6E"/>
</linearGradient>
<linearGradient id="paint9_linear_164_881" x1="17.9939" y1="210.015" x2="35.3963" y2="210.015" gradientUnits="userSpaceOnUse">
<stop stop-color="#6B9E34"/>
<stop offset="0.1351" stop-color="#61933C"/>
<stop offset="1" stop-color="#1F4A6E"/>
</linearGradient>
<linearGradient id="paint10_linear_164_881" x1="18.4293" y1="263.734" x2="57.2619" y2="263.734" gradientUnits="userSpaceOnUse">
<stop stop-color="#D1D7E0"/>
<stop offset="1" stop-color="#EBEBFF"/>
</linearGradient>
<linearGradient id="paint11_linear_164_881" x1="37.8455" y1="226.073" x2="37.8455" y2="303.4" gradientUnits="userSpaceOnUse">
<stop stop-color="#D1D7E0"/>
<stop offset="1" stop-color="#EBEBFF"/>
</linearGradient>
<linearGradient id="paint12_linear_164_881" x1="36.3597" y1="237.389" x2="47.8259" y2="305.883" gradientUnits="userSpaceOnUse">
<stop stop-color="#D1D7E0"/>
<stop offset="1" stop-color="#EBEBFF"/>
</linearGradient>
</defs>
</svg>
