<svg viewBox="0 0 1024 703" fill="none" xmlns="http://www.w3.org/2000/svg">
<g clip-path="url(#clip0_185_1236)">
<path d="M759.566 164.367C761.827 141.538 745.15 121.199 722.316 118.939C699.482 116.678 679.139 133.352 676.878 156.181C674.617 179.01 691.294 199.349 714.128 201.61C736.962 203.87 757.305 187.196 759.566 164.367Z" fill="#0D66C4"/>
<path d="M862.856 163.605C864.722 140.739 847.694 120.691 824.824 118.825C801.954 116.96 781.901 133.984 780.036 156.85C778.17 179.716 795.198 199.764 818.068 201.63C840.938 203.495 860.991 186.47 862.856 163.605Z" fill="#0D66C4"/>
<path d="M965.833 166.739C968.696 143.976 952.561 123.203 929.794 120.34C907.027 117.477 886.25 133.608 883.386 156.371C880.522 179.133 896.657 199.907 919.424 202.77C942.191 205.633 962.969 189.501 965.833 166.739Z" fill="#0D66C4"/>
<path d="M742.88 151.473C744.159 154.599 744.869 158.009 744.869 161.609C744.869 176.34 732.931 188.276 718.198 188.276C703.464 188.276 691.526 176.34 691.526 161.609C691.526 146.879 703.464 134.943 718.198 134.943C718.671 134.943 719.098 134.943 719.524 134.99V128.217C719.098 128.217 718.624 128.169 718.198 128.169C699.721 128.169 684.751 143.137 684.751 161.609C684.751 180.081 699.721 195.049 718.198 195.049C736.674 195.049 751.644 180.081 751.644 161.609C751.644 157.062 750.744 152.752 749.086 148.773L742.88 151.473Z" fill="#FDC500"/>
<path d="M835.213 184.155C831.091 186.76 826.211 188.276 821 188.276C806.267 188.276 794.328 176.34 794.328 161.609C794.328 146.879 806.267 134.943 821 134.943C821.474 134.943 821.9 134.943 822.327 134.99V128.217C821.9 128.217 821.427 128.169 821 128.169C802.524 128.169 787.554 143.137 787.554 161.609C787.554 180.081 802.524 195.049 821 195.049C827.443 195.049 833.46 193.202 838.576 190.075L835.213 184.155Z" fill="#FDC500"/>
<path d="M946.922 176.576C942.137 183.634 934.036 188.228 924.845 188.228C910.112 188.228 898.173 176.292 898.173 161.562C898.173 146.831 910.112 134.895 924.845 134.895C925.319 134.895 925.745 134.895 926.172 134.943V128.169C925.745 128.169 925.271 128.122 924.845 128.122C906.369 128.122 891.399 143.089 891.399 161.562C891.399 180.034 906.369 195.001 924.845 195.001C936.262 195.001 946.353 189.27 952.37 180.555L946.922 176.576Z" fill="#FDC500"/>
<g opacity="0.64">
<path d="M752.07 219.347H684.372C680.108 219.347 676.697 222.805 676.697 227.02C676.697 231.283 680.156 234.693 684.372 234.693H752.07C756.334 234.693 759.745 231.236 759.745 227.02C759.745 222.757 756.287 219.347 752.07 219.347Z" fill="#D1E2F4"/>
<path d="M855.252 219.347H787.554C783.29 219.347 779.879 222.805 779.879 227.02C779.879 231.283 783.338 234.693 787.554 234.693H855.252C859.516 234.693 862.927 231.236 862.927 227.02C862.974 222.757 859.516 219.347 855.252 219.347Z" fill="#D1E2F4"/>
<path d="M890.83 234.741H958.528C962.792 234.741 966.203 231.283 966.203 227.068C966.203 222.805 962.745 219.395 958.528 219.395H890.83C886.567 219.395 883.156 222.852 883.156 227.068C883.108 231.283 886.567 234.741 890.83 234.741Z" fill="#D1E2F4"/>
<path d="M752.07 243.266H684.372C680.108 243.266 676.697 246.724 676.697 250.939V296.22C676.697 300.483 680.156 303.894 684.372 303.894H752.07C756.334 303.894 759.745 300.436 759.745 296.22V250.939C759.745 246.724 756.287 243.266 752.07 243.266Z" fill="#D1E2F4"/>
<path d="M855.252 243.266H787.554C783.29 243.266 779.879 246.724 779.879 250.939V296.22C779.879 300.483 783.338 303.894 787.554 303.894H855.252C859.516 303.894 862.927 300.436 862.927 296.22V250.939C862.974 246.724 859.516 243.266 855.252 243.266Z" fill="#D1E2F4"/>
<path d="M958.481 243.266H890.783C886.519 243.266 883.108 246.724 883.108 250.939V296.22C883.108 300.483 886.567 303.894 890.783 303.894H958.481C962.745 303.894 966.156 300.436 966.156 296.22V250.939C966.203 246.724 962.745 243.266 958.481 243.266Z" fill="#D1E2F4"/>
</g>
<path d="M371.985 587.894C371.985 587.894 183.718 620.718 117.441 489.375C56.802 369.257 55.665 245.587 55.9019 225.268C55.9019 223.989 54.6702 223.089 53.4384 223.563C47.564 225.836 32.9726 228.015 28.2826 197.18C22.3607 158.199 27.2877 88.9514 47.2324 79.6679C67.177 70.3843 73.4778 118.839 70.588 160.899C67.6982 202.912 66.8928 219.631 66.8928 219.631C66.8928 219.631 33.9675 628.012 371.985 587.894Z" fill="#86B3E2"/>
<path d="M48.6062 214.137C48.5115 214.137 48.3693 214.137 48.2272 214.09C43.5845 212.906 39.5103 209.022 37.2837 203.669C35.3887 199.075 35.0097 194.196 34.7728 189.176C33.5411 165.067 34.915 140.769 38.8471 116.991C40.2683 108.418 43.016 98.0454 51.6382 94.2089C52.3488 93.8773 53.2015 94.2089 53.5331 94.9194C53.8648 95.6298 53.5331 96.4824 52.8225 96.814C45.4321 100.13 43.016 109.555 41.6895 117.465C37.8048 141.053 36.431 165.162 37.6627 189.034C37.8996 193.817 38.2786 198.412 39.984 202.58C41.8316 207.08 45.1952 210.3 48.9378 211.295C49.6958 211.485 50.1696 212.29 49.9801 213.048C49.8379 213.663 49.2221 214.137 48.6062 214.137Z" fill="#DCE5FE"/>
<path d="M104.887 294.657C104.887 294.657 87.8323 282.058 101.097 238.672C112.751 200.496 125.685 176.624 142.076 183.397C158.468 190.123 131.322 269.554 110.951 294.326C110.951 294.326 70.7775 676.94 374.685 671.683C374.685 671.683 89.5378 728.521 104.887 294.657Z" fill="#86B3E2"/>
<path d="M105.787 279.974C105.266 279.974 104.745 279.69 104.508 279.169C96.6913 263.539 109.577 220.768 125.448 195.807C126.679 193.912 134.828 186.665 138.286 187.755C141.792 188.844 142.029 193.202 141.176 196.565C139.186 204.522 135.823 212.053 131.275 218.874C130.848 219.537 129.948 219.726 129.285 219.252C128.622 218.826 128.432 217.926 128.906 217.263C133.264 210.679 136.486 203.48 138.428 195.854C138.902 193.96 139.044 190.976 137.433 190.502C135.917 190.312 129.19 195.333 127.911 197.37C110.998 223.989 100.529 264.628 107.161 277.89C107.54 278.601 107.208 279.453 106.498 279.832C106.214 279.927 106.024 279.974 105.787 279.974Z" fill="#DCE5FE"/>
<g opacity="0.91">
<path d="M170.88 128.454C220.955 160.899 504.681 361.584 364.12 661.594C364.12 661.594 143.308 577.521 163.11 132.432C163.253 128.548 167.611 126.322 170.88 128.454Z" fill="#86B3E2"/>
<path d="M191.819 184.628C191.819 184.628 207.927 208.264 230.666 244.593C233.509 249.14 236.446 253.876 239.478 258.802C242.51 263.728 245.589 268.843 248.811 274.054C255.159 284.569 261.839 295.652 268.566 307.256C275.341 318.813 282.21 330.844 289.127 343.112C292.538 349.269 295.949 355.474 299.407 361.726C302.77 367.978 306.229 374.278 309.545 380.577C312.861 386.924 316.272 393.224 319.494 399.571C321.104 402.744 322.763 405.918 324.373 409.044C325.984 412.217 327.547 415.391 329.111 418.517C330.674 421.69 332.237 424.816 333.801 427.942C335.317 431.068 336.833 434.195 338.301 437.321C341.333 443.525 344.176 449.73 347.018 455.793C352.656 467.966 357.867 479.854 362.604 491.222C367.342 502.59 371.606 513.389 375.301 523.478C377.243 528.498 378.854 533.377 380.465 538.019C381.27 540.339 382.028 542.613 382.786 544.792C383.497 546.971 384.16 549.149 384.823 551.233C386.102 555.402 387.381 559.285 388.424 562.933C389.418 566.58 390.366 569.943 391.171 572.974C391.598 574.49 391.977 575.911 392.356 577.284C392.687 578.658 392.972 579.937 393.256 581.121C393.824 583.489 394.298 585.526 394.677 587.136C395.435 590.404 395.861 592.157 395.861 592.157C396.098 593.199 395.482 594.241 394.44 594.478C393.398 594.714 392.356 594.099 392.119 593.057V592.962C392.119 592.962 391.74 591.209 390.982 587.989C390.603 586.378 390.129 584.342 389.608 582.021C389.324 580.837 389.039 579.558 388.755 578.231C388.376 576.905 387.997 575.484 387.618 573.969C386.813 570.985 385.913 567.622 384.918 564.022C383.923 560.422 382.644 556.538 381.412 552.37C380.749 550.286 380.133 548.155 379.422 545.976C378.664 543.797 377.906 541.524 377.148 539.25C375.585 534.656 373.974 529.777 372.079 524.756C368.432 514.715 364.263 503.916 359.572 492.548C354.882 481.228 349.766 469.339 344.223 457.167C341.428 451.104 338.633 444.899 335.648 438.694C334.18 435.568 332.664 432.442 331.195 429.316C329.679 426.19 328.116 423.064 326.552 419.89C324.989 416.764 323.473 413.543 321.862 410.417C320.252 407.244 318.641 404.118 317.03 400.944C313.856 394.597 310.493 388.298 307.224 381.951C303.955 375.604 300.496 369.352 297.18 363.052C293.769 356.8 290.358 350.595 286.995 344.438C280.173 332.17 273.351 320.092 266.624 308.535C259.944 296.931 253.311 285.8 247.011 275.285C243.837 270.028 240.757 264.912 237.773 259.986C234.741 255.06 231.803 250.324 229.008 245.729C223.371 236.635 218.16 228.299 213.47 220.957C208.827 213.616 204.705 207.222 201.294 202.011C194.472 191.544 190.493 185.623 190.493 185.623C190.256 185.244 190.351 184.723 190.73 184.486C191.014 184.155 191.535 184.25 191.819 184.628Z" fill="#DCE5FE"/>
</g>
<path d="M1002.82 214.184C1007.28 275.096 1018.84 630.807 686.978 701.57C686.978 701.57 619.09 469.387 994.77 210.3C998.039 208.027 1002.54 210.206 1002.82 214.184Z" fill="#CFE0F3"/>
<path d="M969.851 266.002C969.851 266.002 960.518 293.758 944.885 334.823C942.895 339.939 940.858 345.291 938.726 350.832C936.547 356.327 934.32 362.058 932.046 367.884C927.403 379.583 922.429 391.898 917.17 404.544C911.912 417.238 906.322 430.264 900.589 443.478C897.652 450.062 894.715 456.693 891.778 463.372C888.746 470.003 885.761 476.681 882.634 483.312C879.508 489.943 876.476 496.575 873.254 503.158C871.691 506.426 870.08 509.742 868.517 513.01C866.954 516.278 865.295 519.499 863.732 522.72C862.121 525.941 860.511 529.162 858.947 532.382C857.336 535.556 855.678 538.729 854.068 541.855C850.894 548.155 847.577 554.312 844.356 560.375C837.913 572.501 831.423 584.105 825.074 594.999C818.726 605.893 812.52 616.076 806.598 625.312C803.709 630.002 800.724 634.359 797.929 638.527C796.508 640.611 795.181 642.648 793.855 644.59C792.528 646.532 791.154 648.427 789.828 650.226C787.222 653.874 784.853 657.284 782.485 660.41C780.116 663.489 777.984 666.331 775.994 668.841C775 670.12 774.099 671.304 773.199 672.441C772.299 673.53 771.446 674.572 770.641 675.519C769.03 677.461 767.704 679.072 766.614 680.398C764.435 683.05 763.251 684.471 763.251 684.471C762.587 685.277 761.356 685.419 760.55 684.708C759.745 684.045 759.603 682.814 760.314 682.008L760.361 681.961C760.361 681.961 761.545 680.587 763.724 677.935C764.814 676.609 766.188 674.998 767.751 673.104C768.557 672.156 769.409 671.114 770.31 670.025C771.162 668.888 772.11 667.704 773.105 666.473C775.047 663.962 777.226 661.168 779.548 658.136C781.869 655.105 784.238 651.647 786.891 648.095C788.17 646.295 789.544 644.448 790.917 642.506C792.244 640.564 793.618 638.527 794.992 636.491C797.787 632.37 800.771 628.06 803.661 623.418C809.63 614.229 815.836 604.14 822.232 593.294C828.58 582.495 835.118 570.938 841.608 558.907C844.877 552.891 848.193 546.734 851.367 540.482C852.978 537.356 854.636 534.182 856.247 531.056C857.858 527.883 859.468 524.662 861.079 521.441C862.69 518.22 864.348 514.999 865.911 511.731C867.475 508.463 869.085 505.195 870.696 501.927C873.918 495.39 876.997 488.759 880.124 482.176C883.25 475.592 886.282 468.913 889.314 462.282C892.299 455.651 895.283 449.02 898.221 442.436C904 429.269 909.685 416.243 914.944 403.597C920.297 390.951 925.272 378.683 929.962 367.031C932.283 361.205 934.557 355.522 936.736 350.027C938.868 344.533 940.953 339.181 942.942 334.065C946.874 323.834 950.475 314.409 953.554 306.073C956.681 297.736 959.334 290.395 961.513 284.379C965.824 272.349 968.193 265.433 968.193 265.433C968.335 265.007 968.809 264.77 969.235 264.912C969.804 265.102 970.04 265.576 969.851 266.002Z" fill="#DCE5FE"/>
<path d="M28.9458 482.033C27.5719 479.428 30.6039 476.681 33.02 478.339C56.6599 494.348 119.905 534.372 170.785 540.955C253.596 551.707 346.924 604.046 352.893 666.946C352.94 666.946 180.213 765.797 28.9458 482.033Z" fill="#CFE0F3"/>
<path d="M59.1707 507.8C59.1707 507.8 59.4076 507.99 59.834 508.368C60.2603 508.747 60.9236 509.268 61.7289 509.979C63.4344 511.4 65.9927 513.389 69.2141 515.994C72.483 518.552 76.415 521.631 81.0104 525.088C85.6057 528.593 90.8169 532.382 96.5492 536.598C102.282 540.766 108.535 545.218 115.215 549.813C121.847 554.455 129.001 559.191 136.391 564.07C143.782 568.901 151.456 573.874 159.415 578.753C161.405 579.984 163.395 581.168 165.384 582.4C167.374 583.584 169.411 584.815 171.448 586C175.475 588.415 179.597 590.736 183.671 593.104C187.745 595.473 191.914 597.699 195.988 600.02C200.11 602.246 204.231 604.472 208.353 606.651C212.475 608.735 216.549 610.914 220.623 612.903C222.66 613.898 224.697 614.892 226.734 615.887C228.724 616.882 230.761 617.876 232.751 618.776C240.757 622.518 248.574 625.976 256.059 629.102C263.544 632.228 270.698 634.975 277.33 637.391C280.694 638.527 283.868 639.664 286.947 640.706C290.027 641.701 292.917 642.601 295.664 643.453C297.038 643.88 298.365 644.306 299.644 644.685C300.923 645.016 302.202 645.395 303.386 645.727C305.802 646.39 307.982 647.006 309.971 647.527C313.951 648.521 317.125 649.232 319.304 649.753C321.436 650.274 322.62 650.511 322.62 650.511C322.857 650.558 323.047 650.842 322.999 651.079C322.952 651.316 322.668 651.505 322.431 651.458C322.431 651.458 321.246 651.221 319.115 650.795C316.935 650.321 313.714 649.753 309.687 648.853C307.65 648.379 305.423 647.811 303.007 647.195C301.776 646.911 300.544 646.579 299.217 646.248C297.938 645.869 296.564 645.49 295.191 645.111C292.395 644.306 289.458 643.501 286.332 642.553C283.252 641.559 280.031 640.469 276.62 639.38C269.893 637.059 262.644 634.454 255.112 631.423C247.532 628.439 239.668 624.981 231.614 621.239C229.577 620.339 227.54 619.392 225.55 618.397C223.513 617.403 221.476 616.408 219.391 615.413C215.27 613.424 211.196 611.292 207.027 609.161C202.905 606.982 198.736 604.756 194.567 602.53C190.445 600.209 186.277 597.936 182.202 595.567C178.128 593.199 174.007 590.831 169.98 588.368C167.943 587.136 165.953 585.952 163.916 584.721C161.926 583.489 159.936 582.258 157.947 581.026C150.035 576.1 142.36 571.08 134.923 566.201C127.58 561.228 120.521 556.349 113.888 551.613C107.256 546.923 101.05 542.329 95.3649 538.114C83.995 529.588 74.8043 522.152 68.4087 516.894C65.2347 514.242 62.7238 512.158 61.0657 510.689C60.213 509.979 59.5497 509.363 59.1234 508.984C58.697 508.605 58.5075 508.368 58.5075 508.368C58.318 508.179 58.318 507.895 58.5075 507.705C58.6022 507.611 58.9339 507.611 59.1707 507.8Z" fill="#DCE5FE"/>
<path d="M828.485 215.369C827.87 212.858 824.316 212.906 823.701 215.416C817.921 239.572 800.724 302.378 771.92 336.433C725.02 391.898 695.742 480.233 728.809 524.188C728.762 524.188 897.747 486.438 828.485 215.369Z" fill="#86B3E2"/>
<path d="M825.122 249.661C825.122 249.661 825.122 249.898 825.074 250.419C825.027 250.94 824.932 251.698 824.838 252.645C824.648 254.587 824.269 257.381 823.795 260.934C822.8 268.086 821.237 278.269 818.963 290.395C817.779 296.457 816.5 303.041 815.031 309.956C813.562 316.872 811.904 324.166 810.057 331.65C808.162 339.133 806.172 346.854 803.945 354.669C803.377 356.611 802.856 358.6 802.287 360.542C801.719 362.484 801.103 364.474 800.534 366.415C799.397 370.347 798.118 374.278 796.887 378.209C795.655 382.141 794.328 386.025 793.002 389.956C791.628 393.84 790.254 397.676 788.88 401.513C787.412 405.302 786.038 409.091 784.569 412.786C783.053 416.48 781.679 420.127 780.116 423.68C777.131 430.785 774.052 437.652 770.925 443.999C767.846 450.394 764.719 456.314 761.735 461.761C760.219 464.461 758.75 467.019 757.329 469.482C755.908 471.897 754.439 474.171 753.113 476.302C752.449 477.392 751.786 478.386 751.17 479.381C750.507 480.376 749.891 481.276 749.275 482.176C748.043 483.975 746.954 485.633 745.959 487.149C743.875 490.085 742.169 492.359 741.032 493.922C739.895 495.485 739.279 496.29 739.279 496.29C739.137 496.527 738.805 496.527 738.616 496.385C738.426 496.243 738.379 495.959 738.521 495.722C738.521 495.722 739.09 494.869 740.179 493.259C741.269 491.649 742.88 489.375 744.869 486.344C745.817 484.828 746.906 483.123 748.043 481.323C748.612 480.423 749.228 479.476 749.844 478.481C750.412 477.486 751.028 476.444 751.691 475.355C752.923 473.176 754.297 470.903 755.671 468.44C756.997 465.977 758.419 463.372 759.887 460.672C762.73 455.225 765.714 449.257 768.699 442.863C771.636 436.468 774.668 429.648 777.605 422.543C779.121 418.991 780.495 415.344 781.964 411.649C783.432 407.955 784.759 404.213 786.18 400.424C787.506 396.634 788.88 392.75 790.207 388.914C791.486 385.03 792.86 381.146 794.091 377.262C795.323 373.331 796.602 369.447 797.787 365.516C798.403 363.574 798.971 361.584 799.54 359.642C800.108 357.7 800.677 355.758 801.245 353.816C803.472 346.049 805.509 338.375 807.451 330.892C809.346 323.408 811.146 316.209 812.71 309.341C814.32 302.473 815.694 295.936 816.973 289.921C818.158 283.858 819.342 278.364 820.242 273.438C821.19 268.512 821.9 264.202 822.516 260.65C823.085 257.097 823.558 254.303 823.843 252.408C823.985 251.461 824.08 250.75 824.127 250.277C824.174 249.803 824.222 249.519 824.222 249.519V249.471C824.269 249.187 824.506 248.998 824.743 249.045C824.932 249.187 825.122 249.424 825.122 249.661Z" fill="#DCE5FE"/>
<path d="M364.026 142.427H693.468C711.66 142.427 726.63 156.683 727.53 174.824L751.833 652.31C752.544 666.52 741.364 678.503 727.151 678.74L349.577 685.608C336.217 685.845 325.273 675.093 325.273 661.736V181.171C325.273 159.762 342.612 142.427 364.026 142.427Z" fill="url(#paint0_linear_185_1236)"/>
<path d="M404.768 677.509L362.51 676.94C348.392 676.751 336.88 665.099 336.88 650.984V587.231C336.88 586.71 337.307 586.331 337.78 586.331C338.301 586.331 338.68 586.757 338.68 587.231V650.984C338.68 664.104 349.387 674.951 362.51 675.14L404.768 675.709C405.289 675.709 405.668 676.135 405.668 676.609C405.668 677.13 405.289 677.509 404.768 677.509Z" fill="url(#paint1_linear_185_1236)"/>
<path d="M337.828 568.38C337.306 568.38 336.928 567.953 336.928 567.48V557.154C336.928 556.633 337.354 556.254 337.828 556.254C338.349 556.254 338.728 556.68 338.728 557.154V567.48C338.728 568.001 338.301 568.38 337.828 568.38Z" fill="url(#paint2_linear_185_1236)"/>
<path d="M365.021 138.543C410.026 144.653 564.704 163.504 692.615 153.699C698.442 153.273 703.511 157.678 703.843 163.504L729.331 643.122C729.662 649.705 724.641 655.342 718.103 655.721C664.333 658.894 442.762 671.209 363.741 662.92C358.909 662.399 355.261 658.373 355.261 653.542L352.277 149.768C352.229 142.948 358.246 137.643 365.021 138.543Z" fill="url(#paint3_linear_185_1236)"/>
<path d="M369.853 151C413.153 156.873 562.004 175.014 685.083 165.588C690.673 165.162 695.553 169.425 695.884 175.014L720.424 636.585C720.756 642.932 715.924 648.332 709.575 648.711C657.795 651.79 444.61 663.631 368.574 655.674C363.931 655.2 360.425 651.316 360.425 646.627L357.583 161.799C357.535 155.215 363.315 150.1 369.853 151Z" fill="#CFE0F3"/>
<path d="M397.662 197.37L402.257 296.315C402.399 299.584 405.052 302.236 408.368 302.331C426.702 302.852 483.836 304.225 516.051 302.568C519.698 302.378 522.588 299.442 522.683 295.794C523.299 277.227 524.625 223.231 520.409 200.638C519.746 196.991 516.572 194.339 512.876 194.197L404.578 190.407C400.646 190.265 397.472 193.486 397.662 197.37Z" fill="#FCFAF9"/>
<path d="M460.006 254.018C471.754 254.018 481.278 244.497 481.278 232.751C481.278 221.006 471.754 211.485 460.006 211.485C448.259 211.485 438.735 221.006 438.735 232.751C438.735 244.497 448.259 254.018 460.006 254.018Z" fill="#FDC500"/>
<path d="M427.65 295.226H495.443C499.612 295.226 502.075 290.631 499.848 287.126C494.069 278.127 482.036 264.865 461.191 265.481C441.104 266.049 429.166 278.032 423.196 286.605C420.638 290.253 423.244 295.226 427.65 295.226Z" fill="#FDC500"/>
<path d="M670.681 205.99C671.723 205.99 672.529 205.138 672.529 204.096L672.434 201.254C672.386 200.212 671.534 199.359 670.491 199.312L547.744 197.133C546.702 197.133 546.133 197.891 546.465 198.886L548.36 204.19C548.692 205.185 549.829 205.99 550.871 205.99H670.681Z" fill="#FCFAF9"/>
<path d="M547.744 215.605C546.702 215.605 546.133 216.363 546.465 217.358L548.36 222.663C548.692 223.658 549.829 224.463 550.871 224.463H670.681C671.723 224.463 672.529 223.61 672.529 222.568L672.434 219.726C672.386 218.684 671.534 217.832 670.491 217.784L547.744 215.605Z" fill="#FCFAF9"/>
<path d="M547.744 234.315C546.702 234.315 546.133 235.073 546.465 236.067L548.36 241.372C548.692 242.367 549.829 243.172 550.871 243.172H670.681C671.723 243.172 672.529 242.319 672.529 241.277L672.434 238.435C672.386 237.393 671.534 236.541 670.491 236.493L547.744 234.315Z" fill="#FCFAF9"/>
<path d="M682.193 333.402C683.235 333.402 684.041 332.55 683.946 331.508L683.756 328.666C683.709 327.624 682.761 326.771 681.719 326.771L399.462 324.545C398.42 324.545 398.088 325.208 398.751 326.013L403.489 331.934C404.152 332.739 405.526 333.402 406.568 333.402H682.193Z" fill="#FCFAF9"/>
<path d="M399.509 342.97C398.467 342.97 398.135 343.633 398.799 344.438L403.536 350.359C404.199 351.164 405.573 351.827 406.615 351.827H682.193C683.235 351.827 684.041 350.975 683.946 349.933L683.756 347.091C683.709 346.049 682.761 345.196 681.719 345.196L399.509 342.97Z" fill="#FCFAF9"/>
<path d="M400.22 373.805C406.9 373.284 419.454 373.047 426.323 372.952C429.26 372.905 431.819 374.894 432.482 377.736C433.808 383.278 435.656 392.845 435.419 402.981C435.372 406.013 432.861 408.428 429.829 408.428L404.389 408.144C401.262 408.097 398.657 405.729 398.372 402.602L396.146 378.636C395.909 376.173 397.756 373.994 400.22 373.805Z" fill="#FCFAF9"/>
<path d="M445.32 383.562C444.278 383.514 443.568 384.319 443.71 385.361L444.894 393.366C445.036 394.408 446.031 395.261 447.073 395.261H512.829C513.871 395.261 514.724 394.408 514.724 393.366L514.677 388.393C514.677 387.351 513.824 386.451 512.782 386.403L445.32 383.562Z" fill="#FCFAF9"/>
<path d="M538.885 373.805C545.565 373.284 558.119 373.047 564.988 372.952C567.926 372.905 570.484 374.894 571.147 377.736C572.474 383.278 574.321 392.845 574.084 402.981C574.037 406.013 571.526 408.428 568.494 408.428L543.054 408.144C539.927 408.097 537.322 405.729 537.037 402.602L534.811 378.636C534.574 376.173 536.422 373.994 538.885 373.805Z" fill="#FCFAF9"/>
<path d="M584.033 383.562C582.991 383.514 582.28 384.319 582.422 385.361L583.607 393.366C583.749 394.408 584.744 395.261 585.786 395.261H651.542C652.584 395.261 653.437 394.408 653.437 393.366L653.389 388.393C653.389 387.351 652.536 386.451 651.494 386.403L584.033 383.562Z" fill="#FCFAF9"/>
<path d="M436.13 468.819H436.082L412.585 468.582C409.221 468.534 406.473 466.261 406.142 463.229L404.057 443.526C403.915 442.389 404.294 441.205 405.052 440.305C405.905 439.263 407.231 438.647 408.653 438.552C410.642 438.41 413.437 438.173 416.375 437.937C422.581 437.416 430.303 436.752 434.661 436.705C437.835 436.705 440.488 438.552 441.246 441.299C442.478 445.847 442.383 454.372 442.146 463.514C442.052 466.403 439.399 468.819 436.13 468.819ZM408.795 440.305C407.847 440.352 406.994 440.778 406.473 441.442C406 441.963 405.81 442.626 405.857 443.336L407.942 463.04C408.179 465.171 410.169 466.782 412.632 466.782L436.13 467.019H436.177C438.451 467.019 440.346 465.408 440.393 463.419C440.63 454.42 440.725 446.036 439.588 441.726C439.067 439.784 437.077 438.458 434.756 438.458C430.492 438.505 422.77 439.168 416.611 439.689C413.579 439.926 410.784 440.163 408.795 440.305Z" fill="white"/>
<path d="M411.305 442.342C416.232 442.01 426.986 440.921 432.056 440.873C434.235 440.826 436.082 442.152 436.603 443.999C437.598 447.647 437.456 454.846 437.267 461.524C437.219 463.514 435.372 465.124 433.145 465.077L414.385 464.887C412.063 464.887 410.168 463.277 409.932 461.24L408.274 445.515C408.131 443.905 409.505 442.484 411.305 442.342Z" fill="url(#paint4_linear_185_1236)"/>
<path d="M456.785 455.746C457.448 458.304 459.817 460.103 462.47 460.103L679.824 458.256C682.288 458.256 684.23 456.219 684.183 453.757C684.135 451.388 682.193 449.446 679.777 449.446L462.423 448.452C458.585 448.404 455.79 452.004 456.785 455.746Z" fill="#FCFAF9"/>
<path d="M412.348 445.42C414.101 444.378 416.327 444.994 417.322 446.794L421.965 455.083C422.439 455.935 423.623 455.841 424.049 454.988L435.561 429.411C436.13 428.132 438.025 428.558 438.025 429.979C437.93 437.795 435.845 452.667 423.339 465.124C423.339 465.124 416.469 462.424 410.879 450.252C410.026 448.499 410.642 446.415 412.348 445.42Z" fill="#FDC500"/>
<path d="M436.13 519.168H436.082L412.585 518.931C409.221 518.883 406.473 516.61 406.142 513.579L404.057 493.875C403.915 492.738 404.294 491.554 405.052 490.654C405.905 489.612 407.231 488.996 408.653 488.901C410.642 488.759 413.437 488.523 416.375 488.286C422.581 487.765 430.303 487.102 434.661 487.054C434.709 487.054 434.709 487.054 434.756 487.054C437.835 487.054 440.488 488.949 441.246 491.649C442.478 496.196 442.383 504.721 442.146 513.863C442.052 516.752 439.399 519.168 436.13 519.168ZM408.795 490.654C407.847 490.701 406.994 491.128 406.473 491.791C406 492.312 405.81 492.975 405.857 493.685L407.942 513.389C408.179 515.521 410.169 517.131 412.632 517.131L436.13 517.368H436.177C438.451 517.368 440.346 515.757 440.393 513.768C440.63 504.769 440.725 496.385 439.588 492.075C439.067 490.133 437.03 488.759 434.756 488.807C430.492 488.854 422.77 489.517 416.611 490.038C413.579 490.275 410.784 490.512 408.795 490.654Z" fill="white"/>
<path d="M411.305 492.69C416.232 492.359 426.986 491.27 432.056 491.222C434.235 491.175 436.082 492.501 436.603 494.348C437.598 497.995 437.456 505.195 437.267 511.873C437.219 513.863 435.372 515.473 433.145 515.426L414.385 515.236C412.063 515.236 410.168 513.626 409.932 511.589L408.274 495.864C408.131 494.254 409.505 492.833 411.305 492.69Z" fill="url(#paint5_linear_185_1236)"/>
<path d="M456.785 506.048C457.448 508.605 459.817 510.405 462.47 510.405L679.824 508.558C682.288 508.558 684.23 506.521 684.183 504.058C684.135 501.69 682.193 499.748 679.777 499.748L462.423 498.753C458.585 498.706 455.79 502.353 456.785 506.048Z" fill="#FCFAF9"/>
<path d="M412.348 495.769C414.101 494.727 416.327 495.343 417.322 497.143L421.965 505.432C422.439 506.284 423.623 506.19 424.049 505.337L435.561 479.76C436.13 478.481 438.025 478.907 438.025 480.328C437.93 488.143 435.845 503.016 423.339 515.473C423.339 515.473 416.469 512.773 410.879 500.6C410.026 498.848 410.642 496.764 412.348 495.769Z" fill="#FDC500"/>
<path d="M436.13 569.469H436.082L412.585 569.232C409.221 569.185 406.473 566.911 406.142 563.88L404.057 544.176C403.915 543.04 404.294 541.855 405.052 540.955C405.905 539.913 407.231 539.298 408.653 539.203C410.642 539.061 413.437 538.824 416.375 538.587C422.581 538.066 430.303 537.403 434.661 537.356C434.709 537.356 434.709 537.356 434.756 537.356C437.835 537.356 440.488 539.25 441.246 541.95C442.478 546.497 442.383 555.023 442.146 564.164C442.052 567.101 439.399 569.469 436.13 569.469ZM408.795 541.003C407.847 541.05 406.994 541.476 406.473 542.14C406 542.661 405.81 543.324 405.857 544.034L407.942 563.738C408.179 565.869 410.169 567.48 412.632 567.48L436.13 567.717H436.177C438.451 567.717 440.346 566.106 440.393 564.117C440.63 555.118 440.725 546.734 439.588 542.424C439.067 540.482 437.03 539.108 434.756 539.156C430.492 539.203 422.77 539.866 416.611 540.387C413.579 540.624 410.784 540.861 408.795 541.003Z" fill="white"/>
<path d="M411.305 543.04C416.232 542.708 426.986 541.619 432.056 541.571C434.235 541.524 436.082 542.85 436.603 544.697C437.598 548.344 437.456 555.544 437.267 562.222C437.219 564.212 435.372 565.822 433.145 565.775L414.385 565.585C412.063 565.585 410.168 563.975 409.932 561.938L408.274 546.213C408.131 544.603 409.505 543.134 411.305 543.04Z" fill="url(#paint6_linear_185_1236)"/>
<path d="M456.785 556.396C457.448 558.954 459.817 560.754 462.47 560.754L679.824 558.907C682.288 558.907 684.23 556.87 684.183 554.407C684.135 552.039 682.193 550.097 679.777 550.097L462.423 549.102C458.585 549.055 455.79 552.702 456.785 556.396Z" fill="#FCFAF9"/>
<path d="M412.348 546.118C414.101 545.076 416.327 545.692 417.322 547.492L421.965 555.781C422.439 556.633 423.623 556.539 424.049 555.686L435.561 530.109C436.13 528.83 438.025 529.256 438.025 530.677C437.93 538.493 435.845 553.365 423.339 565.822C423.339 565.822 416.469 563.122 410.879 550.95C410.026 549.197 410.642 547.113 412.348 546.118Z" fill="#FDC500"/>
<path d="M436.13 619.818H436.082L412.585 619.581C409.221 619.534 406.473 617.261 406.142 614.229L404.057 594.525C403.915 593.389 404.294 592.204 405.052 591.305C405.905 590.263 407.231 589.647 408.653 589.552C410.642 589.41 413.437 589.173 416.375 588.936C422.581 588.415 430.303 587.752 434.661 587.705C434.709 587.705 434.709 587.705 434.756 587.705C437.835 587.705 440.488 589.599 441.246 592.299C442.478 596.846 442.383 605.372 442.146 614.513C442.052 617.45 439.399 619.818 436.13 619.818ZM408.795 591.352C407.847 591.399 406.994 591.826 406.473 592.489C406 593.01 405.81 593.673 405.857 594.383L407.942 614.087C408.179 616.219 410.169 617.829 412.632 617.829L436.13 618.066H436.177C438.451 618.066 440.346 616.455 440.393 614.466C440.63 605.467 440.725 597.083 439.588 592.773C439.067 590.831 437.03 589.457 434.756 589.505C430.492 589.552 422.77 590.215 416.611 590.736C413.579 590.973 410.784 591.21 408.795 591.352Z" fill="white"/>
<path d="M411.305 593.389C416.232 593.057 426.986 591.968 432.056 591.92C434.235 591.873 436.082 593.199 436.603 595.046C437.598 598.693 437.456 605.893 437.267 612.571C437.219 614.561 435.372 616.171 433.145 616.124L414.385 615.934C412.063 615.934 410.168 614.324 409.932 612.287L408.274 596.562C408.131 594.952 409.505 593.483 411.305 593.389Z" fill="url(#paint7_linear_185_1236)"/>
<path d="M456.785 606.745C457.448 609.303 459.817 611.103 462.47 611.103L679.824 609.256C682.288 609.256 684.23 607.219 684.183 604.756C684.135 602.388 682.193 600.446 679.777 600.446L462.423 599.451C458.585 599.404 455.79 603.051 456.785 606.745Z" fill="#FCFAF9"/>
<path d="M412.348 596.467C414.101 595.425 416.327 596.041 417.322 597.841L421.965 606.13C422.439 606.982 423.623 606.888 424.049 606.035L435.561 580.458C436.13 579.179 438.025 579.605 438.025 581.026C437.93 588.841 435.845 603.714 423.339 616.171C423.339 616.171 416.469 613.471 410.879 601.298C410.026 599.546 410.642 597.415 412.348 596.467Z" fill="#FDC500"/>
<path d="M549.165 77.347C537.274 69.0581 526.899 69.2476 519.651 71.379C513.019 73.321 508.707 79.7626 509.323 86.6305L512.45 120.923L549.829 124.238C549.829 124.238 572.474 93.5458 549.165 77.347ZM532.726 104.961C527.563 104.961 523.394 100.793 523.394 95.6299C523.394 90.4671 527.563 86.299 532.726 86.299C537.89 86.299 542.059 90.4671 542.059 95.6299C542.059 100.793 537.89 104.961 532.726 104.961Z" fill="url(#paint8_linear_185_1236)"/>
<path d="M516.193 106.476C515.719 106.476 515.34 106.145 515.292 105.671L514.771 100.224C514.724 99.7506 515.103 99.277 515.577 99.2296C516.098 99.1823 516.524 99.5612 516.572 100.035L517.093 105.482C517.14 105.955 516.761 106.429 516.287 106.476C516.24 106.476 516.193 106.476 516.193 106.476ZM515.198 95.772C514.724 95.772 514.345 95.4404 514.298 94.9668L513.919 90.846C513.303 84.2623 517.472 78.1522 523.773 76.305C528.226 74.9788 532.821 74.7893 537.416 75.7366C537.89 75.8313 538.222 76.305 538.127 76.7786C538.032 77.2523 537.559 77.5838 537.085 77.4891C532.774 76.5892 528.463 76.7786 524.294 78.0101C518.798 79.6205 515.245 84.9254 515.766 90.6566L516.145 94.7773C516.193 95.251 515.814 95.7246 515.34 95.772C515.245 95.772 515.245 95.772 515.198 95.772Z" fill="url(#paint9_linear_185_1236)"/>
<path d="M461.428 143.042V125.801C461.428 119.833 466.355 115.097 472.324 115.286L591.187 119.36C596.445 119.549 600.709 123.717 601.04 128.975L602.035 145.552L461.428 143.042Z" fill="url(#paint10_linear_185_1236)"/>
<path d="M505.77 121.823H500.654C500.133 121.823 499.754 121.396 499.754 120.923C499.754 120.402 500.18 120.023 500.654 120.023H505.77C506.291 120.023 506.67 120.449 506.67 120.923C506.67 121.396 506.244 121.823 505.77 121.823Z" fill="url(#paint11_linear_185_1236)"/>
<path d="M467.871 137.642C467.35 137.642 466.971 137.216 466.971 136.743V129.78C466.971 124.38 471.376 120.023 476.73 120.023H495.537C496.058 120.023 496.438 120.449 496.438 120.923C496.438 121.444 496.011 121.823 495.537 121.823H476.73C472.324 121.823 468.771 125.375 468.771 129.78V136.743C468.771 137.264 468.392 137.642 467.871 137.642Z" fill="url(#paint12_linear_185_1236)"/>
<path d="M424.191 136.743H632.023C639.508 136.743 645.904 142.142 647.136 149.484L647.325 150.479C648.699 158.531 642.493 165.919 634.345 165.919H421.112C416.232 165.919 412.3 161.846 412.537 156.92L413.011 147.4C413.295 141.432 418.222 136.743 424.191 136.743Z" fill="url(#paint13_linear_185_1236)"/>
<path d="M828.391 604.614H820.527V689.539H828.391V604.614Z" fill="#6B87A4"/>
<path d="M858.853 691.15H790.065V688.071C790.065 686.934 790.965 686.034 792.102 686.034H856.626C857.858 686.034 858.853 687.029 858.853 688.261V691.15Z" fill="#6B87A4"/>
<path d="M869.038 601.677C869.038 606.319 865.248 610.108 860.605 610.108H791.012C786.369 610.108 782.58 606.319 782.58 601.677V594.052C782.58 589.41 786.369 585.621 791.012 585.621H860.605C865.248 585.621 869.038 589.41 869.038 594.052V601.677Z" fill="#853E2F"/>
<path d="M766.472 547.965C766.472 547.965 754.818 549.765 741.695 558.528C739.611 559.901 738.474 562.317 738.805 564.78C740.369 577.237 746.859 617.497 768.13 656.857C769.267 658.941 769.599 661.357 769.078 663.631L765.382 680.871L758.513 687.313H776.184L787.933 655.484L782.911 653.873C779.026 652.642 776.326 649.042 776.279 644.969L775.71 610.819C776.231 595.614 766.377 585.099 766.377 585.099L794.613 583.726L766.472 547.965Z" fill="url(#paint14_linear_185_1236)"/>
<path d="M751.597 690.439C749.986 692.523 768.936 695.318 778.505 690.723C778.505 690.723 791.77 667.657 791.77 655.768C791.77 655.768 790.728 653.352 782.911 653.873C782.911 653.873 778.458 681.203 773.768 684.234C769.078 687.313 760.598 684.566 760.598 684.566C760.598 684.566 753.965 687.313 751.597 690.439Z" fill="url(#paint15_linear_185_1236)"/>
<path d="M791.012 585.573C790.87 585.336 760.598 581.926 760.598 581.926C760.598 581.926 761.593 591.115 758.513 603.761C755.434 616.408 710.997 671.256 710.997 671.256L715.639 686.034C701.237 691.055 687.072 691.86 673.144 688.592L701.995 671.256C701.995 671.256 728.999 579.226 745.533 562.838L775.852 552.37L791.012 585.573Z" fill="url(#paint16_linear_185_1236)"/>
<path d="M858.852 532.051C858.852 532.051 876.286 557.959 877.707 569.801C879.129 581.642 872.923 586.426 854.636 587.231C836.35 588.036 787.554 587.989 787.554 587.989L745.912 552.37C745.912 552.37 776.279 541.524 784.19 538.492C792.007 535.414 858.852 532.051 858.852 532.051Z" fill="url(#paint17_linear_185_1236)"/>
<path d="M713.886 681.108C713.886 681.108 718.908 685.94 715.497 691.387C715.497 691.387 675.797 698.444 664.996 695.223C664.996 695.223 667.223 690.108 679.398 684.282L678.498 684.992C677.361 685.845 678.024 687.692 679.445 687.597C687.451 687.076 704.033 685.608 713.886 681.108Z" fill="url(#paint18_linear_185_1236)"/>
<path d="M822.374 379.772C825.027 380.578 834.502 383.988 833.27 390.098C833.128 390.903 833.886 391.614 834.691 391.377C838.766 390.287 847.814 388.866 853.404 395.924C858.331 402.129 854.636 407.955 851.651 411.175C850.941 411.933 851.557 413.212 852.599 413.07C860.132 412.123 876.476 411.886 879.129 427.185C881.64 441.442 871.691 445.468 865.816 446.604C864.822 446.794 864.585 448.12 865.438 448.641C868.375 450.488 871.786 454.372 870.412 461.951C868.233 473.887 844.877 472.892 842.177 472.75C841.987 472.75 841.845 472.702 841.703 472.608L804.277 451.246C803.993 451.057 803.803 450.772 803.708 450.441L796.129 406.818C796.081 406.486 796.176 406.107 796.413 405.823L815.173 378.872C810.862 376.599 821.995 379.63 822.374 379.772Z" fill="#0E2D3D"/>
<path d="M810.483 521.915C810.483 521.915 790.207 502.59 780.211 489.801C774.81 482.886 773.105 473.792 775.615 465.361C780.163 450.015 788.264 434.1 789.022 431.59C790.159 427.8 812.899 427.943 812.899 427.943C812.899 427.943 857.668 456.977 875.291 506.237L855.536 512.394C855.536 512.394 843.835 492.785 832.275 480.328C832.275 480.328 852.267 506.711 852.978 517.557L810.483 521.915Z" fill="url(#paint19_linear_185_1236)"/>
<path d="M786.275 410.418C786.512 411.223 792.433 430.879 792.907 431.305C793.381 431.732 805.935 432.395 811.857 428.369L800.582 402.697L786.275 410.418Z" fill="#E4A484"/>
<path d="M786.275 410.418C786.512 411.223 792.433 430.879 792.907 431.305C793.381 431.732 805.935 432.395 811.857 428.369L800.582 402.697L786.275 410.418Z" fill="url(#paint20_linear_185_1236)"/>
<path d="M786.275 410.418C786.512 411.223 792.433 430.879 792.907 431.305C793.381 431.732 805.935 432.395 811.857 428.369L800.582 402.697L786.275 410.418Z" fill="url(#paint21_linear_185_1236)"/>
<path d="M784.38 367.173C784.38 367.173 775.236 374.326 772.252 391.187C769.267 408.049 776.421 413.544 783.243 412.691C790.112 411.839 799.919 409.044 807.735 396.54C815.552 384.035 796.46 358.316 784.38 367.173Z" fill="#EEA987"/>
<path d="M784.38 367.173C784.38 367.173 775.236 374.326 772.252 391.187C769.267 408.049 776.421 413.544 783.243 412.691C790.112 411.839 799.919 409.044 807.735 396.54C815.552 384.035 796.46 358.316 784.38 367.173Z" fill="url(#paint22_linear_185_1236)"/>
<path d="M784.38 367.173C784.38 367.173 775.236 374.326 772.252 391.187C769.267 408.049 776.421 413.544 783.243 412.691C790.112 411.839 799.919 409.044 807.735 396.54C815.552 384.035 796.46 358.316 784.38 367.173Z" fill="url(#paint23_linear_185_1236)"/>
<path d="M798.592 390.43C798.592 390.43 800.44 366.463 781.016 371.436L777.321 375.841C777.321 375.841 766.898 365.658 777.037 356.706C787.127 347.754 802.098 348.843 811.336 363.195C820.574 377.594 824.269 387.872 818.063 397.629C811.857 407.386 806.125 399.808 806.125 399.808C806.125 399.808 808.73 391.566 805.84 388.298C802.998 385.03 800.013 390.714 800.013 390.714L798.592 390.43Z" fill="#0E2D3D"/>
<path d="M799.066 396.871C799.066 396.871 799.966 384.556 806.456 387.588C812.947 390.619 804.988 399.145 801.766 402.081L799.066 396.871Z" fill="#FBC1A6"/>
<path d="M769.125 523.336L784.048 508.984L804.656 517.699C804.656 517.699 825.169 520.873 836.918 517.699C848.667 514.526 848.667 514.526 848.667 514.526L875.244 506.237L879.413 518.031C880.455 521.015 879.413 524.33 876.807 526.177C874.533 527.788 871.833 529.588 870.08 530.346C866.574 531.861 783.859 529.304 783.859 529.304L769.125 523.336Z" fill="url(#paint24_linear_185_1236)"/>
<path d="M769.125 523.336L784.048 508.984L804.656 517.699C804.656 517.699 825.169 520.873 836.918 517.699C848.667 514.526 848.667 514.526 848.667 514.526L875.244 506.237L879.413 518.031C880.455 521.015 879.413 524.33 876.807 526.177C874.533 527.788 871.833 529.588 870.08 530.346C866.574 531.861 783.859 529.304 783.859 529.304L769.125 523.336Z" fill="url(#paint25_linear_185_1236)"/>
<path d="M151.456 591.825C149.182 595.141 140.229 670.688 138.855 698.586C138.76 700.481 140.276 702.044 142.171 702.044C143.782 702.044 145.203 700.86 145.44 699.249L161.831 594.241L151.456 591.825Z" fill="#6B87A4"/>
<path d="M223.513 591.825C225.787 595.141 234.741 670.688 236.115 698.586C236.209 700.481 234.693 702.044 232.798 702.044C231.188 702.044 229.766 700.86 229.53 699.249L213.185 594.194L223.513 591.825Z" fill="#6B87A4"/>
<path d="M137.907 585.905V586.71C137.86 592.631 142.976 597.509 149.372 597.604L225.124 598.883C231.424 598.978 236.683 594.43 236.967 588.605L237.015 587.847C237.346 581.784 232.182 576.621 225.597 576.526L149.798 575.153C143.308 575.106 137.955 579.889 137.907 585.905Z" fill="#853E2F"/>
<path d="M314.993 408.996L313.003 405.776C311.866 403.928 309.971 402.697 307.792 402.413L286.805 399.808C286.805 399.808 285.858 397.439 289.742 394.645C293.58 391.85 291.306 387.303 291.306 387.303C291.306 387.303 286.142 391.519 278.657 398.055C274.393 401.797 272.782 406.818 272.167 410.417L268.803 417.806C270.698 420.032 273.588 421.785 277.994 421.217L278.752 415.58C291.401 416.006 303.386 413.543 314.993 408.996Z" fill="#EEA886"/>
<path d="M314.993 408.996L313.003 405.776C311.866 403.928 309.971 402.697 307.792 402.413L286.805 399.808C286.805 399.808 285.858 397.439 289.742 394.645C293.58 391.85 291.306 387.303 291.306 387.303C291.306 387.303 286.142 391.519 278.657 398.055C274.393 401.797 272.782 406.818 272.167 410.417L268.803 417.806C270.698 420.032 273.588 421.785 277.994 421.217L278.752 415.58C291.401 416.006 303.386 413.543 314.993 408.996Z" fill="url(#paint26_linear_185_1236)"/>
<path d="M268.803 417.806L256.343 445.183C253.738 450.867 247.2 453.614 241.278 451.435L215.696 428.7L215.128 474.313L241.799 479.665C256.722 482.649 271.077 472.418 273.114 457.356L277.994 421.216C273.588 421.785 270.698 420.032 268.803 417.806Z" fill="url(#paint27_linear_185_1236)"/>
<path d="M285.289 695.839C271.835 695.839 265.866 694.702 263.213 693.613C263.734 695.839 265.724 697.591 268.187 697.591H315.846C317.457 697.591 318.451 696.076 318.072 694.655C312.624 695.081 301.112 695.839 285.289 695.839Z" fill="url(#paint28_linear_185_1236)"/>
<path d="M318.072 694.655C317.978 694.37 317.883 694.086 317.693 693.849C314.046 689.208 306.75 681.961 296.849 682.103C282.305 682.292 277.236 683.903 265.96 682.198L263.308 691.008C263.023 691.907 263.023 692.807 263.213 693.66C265.866 694.702 271.835 695.886 285.289 695.886C301.112 695.839 312.624 695.081 318.072 694.655Z" fill="url(#paint29_linear_185_1236)"/>
<path d="M269.229 672.677L265.961 683.808C265.961 683.808 273.209 687.124 279.557 684.471L280.789 674.856L269.229 672.677Z" fill="url(#paint30_linear_185_1236)"/>
<path d="M269.229 672.677L265.961 683.808C265.961 683.808 273.209 687.124 279.557 684.471L280.789 674.856L269.229 672.677Z" fill="url(#paint31_linear_185_1236)"/>
<path d="M368.005 688.829C357.488 697.26 352.135 700.102 349.387 700.954C351.187 702.328 353.793 702.47 355.735 700.907L392.877 671.067C394.109 670.072 393.966 668.225 392.782 667.42C388.85 671.162 380.323 678.93 368.005 688.829Z" fill="url(#paint32_linear_185_1236)"/>
<path d="M392.782 667.42C392.545 667.23 392.308 667.088 391.977 667.041C386.244 665.715 376.059 664.625 368.384 670.972C357.204 680.208 354.219 684.613 344.365 690.392L347.776 698.918C348.108 699.77 348.676 700.481 349.34 701.002C352.087 700.149 357.441 697.307 367.958 688.876C380.323 678.93 388.85 671.162 392.782 667.42Z" fill="url(#paint33_linear_185_1236)"/>
<path d="M199.257 545.976C199.257 545.976 279.889 552.56 296.422 560.328C312.956 568.096 282.921 677.224 282.921 677.224C282.921 677.224 278.42 679.403 268.377 676.277C268.377 676.277 278.657 595.757 271.03 578.279L183.718 564.022L199.257 545.976Z" fill="url(#paint34_linear_185_1236)"/>
<path d="M336.359 674.998C337.117 675.661 344.365 690.344 344.365 690.344C344.365 690.344 352.466 688.592 354.124 683.477L346.829 670.262L336.359 674.998Z" fill="url(#paint35_linear_185_1236)"/>
<path d="M336.359 674.998C337.117 675.661 344.365 690.344 344.365 690.344C344.365 690.344 352.466 688.592 354.124 683.477L346.829 670.262L336.359 674.998Z" fill="url(#paint36_linear_185_1236)"/>
<path d="M150.698 545.313C150.698 545.313 148.093 551.613 148.187 560.043C148.33 571.648 157.662 581.074 169.269 581.689L264.587 586.047C266.576 586.142 268.282 587.515 268.803 589.504C271.03 598.172 281.973 624.791 335.506 677.84C336.928 679.261 339.154 679.498 340.86 678.409L348.487 673.577C349.292 673.056 349.529 672.014 349.055 671.209L293.58 576.432C290.643 571.601 286 568.143 280.504 566.769L199.257 546.023L150.698 545.313Z" fill="url(#paint37_linear_185_1236)"/>
<path d="M150.461 545.029C150.461 545.029 149.514 497.806 158.941 453.33C162.447 436.894 171.496 422.211 184.713 411.838L189.119 408.381L211.196 417.333L225.55 439.12C231.803 451.625 232.656 466.119 227.966 479.286C220.102 501.263 208.4 534.561 205.7 545.739C205.7 545.739 169.08 550.57 150.461 545.029Z" fill="url(#paint38_linear_185_1236)"/>
<path d="M204.279 373.141L187.035 413.165C187.035 413.165 192.577 425.574 211.906 420.743L218.823 393.129L204.279 373.141Z" fill="#EEA886"/>
<path d="M204.279 373.141L187.035 413.165C187.035 413.165 192.577 425.574 211.906 420.743L218.823 393.129L204.279 373.141Z" fill="url(#paint39_linear_185_1236)"/>
<path d="M261.602 507.752C261.602 507.042 283.679 433.2 283.679 433.2L307.84 429.079L278.846 509.836L261.602 507.752Z" fill="#032674"/>
<path d="M260.228 509.836C261.602 511.21 275.435 511.21 275.435 511.21L304.429 426.995L281.641 431.826L260.228 509.836Z" fill="#EEF1F7"/>
<path d="M238.531 354.906C238.72 355.474 239.194 394.929 239.194 394.929L216.644 394.692L210.674 357.369C210.674 357.369 235.025 345.527 238.531 354.906Z" fill="url(#paint40_linear_185_1236)"/>
<path d="M217.259 364.521L218.87 384.414C218.87 384.651 218.965 384.935 219.012 385.172C219.533 386.64 221.807 391.566 226.687 388.961C231.14 386.593 235.214 384.509 238.389 384.793C239.81 384.935 240.947 386.119 240.947 387.54C240.994 391.14 240.947 399.192 239.81 406.202C239.573 407.623 238.294 408.618 236.873 408.523C232.561 408.239 223.418 407.291 216.265 404.876C215.317 404.544 214.559 403.739 214.417 402.697C213.564 397.771 210.911 382.804 209.537 378.73C208.258 374.941 202.952 373.615 200.678 373.236C199.92 373.094 199.305 372.668 198.878 372.052C197.41 369.826 194.851 364.521 201.389 360.732C202.763 359.926 203.189 358.174 202.337 356.848C200.678 354.148 199.257 349.838 204.184 346.19C209.206 342.496 213.943 344.58 216.738 346.475C217.875 347.233 219.344 347.09 220.291 346.143C220.86 345.622 221.618 345.291 222.755 345.717C224.271 346.238 225.929 345.291 226.308 343.728C227.066 340.696 229.103 337.239 234.741 336.954C244.737 336.528 248.1 346.948 246.916 353.769C245.732 360.589 234.883 360.4 229.008 358.411C224.555 356.848 219.96 360.495 218.065 362.295C217.496 362.863 217.212 363.668 217.259 364.521Z" fill="#0F3970"/>
<path d="M210.201 385.977C210.201 385.977 211.764 374.041 207.121 372.194C202.479 370.347 196.746 373.046 199.826 380.814C203.616 390.429 210.201 385.977 210.201 385.977Z" fill="#FAB493"/>
<path d="M269.561 486.391C220.528 520.304 199.684 442.957 199.162 442.531C167.421 416.291 168.937 463.94 172.917 469.434C213.47 532.666 260.607 514.289 275.151 494.869C271.645 491.98 270.129 488.948 269.561 486.391Z" fill="url(#paint41_linear_185_1236)"/>
<path d="M296.564 460.53C296.564 460.53 296.138 462.235 291.306 469.103C286.474 476.018 280.931 480.849 283.726 472.56C286.474 464.271 283.015 461.524 279.746 470.524C276.478 479.523 273.351 483.596 273.351 483.596C272.072 484.591 270.793 485.538 269.561 486.391C270.177 488.949 271.693 491.98 275.151 494.869C277.141 493.448 278.183 492.548 278.183 492.548C278.183 492.548 294.054 484.259 295.427 475.971C296.801 467.729 296.564 460.53 296.564 460.53Z" fill="#EEA886"/>
<path d="M296.564 460.53C296.564 460.53 296.138 462.235 291.306 469.103C286.474 476.018 280.931 480.849 283.726 472.56C286.474 464.271 283.015 461.524 279.746 470.524C276.478 479.523 273.351 483.596 273.351 483.596C272.072 484.591 270.793 485.538 269.561 486.391C270.177 488.949 271.693 491.98 275.151 494.869C277.141 493.448 278.183 492.548 278.183 492.548C278.183 492.548 294.054 484.259 295.427 475.971C296.801 467.729 296.564 460.53 296.564 460.53Z" fill="url(#paint42_linear_185_1236)"/>
<path d="M295.617 532.619C295.238 534.088 261.128 662.163 252.459 694.608C251.464 698.349 254.259 702.044 258.096 702.044C260.749 702.044 263.118 700.197 263.734 697.592L301.633 543.892L295.617 532.619Z" fill="#90ABC7"/>
<path d="M314.33 532.24C314.709 533.709 348.818 662.068 357.488 694.608C358.483 698.349 355.688 702.044 351.85 702.044C349.198 702.044 346.829 700.197 346.213 697.592L308.313 543.561L314.33 532.24Z" fill="#90ABC7"/>
<path d="M315.751 528.404H294.48V545.503C294.48 547.966 296.47 549.955 298.886 549.955H301.823V588.321C301.823 590.168 303.292 591.683 305.139 591.683C306.987 591.683 308.455 590.168 308.455 588.321V549.955H309.924C313.146 549.955 315.751 547.302 315.751 544.034V528.404Z" fill="#90ABC7"/>
<path d="M764.388 532.619C764.009 534.088 729.899 662.163 721.23 694.608C720.235 698.349 723.03 702.044 726.867 702.044C729.52 702.044 731.889 700.197 732.505 697.592L770.404 543.892L764.388 532.619Z" fill="#90ABC7"/>
<path d="M783.053 532.619C783.432 534.088 817.542 662.163 826.211 694.608C827.206 698.349 824.411 702.044 820.574 702.044C817.921 702.044 815.552 700.197 814.936 697.592L777.037 543.892L783.053 532.619Z" fill="#90ABC7"/>
<path d="M784.522 528.404H763.251V545.503C763.251 547.966 765.24 549.955 767.657 549.955H770.594V588.321C770.594 590.168 772.062 591.683 773.91 591.683C775.758 591.683 777.226 590.168 777.226 588.321V549.955H778.695C781.916 549.955 784.522 547.302 784.522 544.034V528.404Z" fill="#90ABC7"/>
<path d="M240.615 524.33H837.866C839.524 524.33 840.992 525.467 841.371 527.078L843.029 533.566C843.645 535.887 841.892 538.161 839.476 538.161L239.099 537.45C236.73 537.45 235.025 535.177 235.593 532.856L237.015 527.078C237.488 525.467 238.957 524.33 240.615 524.33Z" fill="#B59074"/>
<path d="M168.606 417.191L166.806 414.917C166.285 414.301 166.427 413.354 167.043 412.88C167.658 412.359 168.606 412.501 169.08 413.117L170.832 415.391C171.306 416.006 171.211 416.954 170.548 417.427C169.98 417.948 169.08 417.854 168.606 417.191Z" fill="#0D66C4"/>
<path d="M162.779 409.328L161.215 406.913C160.742 406.202 160.931 405.255 161.642 404.828C162.352 404.355 163.3 404.544 163.726 405.255L165.29 407.718C165.716 408.428 165.526 409.328 164.816 409.802C164.153 410.228 163.253 410.039 162.779 409.328Z" fill="#0D66C4"/>
<path d="M157.71 400.992L156.336 398.434C155.909 397.676 156.194 396.729 156.999 396.303C157.757 395.876 158.705 396.161 159.131 396.966L160.457 399.524C160.836 400.281 160.552 401.229 159.794 401.608C159.036 402.034 158.089 401.75 157.71 400.992Z" fill="#0D66C4"/>
<path d="M153.351 392.229L152.214 389.577C151.835 388.772 152.262 387.777 153.067 387.445C153.872 387.114 154.867 387.445 155.199 388.298L156.336 390.951C156.667 391.756 156.288 392.703 155.483 393.035C154.63 393.413 153.683 393.035 153.351 392.229Z" fill="#0D66C4"/>
<path d="M149.703 383.135L148.756 380.388C148.472 379.488 148.945 378.541 149.798 378.257C150.698 377.973 151.646 378.446 151.93 379.299L152.83 382.046C153.114 382.898 152.641 383.846 151.741 384.13C150.935 384.509 150.035 384.035 149.703 383.135Z" fill="#0D66C4"/>
<path d="M146.861 373.804L146.15 371.01C145.913 370.063 146.482 369.115 147.429 368.878C148.377 368.642 149.324 369.21 149.561 370.157L150.225 372.952C150.461 373.852 149.893 374.799 148.945 375.036C147.998 375.273 147.098 374.704 146.861 373.804Z" fill="#0D66C4"/>
<path d="M144.682 364.284L144.161 361.442C143.971 360.447 144.634 359.547 145.629 359.358C146.624 359.169 147.524 359.832 147.714 360.826L148.187 363.668C148.33 364.616 147.666 365.563 146.719 365.705C145.771 365.894 144.871 365.231 144.682 364.284Z" fill="#0D66C4"/>
<path d="M143.26 354.621L142.976 351.732C142.881 350.737 143.592 349.838 144.634 349.695C145.629 349.601 146.529 350.311 146.671 351.353L146.908 354.243C147.003 355.237 146.245 356.137 145.25 356.232C144.255 356.327 143.355 355.616 143.26 354.621Z" fill="#0D66C4"/>
<path d="M142.55 344.864L142.455 341.975C142.408 340.933 143.26 340.033 144.303 340.033C145.345 339.986 146.245 340.838 146.245 341.88L146.292 344.77C146.292 345.812 145.487 346.664 144.445 346.664C143.403 346.712 142.55 345.859 142.55 344.864Z" fill="#0D66C4"/>
<path d="M142.502 335.06L142.597 332.17C142.645 331.081 143.545 330.276 144.634 330.276C145.724 330.323 146.529 331.223 146.529 332.313L146.387 335.202C146.34 336.291 145.44 337.096 144.35 337.049C143.26 337.049 142.455 336.149 142.502 335.06Z" fill="#0D66C4"/>
<path d="M143.118 325.303L143.45 322.413C143.545 321.324 144.54 320.519 145.677 320.614C146.766 320.708 147.572 321.703 147.477 322.84L147.145 325.729C147.003 326.818 146.008 327.624 144.919 327.481C143.782 327.387 142.976 326.392 143.118 325.303Z" fill="#0D66C4"/>
<path d="M144.35 315.593L144.871 312.751C145.061 311.614 146.15 310.904 147.24 311.093C148.377 311.282 149.088 312.372 148.898 313.461L148.377 316.303C148.187 317.393 147.098 318.15 146.008 317.961C144.919 317.771 144.161 316.729 144.35 315.593Z" fill="#0D66C4"/>
<path d="M146.292 306.025L147.003 303.23C147.287 302.094 148.424 301.431 149.514 301.715C150.651 301.999 151.314 303.136 151.03 304.225L150.319 307.02C150.035 308.156 148.898 308.82 147.808 308.535C146.719 308.251 146.056 307.114 146.292 306.025Z" fill="#0D66C4"/>
<path d="M148.898 296.599L149.798 293.852C150.177 292.715 151.362 292.147 152.451 292.479C153.588 292.857 154.157 294.042 153.825 295.131L152.925 297.878C152.546 298.968 151.362 299.583 150.272 299.204C149.135 298.873 148.519 297.689 148.898 296.599Z" fill="#0D66C4"/>
<path d="M152.072 287.316L153.162 284.616C153.588 283.527 154.867 282.958 155.957 283.432C157.046 283.858 157.615 285.137 157.141 286.227L156.052 288.926C155.625 290.016 154.346 290.537 153.256 290.111C152.214 289.637 151.646 288.405 152.072 287.316Z" fill="#0D66C4"/>
<path d="M155.909 278.317L157.141 275.712C157.662 274.622 158.941 274.149 160.031 274.67C161.121 275.191 161.594 276.469 161.073 277.559L159.794 280.164C159.273 281.253 157.994 281.68 156.904 281.159C155.862 280.685 155.436 279.406 155.909 278.317Z" fill="#0D66C4"/>
<path d="M160.363 269.601L161.784 267.091C162.4 266.049 163.726 265.67 164.768 266.286C165.811 266.902 166.19 268.228 165.574 269.27L164.105 271.78C163.489 272.822 162.163 273.201 161.121 272.585C160.126 271.97 159.794 270.643 160.363 269.601Z" fill="#0D66C4"/>
<path d="M165.432 261.171L167.042 258.755C167.706 257.713 169.127 257.476 170.122 258.139C171.117 258.802 171.401 260.223 170.738 261.218L169.127 263.633C168.416 264.628 167.042 264.912 166.048 264.249C165.053 263.586 164.769 262.213 165.432 261.171Z" fill="#0D66C4"/>
<path d="M171.117 253.166L172.87 250.892C173.628 249.897 175.049 249.708 176.044 250.513C177.039 251.271 177.228 252.692 176.423 253.687L174.622 255.96C173.864 256.955 172.443 257.097 171.448 256.339C170.501 255.534 170.359 254.16 171.117 253.166Z" fill="#0D66C4"/>
<path d="M177.275 245.587L179.17 243.409C180.023 242.461 181.444 242.367 182.392 243.219C183.339 244.072 183.434 245.493 182.581 246.44L180.639 248.619C179.786 249.566 178.365 249.613 177.418 248.808C176.517 247.956 176.47 246.487 177.275 245.587Z" fill="#0D66C4"/>
<path d="M183.908 238.388L185.945 236.351C186.845 235.451 188.314 235.451 189.214 236.351C190.114 237.251 190.114 238.719 189.214 239.619L187.129 241.656C186.229 242.556 184.761 242.556 183.86 241.609C183.008 240.709 183.008 239.288 183.908 238.388Z" fill="#0D66C4"/>
<path d="M191.014 231.615L193.193 229.72C194.141 228.868 195.657 228.962 196.509 229.91C197.362 230.857 197.267 232.373 196.32 233.225L194.141 235.12C193.146 235.972 191.677 235.878 190.824 234.883C189.972 233.936 190.067 232.467 191.014 231.615Z" fill="#0D66C4"/>
<path d="M198.499 225.315L200.773 223.515C201.815 222.71 203.284 222.9 204.089 223.942C204.895 224.984 204.705 226.452 203.663 227.257L201.389 229.01C200.347 229.815 198.878 229.625 198.073 228.583C197.267 227.589 197.457 226.12 198.499 225.315Z" fill="#0D66C4"/>
<path d="M206.316 219.442L208.685 217.784C209.774 217.026 211.29 217.311 212.001 218.4C212.759 219.489 212.475 221.005 211.385 221.715L209.016 223.326C207.927 224.084 206.458 223.8 205.7 222.71C204.989 221.668 205.226 220.2 206.316 219.442Z" fill="#0D66C4"/>
<path d="M214.464 214.042L216.928 212.527C218.065 211.816 219.581 212.195 220.244 213.332C220.955 214.469 220.576 215.984 219.439 216.647L216.975 218.163C215.838 218.874 214.322 218.495 213.659 217.358C212.996 216.221 213.327 214.753 214.464 214.042Z" fill="#0D66C4"/>
<path d="M222.944 209.116L225.503 207.743C226.687 207.08 228.203 207.553 228.819 208.737C229.482 209.922 229.008 211.437 227.824 212.053L225.266 213.427C224.081 214.042 222.613 213.616 221.95 212.432C221.286 211.248 221.713 209.732 222.944 209.116Z" fill="#0D66C4"/>
<path d="M231.614 204.664L234.22 203.433C235.451 202.864 236.92 203.385 237.488 204.617C238.057 205.848 237.536 207.316 236.304 207.885L233.698 209.116C232.467 209.685 230.998 209.164 230.43 207.932C229.861 206.701 230.382 205.232 231.614 204.664Z" fill="#0D66C4"/>
<path d="M240.568 200.638L243.268 199.549C244.547 199.028 245.968 199.643 246.49 200.875C247.011 202.154 246.395 203.575 245.163 204.096L242.463 205.185C241.184 205.706 239.762 205.09 239.241 203.812C238.673 202.58 239.289 201.159 240.568 200.638Z" fill="#0D66C4"/>
<path d="M249.664 197.133L252.411 196.186C253.69 195.712 255.112 196.423 255.538 197.701C256.012 198.98 255.301 200.401 254.022 200.828L251.274 201.775C249.995 202.201 248.574 201.538 248.148 200.259C247.721 198.98 248.385 197.559 249.664 197.133Z" fill="#0D66C4"/>
<path d="M258.949 194.054L261.744 193.249C263.071 192.87 264.444 193.628 264.823 194.907C265.202 196.233 264.444 197.607 263.165 197.986L260.37 198.791C259.044 199.17 257.67 198.412 257.291 197.133C256.865 195.807 257.623 194.433 258.949 194.054Z" fill="#0D66C4"/>
<path d="M268.329 191.449L271.124 190.739C272.451 190.407 273.777 191.212 274.109 192.538C274.44 193.865 273.635 195.191 272.309 195.522L269.514 196.186C268.187 196.517 266.861 195.712 266.529 194.338C266.197 193.107 267.003 191.733 268.329 191.449Z" fill="#0D66C4"/>
<path d="M277.899 189.27L280.741 188.702C282.068 188.418 283.394 189.318 283.679 190.691C283.963 192.018 283.063 193.344 281.689 193.628L278.846 194.196C277.52 194.433 276.193 193.581 275.956 192.207C275.625 190.834 276.525 189.555 277.899 189.27Z" fill="#0D66C4"/>
<path d="M287.516 187.565L290.358 187.139C291.732 186.949 292.964 187.897 293.201 189.27C293.39 190.644 292.443 191.875 291.069 192.112L288.227 192.538C286.853 192.728 285.621 191.781 285.384 190.407C285.195 189.033 286.142 187.755 287.516 187.565Z" fill="#0D66C4"/>
<path d="M297.18 186.334L300.07 186.05C301.444 185.908 302.676 186.902 302.818 188.276C302.96 189.649 301.965 190.881 300.591 191.023L297.701 191.307C296.328 191.449 295.096 190.407 295.001 189.034C294.812 187.707 295.806 186.476 297.18 186.334Z" fill="#0D66C4"/>
<path d="M306.939 185.576L309.829 185.434C311.203 185.387 312.387 186.429 312.435 187.802C312.482 189.176 311.44 190.36 310.066 190.407L307.176 190.549C305.802 190.597 304.618 189.555 304.571 188.181C304.476 186.808 305.566 185.623 306.939 185.576Z" fill="#0D66C4"/>
<path d="M316.699 185.292H319.588C320.962 185.292 322.099 186.429 322.099 187.802C322.099 189.176 320.962 190.312 319.588 190.312H316.699C315.325 190.312 314.188 189.176 314.188 187.802C314.188 186.381 315.325 185.292 316.699 185.292Z" fill="#0D66C4"/>
<path d="M326.458 185.434L329.348 185.576C330.721 185.623 331.811 186.808 331.764 188.181C331.716 189.555 330.532 190.644 329.158 190.597L326.268 190.455C324.894 190.407 323.805 189.223 323.852 187.802C323.9 186.429 325.084 185.387 326.458 185.434Z" fill="#0D66C4"/>
<path d="M336.217 186.002L339.107 186.239C340.481 186.381 341.523 187.565 341.381 188.986C341.239 190.36 340.054 191.402 338.633 191.26L335.743 191.023C334.369 190.881 333.327 189.697 333.469 188.276C333.564 186.902 334.796 185.908 336.217 186.002Z" fill="#0D66C4"/>
<path d="M345.881 187.044L348.771 187.423C350.145 187.613 351.14 188.892 350.95 190.265C350.761 191.639 349.482 192.633 348.108 192.444L345.218 192.065C343.844 191.876 342.849 190.597 343.039 189.223C343.228 187.802 344.507 186.855 345.881 187.044Z" fill="#0D66C4"/>
<path d="M355.546 188.418L358.388 188.892C359.762 189.128 360.709 190.455 360.473 191.828C360.236 193.202 358.909 194.149 357.535 193.912L354.693 193.439C353.319 193.202 352.372 191.876 352.608 190.502C352.845 189.128 354.172 188.181 355.546 188.418Z" fill="#0D66C4"/>
<path d="M365.115 190.218L367.958 190.833C369.332 191.118 370.184 192.491 369.9 193.865C369.616 195.238 368.242 196.091 366.868 195.807L364.026 195.191C362.652 194.907 361.799 193.533 362.083 192.16C362.415 190.786 363.741 189.933 365.115 190.218Z" fill="#0D66C4"/>
<path d="M374.638 192.349L377.433 193.06C378.807 193.391 379.612 194.765 379.28 196.138C378.949 197.512 377.575 198.317 376.201 197.985L373.406 197.275C372.032 196.943 371.227 195.523 371.558 194.196C371.89 192.823 373.264 192.017 374.638 192.349Z" fill="#0D66C4"/>
<path d="M384.065 194.859L386.86 195.665C388.234 196.044 388.992 197.465 388.613 198.838C388.234 200.212 386.813 200.97 385.439 200.591L382.644 199.785C381.27 199.407 380.512 197.986 380.891 196.612C381.27 195.238 382.691 194.481 384.065 194.859Z" fill="#0D66C4"/>
<path d="M393.351 197.701L396.098 198.601C397.425 199.028 398.183 200.496 397.709 201.822C397.283 203.148 395.814 203.906 394.488 203.433L391.74 202.533C390.413 202.106 389.655 200.638 390.129 199.312C390.603 197.986 392.024 197.275 393.351 197.701Z" fill="#0D66C4"/>
<path d="M402.589 200.875L405.289 201.869C406.615 202.343 407.279 203.811 406.805 205.138C406.331 206.464 404.862 207.127 403.536 206.653L400.836 205.659C399.509 205.185 398.846 203.717 399.32 202.39C399.746 201.064 401.262 200.354 402.589 200.875Z" fill="#0D66C4"/>
<path d="M411.684 204.333L414.337 205.422C415.617 205.943 416.28 207.459 415.711 208.737C415.19 210.016 413.722 210.679 412.395 210.158L409.695 209.069C408.368 208.548 407.752 207.032 408.273 205.753C408.842 204.427 410.358 203.812 411.684 204.333Z" fill="#0D66C4"/>
<path d="M420.638 208.122L423.291 209.306C424.57 209.874 425.139 211.39 424.57 212.669C424.002 213.948 422.533 214.516 421.254 213.948L418.601 212.763C417.322 212.195 416.754 210.679 417.322 209.401C417.843 208.122 419.359 207.553 420.638 208.122Z" fill="#0D66C4"/>
<path d="M429.45 212.148L432.055 213.426C433.287 214.042 433.856 215.558 433.24 216.789C432.624 218.021 431.155 218.589 429.876 217.974L427.271 216.742C425.992 216.126 425.47 214.658 426.086 213.379C426.702 212.1 428.218 211.579 429.45 212.148Z" fill="#0D66C4"/>
<path d="M438.167 216.505L440.725 217.831C441.957 218.447 442.43 219.963 441.815 221.194C441.199 222.426 439.683 222.899 438.451 222.284L435.893 220.958C434.661 220.342 434.187 218.826 434.803 217.595C435.419 216.316 436.935 215.842 438.167 216.505Z" fill="#0D66C4"/>
<path d="M446.742 221.052L449.252 222.473C450.437 223.136 450.863 224.652 450.2 225.836C449.537 227.02 448.021 227.494 446.836 226.784L444.278 225.363C443.094 224.699 442.62 223.184 443.283 221.952C444.041 220.816 445.557 220.389 446.742 221.052Z" fill="#0D66C4"/>
<path d="M455.222 225.883L457.732 227.352C458.917 228.062 459.296 229.578 458.585 230.762C457.875 231.946 456.359 232.325 455.222 231.615L452.711 230.146C451.526 229.436 451.147 227.92 451.811 226.736C452.521 225.552 454.037 225.173 455.222 225.883Z" fill="#0D66C4"/>
<path d="M463.512 230.904L465.976 232.467C467.113 233.178 467.492 234.693 466.734 235.877C466.023 237.014 464.507 237.393 463.323 236.635L460.859 235.12C459.722 234.409 459.343 232.893 460.101 231.709C460.859 230.525 462.375 230.194 463.512 230.904Z" fill="#0D66C4"/>
<path d="M471.708 236.162L474.124 237.772C475.261 238.53 475.545 240.046 474.787 241.183C474.029 242.319 472.513 242.603 471.376 241.846L468.96 240.235C467.823 239.477 467.539 237.962 468.297 236.825C469.055 235.736 470.571 235.404 471.708 236.162Z" fill="#0D66C4"/>
<path d="M479.714 241.656L482.083 243.314C483.173 244.072 483.457 245.587 482.651 246.724C481.893 247.813 480.378 248.098 479.288 247.292L476.919 245.635C475.83 244.877 475.545 243.361 476.303 242.224C477.109 241.135 478.625 240.851 479.714 241.656Z" fill="#0D66C4"/>
<path d="M487.626 247.292L489.947 248.998C491.037 249.803 491.274 251.318 490.468 252.36C489.663 253.45 488.147 253.687 487.105 252.881L484.783 251.176C483.694 250.371 483.457 248.855 484.262 247.813C485.02 246.724 486.536 246.487 487.626 247.292Z" fill="#0D66C4"/>
<path d="M495.348 253.071L497.622 254.823C498.664 255.629 498.901 257.144 498.048 258.186C497.195 259.228 495.727 259.465 494.685 258.66L492.363 256.907C491.321 256.102 491.084 254.587 491.89 253.545C492.79 252.503 494.306 252.266 495.348 253.071Z" fill="#0D66C4"/>
<path d="M503.023 258.992L505.296 260.792C506.339 261.597 506.528 263.112 505.675 264.154C504.823 265.196 503.354 265.386 502.312 264.581L500.038 262.781C498.996 261.976 498.806 260.46 499.612 259.418C500.464 258.376 501.98 258.186 503.023 258.992Z" fill="#0D66C4"/>
<path d="M510.602 265.007L512.876 266.807C513.919 267.612 514.061 269.128 513.255 270.17C512.45 271.212 510.934 271.354 509.939 270.549L507.665 268.749C506.623 267.944 506.481 266.428 507.286 265.386C508.044 264.344 509.56 264.202 510.602 265.007Z" fill="#0D66C4"/>
<path d="M518.088 271.117L520.314 272.964C521.309 273.769 521.499 275.285 520.646 276.28C519.84 277.274 518.324 277.464 517.33 276.611L515.103 274.764C514.108 273.959 513.919 272.443 514.771 271.449C515.577 270.407 517.093 270.264 518.088 271.117Z" fill="#0D66C4"/>
<path d="M525.573 277.227L527.799 279.074C528.794 279.88 528.936 281.395 528.131 282.39C527.326 283.385 525.81 283.527 524.815 282.722L522.588 280.874C521.593 280.069 521.451 278.553 522.257 277.559C523.062 276.517 524.578 276.375 525.573 277.227Z" fill="#0D66C4"/>
<path d="M533.011 283.337L535.237 285.184C536.232 285.99 536.374 287.458 535.569 288.453C534.763 289.447 533.295 289.589 532.3 288.784L530.073 286.937C529.078 286.132 528.936 284.663 529.742 283.669C530.547 282.674 532.016 282.532 533.011 283.337Z" fill="#0D66C4"/>
<path d="M540.496 289.447L542.722 291.294C543.717 292.1 543.859 293.568 543.054 294.563C542.249 295.557 540.78 295.699 539.785 294.894L537.511 293.094C536.516 292.289 536.374 290.821 537.18 289.826C538.032 288.784 539.501 288.642 540.496 289.447Z" fill="#0D66C4"/>
<path d="M547.981 295.51L550.255 297.31C551.25 298.115 551.392 299.536 550.634 300.531C549.876 301.525 548.407 301.667 547.412 300.91L545.138 299.11C544.144 298.305 543.954 296.884 544.759 295.842C545.517 294.894 546.986 294.705 547.981 295.51Z" fill="#0D66C4"/>
<path d="M555.513 301.525L557.787 303.325C558.782 304.083 558.972 305.551 558.166 306.546C557.408 307.541 555.94 307.73 554.945 306.925L552.671 305.125C551.676 304.367 551.487 302.899 552.292 301.904C553.05 300.91 554.519 300.72 555.513 301.525Z" fill="#0D66C4"/>
<path d="M563.093 307.399L565.415 309.151C566.41 309.909 566.599 311.33 565.841 312.325C565.083 313.319 563.662 313.509 562.667 312.751L560.346 310.998C559.351 310.24 559.161 308.819 559.919 307.777C560.677 306.83 562.098 306.641 563.093 307.399Z" fill="#0D66C4"/>
<path d="M570.768 313.177L573.089 314.882C574.084 315.64 574.321 317.014 573.563 318.056C572.805 319.05 571.431 319.287 570.389 318.529L568.068 316.824C567.073 316.066 566.836 314.693 567.547 313.651C568.352 312.656 569.773 312.419 570.768 313.177Z" fill="#0D66C4"/>
<path d="M578.585 318.766L580.954 320.424C581.996 321.134 582.233 322.555 581.522 323.55C580.811 324.592 579.39 324.829 578.395 324.118L576.027 322.461C574.984 321.75 574.747 320.329 575.458 319.335C576.121 318.34 577.543 318.056 578.585 318.766Z" fill="#0D66C4"/>
<path d="M586.496 324.213L588.912 325.824C589.955 326.487 590.239 327.908 589.528 328.902C588.865 329.944 587.491 330.229 586.449 329.518L584.033 327.908C582.991 327.245 582.706 325.824 583.37 324.829C584.08 323.787 585.454 323.503 586.496 324.213Z" fill="#0D66C4"/>
<path d="M594.55 329.423L597.013 330.939C598.056 331.602 598.34 332.928 597.724 333.971C597.061 335.013 595.734 335.297 594.692 334.681L592.229 333.165C591.186 332.55 590.855 331.176 591.518 330.134C592.134 329.092 593.46 328.76 594.55 329.423Z" fill="#0D66C4"/>
<path d="M602.698 334.397L605.209 335.865C606.252 336.481 606.583 337.807 606.015 338.849C605.399 339.891 604.12 340.223 603.077 339.654L600.567 338.233C599.524 337.618 599.145 336.291 599.761 335.249C600.33 334.16 601.656 333.781 602.698 334.397Z" fill="#0D66C4"/>
<path d="M611.084 339.086L613.642 340.459C614.684 341.028 615.063 342.307 614.542 343.349C613.974 344.391 612.694 344.77 611.652 344.249L609.094 342.922C608.052 342.354 607.625 341.075 608.194 340.033C608.715 338.944 609.994 338.518 611.084 339.086Z" fill="#0D66C4"/>
<path d="M619.564 343.443L622.169 344.722C623.212 345.243 623.638 346.475 623.164 347.517C622.643 348.559 621.411 348.985 620.369 348.511L617.764 347.28C616.721 346.759 616.248 345.527 616.769 344.485C617.29 343.443 618.522 342.922 619.564 343.443Z" fill="#0D66C4"/>
<path d="M628.233 347.469L630.886 348.606C631.929 349.08 632.45 350.264 631.976 351.353C631.55 352.395 630.318 352.869 629.276 352.443L626.623 351.306C625.58 350.88 625.059 349.648 625.533 348.559C625.959 347.517 627.191 347.043 628.233 347.469Z" fill="#0D66C4"/>
<path d="M637.092 351.117L639.793 352.111C640.835 352.49 641.403 353.674 640.977 354.716C640.598 355.758 639.414 356.279 638.372 355.9L635.671 354.906C634.629 354.527 634.06 353.343 634.439 352.253C634.818 351.259 636.003 350.69 637.092 351.117Z" fill="#0D66C4"/>
<path d="M646.094 354.29L648.841 355.142C649.883 355.474 650.499 356.611 650.168 357.653C649.836 358.695 648.699 359.311 647.657 358.979L644.909 358.126C643.867 357.795 643.251 356.658 643.583 355.616C643.867 354.527 645.004 353.958 646.094 354.29Z" fill="#0D66C4"/>
<path d="M655.237 356.99L658.032 357.7C659.074 357.984 659.737 359.074 659.453 360.116C659.169 361.158 658.127 361.821 657.037 361.537L654.242 360.826C653.2 360.542 652.536 359.5 652.821 358.411C653.058 357.369 654.147 356.753 655.237 356.99Z" fill="#0D66C4"/>
<path d="M664.475 359.168L667.317 359.737C668.36 359.926 669.07 360.968 668.881 362.01C668.691 363.052 667.649 363.763 666.607 363.573L663.764 363.052C662.722 362.863 662.011 361.821 662.201 360.779C662.39 359.69 663.433 358.979 664.475 359.168Z" fill="#0D66C4"/>
<path d="M673.855 360.779L676.745 361.158C677.787 361.3 678.545 362.247 678.403 363.289C678.261 364.331 677.313 365.089 676.271 364.947L673.381 364.616C672.339 364.473 671.581 363.526 671.723 362.484C671.865 361.395 672.813 360.684 673.855 360.779Z" fill="#0D66C4"/>
<path d="M683.33 361.774L686.22 361.963C687.262 362.011 688.067 362.91 687.973 363.953C687.925 364.995 687.025 365.752 685.983 365.705L683.093 365.563C682.051 365.516 681.245 364.616 681.293 363.574C681.388 362.532 682.288 361.726 683.33 361.774Z" fill="#0D66C4"/>
<path d="M692.852 362.153H695.742C696.784 362.153 697.59 362.958 697.59 364C697.59 364.994 696.784 365.847 695.742 365.847L692.852 365.894C691.81 365.894 691.005 365.089 690.957 364.047C691.005 363.005 691.81 362.153 692.852 362.153Z" fill="#0D66C4"/>
<path d="M702.374 361.868L705.264 361.632C706.259 361.537 707.159 362.295 707.207 363.289C707.301 364.284 706.543 365.137 705.549 365.231L702.659 365.468C701.664 365.563 700.764 364.805 700.669 363.81C700.622 362.863 701.38 361.963 702.374 361.868Z" fill="#0D66C4"/>
<path d="M711.849 360.921L714.692 360.495C715.687 360.353 716.587 361.016 716.729 362.01C716.871 362.958 716.208 363.905 715.26 364.047L712.418 364.473C711.423 364.615 710.523 363.952 710.381 362.958C710.191 362.01 710.854 361.11 711.849 360.921Z" fill="#0D66C4"/>
<path d="M721.23 359.311L724.072 358.648C725.019 358.411 725.967 359.026 726.156 359.974C726.393 360.921 725.777 361.868 724.83 362.058L722.035 362.721C721.087 362.958 720.14 362.342 719.903 361.395C719.666 360.495 720.282 359.5 721.23 359.311Z" fill="#0D66C4"/>
<path d="M730.42 356.943L733.168 356.09C734.068 355.806 735.063 356.327 735.347 357.227C735.631 358.127 735.158 359.074 734.257 359.358L731.51 360.258C730.61 360.542 729.615 360.069 729.331 359.169C728.999 358.174 729.52 357.227 730.42 356.943Z" fill="#0D66C4"/>
<path d="M739.374 353.769L742.027 352.68C742.88 352.301 743.875 352.727 744.206 353.58C744.538 354.432 744.159 355.427 743.306 355.758L740.653 356.895C739.8 357.274 738.805 356.848 738.426 355.995C738.095 355.143 738.521 354.148 739.374 353.769Z" fill="#0D66C4"/>
<path d="M748.043 349.885L750.602 348.559C751.407 348.133 752.402 348.464 752.781 349.222C753.207 350.027 752.876 350.974 752.118 351.401L749.559 352.774C748.754 353.201 747.759 352.916 747.333 352.111C746.954 351.306 747.238 350.311 748.043 349.885Z" fill="#0D66C4"/>
<path d="M756.287 345.196L758.703 343.633C759.413 343.159 760.408 343.349 760.882 344.106C761.356 344.817 761.166 345.812 760.456 346.285L758.039 347.896C757.329 348.369 756.334 348.18 755.813 347.469C755.387 346.711 755.576 345.717 756.287 345.196Z" fill="#0D66C4"/>
<path d="M764.056 339.749L766.283 337.902C766.946 337.381 767.893 337.475 768.414 338.139C768.936 338.802 768.841 339.749 768.225 340.27L765.998 342.117C765.335 342.686 764.388 342.591 763.819 341.928C763.298 341.265 763.393 340.317 764.056 339.749Z" fill="#0D66C4"/>
<path d="M771.162 333.449L773.199 331.365C773.768 330.797 774.715 330.75 775.284 331.318C775.852 331.886 775.852 332.786 775.331 333.402L773.341 335.486C772.773 336.102 771.825 336.102 771.257 335.533C770.594 335.012 770.546 334.065 771.162 333.449Z" fill="#0D66C4"/>
<path d="M777.51 326.439L779.311 324.166C779.784 323.55 780.684 323.455 781.3 323.929C781.916 324.403 782.011 325.303 781.537 325.918L779.784 328.192C779.311 328.808 778.411 328.95 777.795 328.476C777.131 327.955 777.037 327.055 777.51 326.439Z" fill="#0D66C4"/>
<path d="M783.101 318.766L784.664 316.303C785.043 315.688 785.896 315.451 786.559 315.877C787.175 316.256 787.364 317.108 786.985 317.724L785.469 320.187C785.09 320.85 784.238 321.04 783.574 320.661C782.911 320.282 782.722 319.429 783.101 318.766Z" fill="#0D66C4"/>
<path d="M787.885 310.525L789.165 307.92C789.496 307.256 790.254 307.02 790.917 307.304C791.581 307.635 791.817 308.393 791.533 309.056L790.301 311.661C789.97 312.324 789.212 312.609 788.549 312.277C787.838 311.993 787.554 311.188 787.885 310.525Z" fill="#0D66C4"/>
<path d="M791.723 301.857L792.718 299.157C792.955 298.494 793.665 298.162 794.328 298.399C794.992 298.636 795.323 299.347 795.086 300.01L794.139 302.757C793.902 303.42 793.191 303.752 792.528 303.515C791.865 303.231 791.486 302.52 791.723 301.857Z" fill="#0D66C4"/>
<path d="M794.66 292.81L795.323 290.016C795.465 289.353 796.129 288.974 796.792 289.116C797.455 289.258 797.834 289.921 797.692 290.537L797.029 293.379C796.887 294.042 796.223 294.421 795.56 294.279C794.897 294.137 794.518 293.473 794.66 292.81Z" fill="#0D66C4"/>
<path d="M796.508 283.479L796.839 280.59C796.934 279.974 797.502 279.501 798.118 279.595C798.734 279.69 799.208 280.258 799.113 280.874L798.781 283.763C798.734 284.427 798.118 284.853 797.502 284.805C796.934 284.711 796.46 284.142 796.508 283.479Z" fill="#0D66C4"/>
<path d="M797.266 274.006V271.117C797.266 270.501 797.739 270.028 798.355 270.028C798.971 270.028 799.445 270.501 799.445 271.117L799.492 274.006C799.492 274.622 799.018 275.143 798.403 275.143C797.787 275.096 797.266 274.622 797.266 274.006Z" fill="#0D66C4"/>
<path d="M796.792 264.486L796.413 261.597C796.318 261.028 796.744 260.507 797.313 260.413C797.881 260.318 798.403 260.744 798.497 261.313L798.924 264.154C799.018 264.723 798.592 265.291 798.024 265.339C797.408 265.481 796.887 265.102 796.792 264.486C796.792 264.533 796.792 264.533 796.792 264.486Z" fill="#0D66C4"/>
<path d="M795.039 255.155L794.234 252.36C794.092 251.839 794.376 251.271 794.897 251.129C795.418 250.987 795.987 251.271 796.129 251.792L796.934 254.587C797.076 255.108 796.792 255.676 796.271 255.818C795.75 256.008 795.181 255.723 795.039 255.155C795.039 255.202 795.039 255.202 795.039 255.155Z" fill="#0D66C4"/>
</g>
<defs>
<linearGradient id="paint0_linear_185_1236" x1="738.526" y1="152.518" x2="216.469" y2="838.363" gradientUnits="userSpaceOnUse">
<stop stop-color="#09005D"/>
<stop offset="1" stop-color="#004286"/>
</linearGradient>
<linearGradient id="paint1_linear_185_1236" x1="336.905" y1="631.923" x2="405.685" y2="631.923" gradientUnits="userSpaceOnUse">
<stop stop-color="#DAE3FE"/>
<stop offset="1" stop-color="#E9EFFD"/>
</linearGradient>
<linearGradient id="paint2_linear_185_1236" x1="336.905" y1="562.323" x2="338.709" y2="562.323" gradientUnits="userSpaceOnUse">
<stop stop-color="#DAE3FE"/>
<stop offset="1" stop-color="#E9EFFD"/>
</linearGradient>
<linearGradient id="paint3_linear_185_1236" x1="352.277" y1="138.443" x2="808.014" y2="218.629" gradientUnits="userSpaceOnUse">
<stop stop-color="#0D66C4"/>
<stop offset="1" stop-color="#1984F0"/>
</linearGradient>
<linearGradient id="paint4_linear_185_1236" x1="408.297" y1="452.991" x2="437.424" y2="452.991" gradientUnits="userSpaceOnUse">
<stop stop-color="#DAE3FE"/>
<stop offset="1" stop-color="#E9EFFD"/>
</linearGradient>
<linearGradient id="paint5_linear_185_1236" x1="408.297" y1="503.329" x2="437.424" y2="503.329" gradientUnits="userSpaceOnUse">
<stop stop-color="#DAE3FE"/>
<stop offset="1" stop-color="#E9EFFD"/>
</linearGradient>
<linearGradient id="paint6_linear_185_1236" x1="408.297" y1="553.668" x2="437.424" y2="553.668" gradientUnits="userSpaceOnUse">
<stop stop-color="#DAE3FE"/>
<stop offset="1" stop-color="#E9EFFD"/>
</linearGradient>
<linearGradient id="paint7_linear_185_1236" x1="408.297" y1="604.007" x2="437.424" y2="604.007" gradientUnits="userSpaceOnUse">
<stop stop-color="#DAE3FE"/>
<stop offset="1" stop-color="#E9EFFD"/>
</linearGradient>
<linearGradient id="paint8_linear_185_1236" x1="585.914" y1="28.1617" x2="434.428" y2="227.477" gradientUnits="userSpaceOnUse">
<stop stop-color="#09005D"/>
<stop offset="1" stop-color="#1A0F91"/>
</linearGradient>
<linearGradient id="paint9_linear_185_1236" x1="513.871" y1="90.8098" x2="538.143" y2="90.8098" gradientUnits="userSpaceOnUse">
<stop stop-color="#DAE3FE"/>
<stop offset="1" stop-color="#E9EFFD"/>
</linearGradient>
<linearGradient id="paint10_linear_185_1236" x1="602.535" y1="40.7937" x2="451.049" y2="240.109" gradientUnits="userSpaceOnUse">
<stop stop-color="#09005D"/>
<stop offset="1" stop-color="#1A0F91"/>
</linearGradient>
<linearGradient id="paint11_linear_185_1236" x1="499.741" y1="120.909" x2="506.655" y2="120.909" gradientUnits="userSpaceOnUse">
<stop stop-color="#DAE3FE"/>
<stop offset="1" stop-color="#E9EFFD"/>
</linearGradient>
<linearGradient id="paint12_linear_185_1236" x1="466.971" y1="128.828" x2="496.433" y2="128.828" gradientUnits="userSpaceOnUse">
<stop stop-color="#DAE3FE"/>
<stop offset="1" stop-color="#E9EFFD"/>
</linearGradient>
<linearGradient id="paint13_linear_185_1236" x1="412.527" y1="136.743" x2="471.957" y2="254.512" gradientUnits="userSpaceOnUse">
<stop stop-color="#0D66C4"/>
<stop offset="1" stop-color="#1984F0"/>
</linearGradient>
<linearGradient id="paint14_linear_185_1236" x1="778.499" y1="647.559" x2="786.392" y2="695.871" gradientUnits="userSpaceOnUse">
<stop stop-color="#F0AC8B"/>
<stop offset="1" stop-color="#F7B99C"/>
</linearGradient>
<linearGradient id="paint15_linear_185_1236" x1="772.892" y1="654.037" x2="764.682" y2="779.959" gradientUnits="userSpaceOnUse">
<stop stop-color="#09005D"/>
<stop offset="1" stop-color="#1A0F91"/>
</linearGradient>
<linearGradient id="paint16_linear_185_1236" x1="703.51" y1="649.654" x2="775.822" y2="582.382" gradientUnits="userSpaceOnUse">
<stop stop-color="#EFAB8A"/>
<stop offset="1" stop-color="#FAC2A6"/>
</linearGradient>
<linearGradient id="paint17_linear_185_1236" x1="745.865" y1="560.006" x2="877.885" y2="560.006" gradientUnits="userSpaceOnUse">
<stop stop-color="#0B0E2C"/>
<stop offset="1" stop-color="#141954"/>
</linearGradient>
<linearGradient id="paint18_linear_185_1236" x1="693.629" y1="648.869" x2="685.418" y2="774.791" gradientUnits="userSpaceOnUse">
<stop stop-color="#09005D"/>
<stop offset="1" stop-color="#1A0F91"/>
</linearGradient>
<linearGradient id="paint19_linear_185_1236" x1="824.108" y1="491.619" x2="801.377" y2="593.929" gradientUnits="userSpaceOnUse">
<stop stop-color="#5C9AFF"/>
<stop offset="1" stop-color="#6998D0"/>
</linearGradient>
<linearGradient id="paint20_linear_185_1236" x1="814.949" y1="405.025" x2="791.59" y2="405.822" gradientUnits="userSpaceOnUse">
<stop stop-color="#FF928E"/>
<stop offset="1" stop-color="#FEB3B1"/>
</linearGradient>
<linearGradient id="paint21_linear_185_1236" x1="799.066" y1="402.697" x2="799.066" y2="431.629" gradientUnits="userSpaceOnUse">
<stop stop-color="#EEA886"/>
<stop offset="1" stop-color="#FFCAB0"/>
</linearGradient>
<linearGradient id="paint22_linear_185_1236" x1="814.154" y1="369.171" x2="779.445" y2="370.244" gradientUnits="userSpaceOnUse">
<stop stop-color="#FF928E"/>
<stop offset="1" stop-color="#FEB3B1"/>
</linearGradient>
<linearGradient id="paint23_linear_185_1236" x1="790.557" y1="365.355" x2="790.557" y2="412.776" gradientUnits="userSpaceOnUse">
<stop stop-color="#EEA886"/>
<stop offset="1" stop-color="#FFCAB0"/>
</linearGradient>
<linearGradient id="paint24_linear_185_1236" x1="893.192" y1="508.215" x2="794.97" y2="525.273" gradientUnits="userSpaceOnUse">
<stop stop-color="#FF928E"/>
<stop offset="1" stop-color="#FEB3B1"/>
</linearGradient>
<linearGradient id="paint25_linear_185_1236" x1="824.469" y1="506.237" x2="824.469" y2="530.826" gradientUnits="userSpaceOnUse">
<stop stop-color="#EEA886"/>
<stop offset="1" stop-color="#FFCAB0"/>
</linearGradient>
<linearGradient id="paint26_linear_185_1236" x1="291.898" y1="387.303" x2="291.898" y2="421.325" gradientUnits="userSpaceOnUse">
<stop stop-color="#EEA886"/>
<stop offset="1" stop-color="#FFCAB0"/>
</linearGradient>
<linearGradient id="paint27_linear_185_1236" x1="215.128" y1="417.806" x2="288.924" y2="436.106" gradientUnits="userSpaceOnUse">
<stop stop-color="#0D66C4"/>
<stop offset="1" stop-color="#1984F0"/>
</linearGradient>
<linearGradient id="paint28_linear_185_1236" x1="263.213" y1="693.613" x2="268.67" y2="712.155" gradientUnits="userSpaceOnUse">
<stop stop-color="#FFCA36"/>
<stop offset="1" stop-color="#D69300"/>
</linearGradient>
<linearGradient id="paint29_linear_185_1236" x1="305.539" y1="589.978" x2="290.533" y2="693.677" gradientUnits="userSpaceOnUse">
<stop stop-color="#020039"/>
<stop offset="1" stop-color="#090056"/>
</linearGradient>
<linearGradient id="paint30_linear_185_1236" x1="265.952" y1="679.052" x2="280.818" y2="679.052" gradientUnits="userSpaceOnUse">
<stop stop-color="#FF928E"/>
<stop offset="1" stop-color="#FEB3B1"/>
</linearGradient>
<linearGradient id="paint31_linear_185_1236" x1="263.5" y1="679" x2="280" y2="679" gradientUnits="userSpaceOnUse">
<stop stop-color="#EEA886"/>
<stop offset="1" stop-color="#FFCAB0"/>
</linearGradient>
<linearGradient id="paint32_linear_185_1236" x1="349.387" y1="667.42" x2="399.654" y2="683.268" gradientUnits="userSpaceOnUse">
<stop stop-color="#FFCA36"/>
<stop offset="1" stop-color="#D69300"/>
</linearGradient>
<linearGradient id="paint33_linear_185_1236" x1="379.896" y1="600.738" x2="364.89" y2="704.437" gradientUnits="userSpaceOnUse">
<stop stop-color="#020039"/>
<stop offset="1" stop-color="#090056"/>
</linearGradient>
<linearGradient id="paint34_linear_185_1236" x1="242.591" y1="383.701" x2="242.591" y2="481.273" gradientUnits="userSpaceOnUse">
<stop stop-color="#033C7D"/>
<stop offset="1" stop-color="#090056"/>
</linearGradient>
<linearGradient id="paint35_linear_185_1236" x1="336.364" y1="680.303" x2="354.112" y2="680.303" gradientUnits="userSpaceOnUse">
<stop stop-color="#FF928E"/>
<stop offset="1" stop-color="#FEB3B1"/>
</linearGradient>
<linearGradient id="paint36_linear_185_1236" x1="345.242" y1="670.262" x2="345.242" y2="690.344" gradientUnits="userSpaceOnUse">
<stop stop-color="#EEA886"/>
<stop offset="1" stop-color="#FFCAB0"/>
</linearGradient>
<linearGradient id="paint37_linear_185_1236" x1="129.167" y1="867.101" x2="246.617" y2="616.048" gradientUnits="userSpaceOnUse">
<stop stop-color="#1C599D"/>
<stop offset="1" stop-color="#033D7D"/>
</linearGradient>
<linearGradient id="paint38_linear_185_1236" x1="150.435" y1="408.381" x2="248.776" y2="422.366" gradientUnits="userSpaceOnUse">
<stop stop-color="#0D66C4"/>
<stop offset="1" stop-color="#004B96"/>
</linearGradient>
<linearGradient id="paint39_linear_185_1236" x1="202.929" y1="373.141" x2="202.929" y2="421.86" gradientUnits="userSpaceOnUse">
<stop stop-color="#EEA886"/>
<stop offset="1" stop-color="#FFCAB0"/>
</linearGradient>
<linearGradient id="paint40_linear_185_1236" x1="224.934" y1="351.292" x2="224.934" y2="394.929" gradientUnits="userSpaceOnUse">
<stop stop-color="#EEA886"/>
<stop offset="1" stop-color="#FFCAB0"/>
</linearGradient>
<linearGradient id="paint41_linear_185_1236" x1="170.827" y1="434.699" x2="288.265" y2="473.097" gradientUnits="userSpaceOnUse">
<stop stop-color="#0D66C4"/>
<stop offset="1" stop-color="#1984F0"/>
</linearGradient>
<linearGradient id="paint42_linear_185_1236" x1="283.07" y1="460.53" x2="283.07" y2="494.869" gradientUnits="userSpaceOnUse">
<stop stop-color="#EEA886"/>
<stop offset="1" stop-color="#FFCAB0"/>
</linearGradient>
<clipPath id="clip0_185_1236">
<rect width="1024" height="702.044" fill="white"/>
</clipPath>
</defs>
</svg>
