<svg width="385" height="395" viewBox="0 0 385 395" fill="none" xmlns="http://www.w3.org/2000/svg">
<g clip-path="url(#clip0_164_588)">
<path fill-rule="evenodd" clip-rule="evenodd" d="M208.722 45.5808C250.942 45.5808 246.117 129.573 276.592 155.203C316.939 189.079 384.968 193.171 384.968 251.344C384.968 353.448 296.305 369.593 198.214 369.593C100.123 369.593 16.4438 312.974 45.6489 211.124C74.8858 109.273 110.662 45.5808 208.722 45.5808Z" fill="#E9EFF8"/>
<path fill-rule="evenodd" clip-rule="evenodd" d="M82.1553 127.067C89.8693 134.363 93.393 143.086 92.6628 153.236C74.4096 165.67 64.9497 177.311 64.3465 188.159C85.806 169.064 101.932 169.127 109.17 180.832C103.805 187.302 100.059 209.664 101.361 219.941C103.646 238.117 98.6943 254.42 84.9489 260.542C81.8061 267.584 78.4729 271.327 75.0128 271.707C78.346 292.071 81.1395 312.72 83.4251 333.687C81.1077 334.892 77.7746 334.765 76.0286 333.56C75.3302 325.376 74.7905 319.635 74.2826 315.765C72.8859 300.54 71.2986 285.822 69.5209 271.612C68.6638 271.517 67.8385 271.358 67.0131 271.2C50.9503 267.838 57.1087 257.814 42.4109 254.801C33.3637 252.961 25.1418 245.317 23.1101 238.497C32.5383 235.516 44.3791 232.375 56.4104 234.627C50.1566 225.841 37.4588 226.507 20.2531 228.633C13.7454 216.008 4.50773 217.15 8.19012 197.389C13.2375 169.793 -4.79347 162.149 1.26977 129.002C10.1266 125.64 21.8721 126.052 36.4747 130.176C30.2844 121.009 18.5072 117.234 1.17454 118.789C4.76169 109.083 4.72995 96.5218 3.01573 91.1612C9.45991 86.5302 15.9676 86.5302 22.5387 91.2247C19.5865 86.1813 15.7771 83.2949 11.1106 82.597C11.3328 78.2832 13.2058 73.4619 16.6977 68.1331C22.4752 68.2599 28.8559 69.5287 35.8715 71.9711C32.6653 74.0646 31.6495 77.8709 32.7605 83.3266C36.6016 78.8225 42.284 77.2999 49.8075 78.7907C51.3947 98.4884 68.8543 106.482 69.14 114.951C58.8547 123.991 52.8232 133.855 51.0772 144.545C61.5847 135.568 71.9335 129.764 82.1553 127.067Z" fill="#BCC9E7"/>
<path fill-rule="evenodd" clip-rule="evenodd" d="M83.4569 333.655C81.1712 312.689 78.3777 292.039 75.0445 271.676C63.172 194.852 42.4744 115.458 24.4434 82.2166C48.5059 138.867 65.1084 216.706 74.2826 315.734C74.8223 319.604 75.3302 325.376 76.0286 333.528C77.8063 334.734 81.1395 334.86 83.4569 333.655Z" fill="#AAB9DE"/>
<path fill-rule="evenodd" clip-rule="evenodd" d="M52.9184 77.4902C45.4584 87.006 43.0141 97.4099 45.5219 108.734C68.1876 119.613 80.8221 131.127 83.3616 143.212C55.9659 125.386 37.808 128.178 31.6495 142.61C38.792 148.985 46.7917 173.504 47.1092 185.304C47.6171 206.144 55.9659 223.653 72.4732 228.22C77.2349 235.611 81.5839 239.258 85.552 239.1C85.2663 262.572 85.6472 286.298 86.6313 310.31C89.4566 311.261 93.1707 310.563 94.9485 308.914C94.3453 299.588 93.9644 293.023 93.9009 288.582C92.885 271.2 92.1867 254.389 91.7422 238.085C92.6946 237.831 93.6152 237.514 94.504 237.197C112.027 230.663 103.393 220.449 119.424 214.549C129.296 210.933 137.264 200.942 138.407 192.917C127.296 191.172 113.424 189.618 100.25 194.217C105.805 183.274 120.185 181.878 139.931 181.307C145.105 165.987 155.708 165.701 148.216 144.069C137.772 113.904 156.787 102.263 144.311 65.9444C133.741 63.6923 120.598 66.103 104.853 73.2715C110.281 61.916 122.852 55.6356 142.661 54.462C136.947 44.1215 134.852 29.9747 135.867 23.6626C127.836 19.5074 120.503 20.6493 113.9 27.0566C116.344 20.8713 120.154 17.0015 125.296 15.3839C124.312 10.5625 121.392 5.45573 116.535 0.0317383C110.059 1.17363 103.107 3.67945 95.6151 7.61264C99.5832 9.45236 101.393 13.5124 101.043 19.8563C95.9325 15.4156 89.2979 14.686 81.1078 17.6677C82.6632 40.1249 64.3783 52.083 65.4894 61.6623C78.5999 70.0996 87.0758 80.1863 90.8851 91.9224C77.5523 83.5803 64.9179 78.759 52.9184 77.4902Z" fill="#D0D9EE"/>
<path fill-rule="evenodd" clip-rule="evenodd" d="M86.6313 310.31C85.6155 286.33 85.2663 262.604 85.552 239.1C85.806 150.54 95.6151 57.6339 110.281 17.1602C92.8533 85.0394 87.3932 175.503 93.9326 288.55C93.9961 292.991 94.3771 299.557 94.9802 308.882C93.1708 310.563 89.4566 311.261 86.6313 310.31Z" fill="#BCC9E7"/>
<path fill-rule="evenodd" clip-rule="evenodd" d="M76.5683 324.425C109.551 324.425 136.312 330.451 136.312 337.842C136.312 345.233 109.551 351.259 76.5683 351.259C43.5855 351.259 16.8247 345.233 16.8247 337.842C16.8247 330.451 43.5855 324.425 76.5683 324.425Z" fill="#D0D9EE"/>
<path fill-rule="evenodd" clip-rule="evenodd" d="M107.107 285.251H48.9821C46.379 285.251 44.2521 287.377 44.2521 289.978V303.3C44.2521 305.901 46.379 308.026 48.9821 308.026H107.107C109.71 308.026 111.837 305.901 111.837 303.3V289.978C111.868 287.377 109.71 285.251 107.107 285.251Z" fill="#BCC9E7"/>
<path fill-rule="evenodd" clip-rule="evenodd" d="M106.599 308.058H49.5218L55.1089 337.525H100.98L106.599 308.058Z" fill="#BCC9E7"/>
<path fill-rule="evenodd" clip-rule="evenodd" d="M49.5218 308.058H106.599L105.583 313.386H50.5376L49.5218 308.058Z" fill="#AAB9DE"/>
<path fill-rule="evenodd" clip-rule="evenodd" d="M343.827 58.554H171.168C157.676 58.554 146.661 69.5605 146.661 83.0412V320.206C146.661 333.687 157.676 344.693 171.168 344.693H343.827C357.319 344.693 368.334 333.687 368.334 320.206V83.0412C368.334 69.5605 357.319 58.554 343.827 58.554Z" fill="#BCC9E7"/>
<path fill-rule="evenodd" clip-rule="evenodd" d="M343.827 65.4688H171.168C161.485 65.4688 153.581 73.3668 153.581 83.0412V320.206C153.581 329.881 161.485 337.779 171.168 337.779H343.827C353.509 337.779 361.414 329.881 361.414 320.206V83.0412C361.414 73.3668 353.477 65.4688 343.827 65.4688Z" fill="#E9EFF8"/>
<path d="M186.073 64.1385L166.86 308.031L338.161 321.504L357.375 77.6116L186.073 64.1385Z" fill="white"/>
<path d="M193.667 80.3181L192.107 100.113L345.75 112.196L347.309 92.4016L193.667 80.3181Z" fill="#D0D9EE"/>
<path fill-rule="evenodd" clip-rule="evenodd" d="M339.7 128.019L320.177 126.497L318.654 146.004L338.177 147.526L339.7 128.019ZM327.225 286.33L307.702 284.807L306.178 304.315L325.701 305.837L327.225 286.33ZM329.701 254.642L310.178 253.12L308.654 272.627L328.177 274.15L329.701 254.642ZM332.209 222.987L312.686 221.464L311.162 240.971L330.685 242.494L332.209 222.987ZM334.685 191.331L315.162 189.808L313.638 209.316L333.161 210.838L334.685 191.331ZM337.192 159.675L317.669 158.152L316.146 177.66L335.669 179.182L337.192 159.675Z" fill="#D0D9EE"/>
<path fill-rule="evenodd" clip-rule="evenodd" d="M304.781 125.989L198.849 117.647C197.071 117.52 195.484 118.852 195.325 120.628C195.198 122.405 196.532 123.991 198.309 124.149L304.241 132.491C306.019 132.618 307.606 131.286 307.765 129.51C307.924 127.702 306.559 126.116 304.781 125.989ZM292.305 284.3L186.373 275.958C184.596 275.831 183.008 277.163 182.881 278.939C182.754 280.716 184.088 282.302 185.865 282.46L291.798 290.802C293.575 290.929 295.162 289.597 295.321 287.821C295.448 286.013 294.115 284.427 292.305 284.3ZM291.385 295.877C293.163 296.004 294.528 297.59 294.369 299.366C294.242 301.143 292.655 302.507 290.877 302.348L227.26 297.336C225.483 297.21 224.118 295.624 224.276 293.847C224.435 292.071 225.991 290.707 227.8 290.866L291.385 295.877ZM294.813 252.612L188.881 244.302C187.103 244.175 185.516 245.507 185.389 247.283C185.262 249.06 186.596 250.646 188.373 250.804L294.305 259.146C296.083 259.305 297.67 257.941 297.829 256.165C297.956 254.357 296.591 252.771 294.813 252.612ZM293.893 264.19C295.67 264.317 297.035 265.903 296.877 267.711C296.75 269.487 295.162 270.851 293.353 270.692L229.737 265.681C227.959 265.554 226.594 263.968 226.753 262.191C226.88 260.415 228.467 259.051 230.244 259.21L293.893 264.19ZM297.289 220.956L191.357 212.614C189.579 212.487 187.992 213.82 187.834 215.596C187.707 217.372 189.04 218.958 190.818 219.085L296.75 227.427C298.527 227.554 300.115 226.222 300.273 224.446C300.432 222.669 299.099 221.115 297.289 220.956ZM296.4 232.534C298.178 232.661 299.543 234.247 299.384 236.023C299.258 237.799 297.67 239.163 295.893 239.005L232.276 233.993C230.498 233.866 229.133 232.28 229.292 230.472C229.419 228.696 231.006 227.332 232.816 227.491L296.4 232.534ZM299.797 189.301L193.865 180.958C192.087 180.832 190.5 182.164 190.373 183.94C190.246 185.716 191.579 187.302 193.357 187.429L299.289 195.771C301.067 195.898 302.654 194.566 302.813 192.79C302.94 191.013 301.575 189.459 299.797 189.301ZM298.877 200.878C300.654 201.005 302.019 202.591 301.861 204.399C301.734 206.175 300.146 207.539 298.337 207.381L234.752 202.369C232.975 202.242 231.609 200.656 231.768 198.848C231.895 197.072 233.482 195.708 235.292 195.867L298.877 200.878ZM302.273 157.645L196.341 149.303C194.563 149.176 192.976 150.508 192.817 152.284C192.69 154.061 194.024 155.646 195.801 155.805L301.734 164.147C303.511 164.274 305.099 162.942 305.257 161.166C305.416 159.358 304.083 157.772 302.273 157.645ZM301.384 169.222C303.162 169.349 304.527 170.935 304.368 172.711C304.241 174.488 302.654 175.852 300.845 175.693L237.228 170.681C235.451 170.523 234.086 168.969 234.244 167.161C234.371 165.384 235.959 164.02 237.736 164.179L301.384 169.222ZM303.861 137.566C305.638 137.693 307.003 139.279 306.844 141.056C306.718 142.832 305.13 144.196 303.321 144.037L239.704 139.026C237.927 138.899 236.562 137.313 236.72 135.505C236.847 133.728 238.435 132.365 240.212 132.523L303.861 137.566Z" fill="#D0D9EE"/>
<path fill-rule="evenodd" clip-rule="evenodd" d="M300.369 47.7377H269.989V41.3304C269.989 34.4473 264.338 28.8013 257.45 28.8013C250.561 28.8013 244.911 34.4473 244.911 41.3304V47.7377H214.594C210.436 47.7377 207.039 51.1316 207.039 55.2869V69.6874C207.039 73.8426 210.436 77.2366 214.594 77.2366H300.369C304.527 77.2366 307.924 73.8426 307.924 69.6874V55.2869C307.956 51.1634 304.527 47.7377 300.369 47.7377ZM257.481 36.3187C260.529 36.3187 263.037 38.7928 263.037 41.8696C263.037 44.9147 260.561 47.4205 257.481 47.4205C254.434 47.4205 251.926 44.9464 251.926 41.8696C251.958 38.7928 254.434 36.3187 257.481 36.3187Z" fill="#AAB9DE"/>
<path fill-rule="evenodd" clip-rule="evenodd" d="M325.86 131.032C325.415 130.112 325.796 129.002 326.717 128.558C327.637 128.114 328.748 128.495 329.193 129.415L332.875 136.964L344.43 123.895C345.129 123.134 346.303 123.039 347.065 123.737C347.827 124.403 347.89 125.577 347.224 126.37L333.891 141.436C333.732 141.658 333.51 141.817 333.256 141.944C332.336 142.388 331.224 142.007 330.78 141.087L325.86 131.032ZM322.749 162.625C322.304 161.705 322.685 160.595 323.606 160.151C324.526 159.707 325.637 160.087 326.082 161.007L329.764 168.556L341.319 155.488C341.986 154.727 343.192 154.631 343.954 155.329C344.716 155.995 344.811 157.169 344.113 157.962L330.78 173.029C330.621 173.251 330.399 173.409 330.145 173.536C329.225 173.98 328.113 173.6 327.669 172.68L322.749 162.625ZM310.305 289.058C309.86 288.138 310.241 287.028 311.162 286.584C312.082 286.139 313.193 286.52 313.638 287.44L317.32 294.989L328.875 281.921C329.542 281.16 330.748 281.096 331.51 281.762C332.272 282.428 332.336 283.602 331.669 284.395L318.336 299.462C318.177 299.684 317.955 299.842 317.701 299.969C316.781 300.413 315.67 300.033 315.225 299.113L310.305 289.058ZM313.416 257.465C312.971 256.545 313.352 255.435 314.273 254.991C315.193 254.547 316.304 254.928 316.749 255.848L320.431 263.397L331.986 250.328C332.653 249.567 333.859 249.504 334.621 250.17C335.383 250.836 335.446 252.01 334.78 252.803L321.447 267.869C321.288 268.091 321.066 268.25 320.812 268.377C319.892 268.821 318.78 268.44 318.336 267.52L313.416 257.465ZM316.527 225.841C316.082 224.921 316.463 223.811 317.384 223.367C318.304 222.923 319.415 223.304 319.86 224.224L323.542 231.773L335.097 218.704C335.764 217.943 336.97 217.88 337.732 218.546C338.494 219.212 338.557 220.385 337.891 221.178L324.558 236.245C324.399 236.467 324.177 236.626 323.923 236.753C323.003 237.197 321.891 236.816 321.447 235.896L316.527 225.841ZM319.638 194.249C319.193 193.329 319.574 192.219 320.495 191.775C321.415 191.331 322.526 191.711 322.971 192.631L326.653 200.18L338.208 187.112C338.875 186.351 340.049 186.256 340.843 186.953C341.605 187.619 341.7 188.825 341.002 189.586L327.669 204.653C327.51 204.875 327.288 205.033 327.034 205.16C326.114 205.604 325.002 205.224 324.558 204.304L319.638 194.249Z" fill="#AAB9DE"/>
<path fill-rule="evenodd" clip-rule="evenodd" d="M17.9358 380.409C17.9358 388.466 72.9176 395 140.724 395C208.531 395 263.513 388.466 263.513 380.409C263.481 360.553 17.9358 360.965 17.9358 380.409Z" fill="#D0D9EE"/>
<path fill-rule="evenodd" clip-rule="evenodd" d="M57.3627 384.533C51.5534 382.503 51.109 379.521 47.9663 378.062C44.8235 376.603 44.4744 373.97 47.5218 371.147C49.8075 372.955 52.601 375.176 54.093 374.002C55.0771 373.209 58.4738 373.272 59.1404 374.414C62.0927 381.266 66.1877 379.077 66.9814 382.186C67.1083 386.341 59.9975 385.484 57.3627 384.533Z" fill="#003D81"/>
<path fill-rule="evenodd" clip-rule="evenodd" d="M107.107 384.755C96.4087 384.596 88.409 384.469 84.7267 383.296C80.7268 382.027 81.5522 379.616 83.8696 375.715C93.9644 380.346 91.2661 374.763 95.9643 375.461C99.2657 378.125 104.186 379.902 110.694 380.822C113.424 382.852 112.313 384.66 107.107 384.755Z" fill="#003D81"/>
<path fill-rule="evenodd" clip-rule="evenodd" d="M70.1558 125.355C71.87 125.482 74.5683 125.164 75.0445 124.53C76.854 122.215 78.1238 119.804 78.5999 118.313C78.2507 117.298 77.8698 116.029 77.4889 114.475C70.9177 110.003 69.9971 106.704 74.7906 104.547C75.7429 105.086 76.9492 106.736 78.3777 109.527C79.5205 109.495 80.3776 108.892 80.9808 107.782C79.6158 103.088 78.7269 99.2498 78.3142 96.3316C81.5522 91.5103 89.1392 90.8124 99.1705 92.1129C99.6467 94.7773 100.028 97.6004 100.313 100.614C102.091 102.263 101.869 108.321 100.218 115.3C101.043 119.265 98.5674 121.453 92.8533 121.802C92.7581 123.198 92.9168 124.942 92.9803 125.133C93.139 125.45 93.6469 125.735 94.3453 125.989C94.5358 132.587 86.4726 132.365 70.1558 125.355Z" fill="#F4AE7C"/>
<path fill-rule="evenodd" clip-rule="evenodd" d="M99.1705 92.1763C89.1392 90.8758 81.5522 91.5736 78.2825 96.3949C78.6952 99.3448 79.584 103.151 80.9491 107.846C80.3459 108.956 79.4888 109.558 78.346 109.59C76.9175 106.799 75.7112 105.149 74.7588 104.61C69.9654 106.767 70.886 110.066 77.4571 114.538C77.8381 116.093 78.219 117.361 78.5682 118.376C72.6319 117.044 67.6798 111.747 66.9814 109.463C60.061 95.8557 67.775 90.1145 71.9018 88.021C73.7113 74.5404 93.2977 86.4668 103.107 79.9644C107.011 85.2932 102.218 92.0494 99.1705 92.1763Z" fill="#0F3970"/>
<path fill-rule="evenodd" clip-rule="evenodd" d="M159.422 149.239C154.438 170.491 145.708 187.017 133.233 198.753C128.725 197.389 124.725 194.312 121.265 189.523C121.455 204.906 121.074 220.227 120.122 235.452C111.011 239.766 98.9166 239.48 83.8061 234.627L77.6794 227.11C76.0921 226.793 72.5367 228.537 70.8225 231.17C56.5056 220.227 46.8235 208.491 41.1094 196.818C42.6649 171.76 46.0616 151.967 51.3312 137.471C53.9978 133.379 60.2515 129.351 70.1241 125.386C86.4409 132.364 94.5358 132.587 94.3136 126.052C99.107 127.638 105.488 130.43 113.424 134.426C120.027 139.438 125.677 153.077 130.344 175.281C137.931 165.797 145.772 155.742 153.93 145.116C155.771 145.56 157.613 146.955 159.422 149.239ZM74.3779 220.259C79.1396 204.653 76.5048 185.399 66.5052 162.466C63.9974 173.758 61.2673 184.892 58.3468 195.835C61.7435 197.484 67.0766 205.604 74.3779 220.259Z" fill="#6998D0"/>
<path fill-rule="evenodd" clip-rule="evenodd" d="M72.6002 240.622C74.9176 240.432 78.6634 238.434 83.8061 234.596C98.8848 239.481 111.011 239.766 120.122 235.421C121.741 261.05 115.424 287.948 107.424 317.922C99.5832 331.086 99.9324 340.316 95.7421 370.671C93.4247 372.321 89.5836 372.099 84.2505 369.942C82.568 344.059 83.7108 326.931 90.4407 317.256C89.3931 308.565 92.1232 287.25 92.2819 273.864C87.3932 284.744 84.0283 299.462 77.6476 314.338C69.9019 332.418 64.4735 351.799 60.4102 369.466C56.0929 370.291 52.0296 369.815 48.252 367.975C52.601 338.952 57.4262 318.969 62.6958 308.026C62.5054 279.479 65.2037 253.849 70.8542 231.107C71.8701 233.835 72.4732 236.975 72.6002 240.622Z" fill="#003D81"/>
<path fill-rule="evenodd" clip-rule="evenodd" d="M83.8061 234.596C78.6634 238.434 74.9175 240.432 72.6002 240.623C72.4732 236.975 71.8701 233.835 70.8225 231.138C72.5367 228.506 76.0921 226.761 77.6793 227.078L83.8061 234.596Z" fill="#F4AE7C"/>
<path fill-rule="evenodd" clip-rule="evenodd" d="M121.265 189.523C120.757 174.583 119.582 162.339 117.678 152.792C122.503 173.092 127.201 186.541 131.741 193.17C134.598 193.075 138.248 191.394 142.629 188.064C139.772 191.965 136.661 195.518 133.264 198.721C128.757 197.357 124.757 194.281 121.265 189.523Z" fill="#406FB5"/>
<path fill-rule="evenodd" clip-rule="evenodd" d="M77.6793 227.078C76.7905 224.921 75.7112 222.638 74.3779 220.29C79.1396 204.684 76.5048 185.431 66.5052 162.498C81.0443 183.147 85.1711 205.16 78.8856 228.569L77.6793 227.078Z" fill="#406FB5"/>
<path fill-rule="evenodd" clip-rule="evenodd" d="M86.2504 120.438C87.8694 121.231 90.0598 121.707 92.8533 121.834C92.7898 122.785 92.8533 123.864 92.8851 124.53C90.0915 123.991 87.8694 122.627 86.2504 120.438Z" fill="#ED7D5B"/>
<path fill-rule="evenodd" clip-rule="evenodd" d="M84.8536 376.159C85.3933 374.383 85.5838 372.48 85.4568 370.449C89.5201 371.909 92.6628 372.162 94.7897 371.211C94.6945 372.733 94.8532 374.129 95.2977 375.398C91.6153 375.271 93.3295 379.775 84.8536 376.159ZM57.9024 373.653C56.6326 373.304 54.7914 373.463 54.1247 374.002C52.7915 375.049 50.4106 373.399 48.2837 371.718C48.6647 370.703 48.9504 369.625 49.2043 368.419C51.7439 369.498 54.4104 369.974 57.204 369.847C57.1405 371.369 57.3945 372.638 57.9024 373.653Z" fill="#F4AE7C"/>
<path fill-rule="evenodd" clip-rule="evenodd" d="M72.4415 244.27C72.6002 242.938 72.6637 241.733 72.6002 240.622C74.9176 240.432 78.6634 238.434 83.8061 234.596C85.0441 234.976 86.2187 235.357 87.425 235.706C83.8061 239.449 78.7904 242.303 72.4415 244.27Z" fill="#3D3691"/>
<path fill-rule="evenodd" clip-rule="evenodd" d="M187.865 127.543L183.802 118.725C162.057 128.685 156.724 131.128 134.979 141.087C133.772 141.658 133.233 143.086 133.772 144.291L135.804 148.7C136.375 149.905 137.804 150.445 139.01 149.905C160.787 139.946 166.12 137.503 187.865 127.543Z" fill="#6998D0"/>
<path fill-rule="evenodd" clip-rule="evenodd" d="M183.802 118.725L187.865 127.543L197.801 117.647L183.802 118.725Z" fill="#F4AE7C"/>
<path d="M185.166 121.688L140.636 142.078L141.958 144.961L186.488 124.572L185.166 121.688Z" fill="#406FB5"/>
<path fill-rule="evenodd" clip-rule="evenodd" d="M139.264 139.121L143.327 147.939L139.042 149.905C137.836 150.476 136.375 149.937 135.836 148.7L133.804 144.291C133.233 143.086 133.772 141.627 135.01 141.087L139.264 139.121Z" fill="#406FB5"/>
<path fill-rule="evenodd" clip-rule="evenodd" d="M194.119 121.295C191.484 121.168 191.04 120.058 192.722 118.028L197.801 117.647L194.119 121.295Z" fill="#406FB5"/>
<path fill-rule="evenodd" clip-rule="evenodd" d="M153.962 145.052C154.057 140.802 156.343 139.755 156.787 137.408C158.755 138.264 159.263 139.85 158.311 142.198C159.2 141.468 160.089 140.707 160.946 139.85C163.803 138.55 166.025 137.535 167.612 136.774C166.628 139.343 165.263 142.325 163.517 145.719C162.469 147.368 160.914 147.051 158.946 148.637C157.295 146.734 155.613 145.528 153.962 145.052Z" fill="#F4AE7C"/>
<path fill-rule="evenodd" clip-rule="evenodd" d="M158.279 34.0032C177.929 34.0032 193.897 49.9262 193.897 69.5922C193.897 89.2581 177.961 105.181 158.279 105.181C138.597 105.181 122.662 89.2581 122.662 69.5922C122.662 49.9262 138.629 34.0032 158.279 34.0032Z" fill="#AAB9DE"/>
<path fill-rule="evenodd" clip-rule="evenodd" d="M158.279 36.9849C140.248 36.9849 125.646 51.5757 125.646 69.5923C125.646 87.6088 140.248 102.2 158.279 102.2C176.31 102.2 190.913 87.6088 190.913 69.5923C190.913 51.5757 176.31 36.9849 158.279 36.9849Z" fill="#E9EFF8"/>
<path fill-rule="evenodd" clip-rule="evenodd" d="M164.469 69.2117C164.469 69.2117 164.692 76.5388 165.644 79.8376L173.072 85.0078L145.073 89.2265L151.74 79.9962C151.74 79.9962 153.74 70.1632 152.692 66.5155C151.645 62.8995 164.469 69.2117 164.469 69.2117Z" fill="#D0D9EE"/>
<path fill-rule="evenodd" clip-rule="evenodd" d="M164.501 70.2266C164.501 70.2266 162.279 75.5554 158.12 75.4285C153.962 75.3016 153.01 70.6072 153.01 70.6072L164.501 70.2266Z" fill="#BCC9E7"/>
<path fill-rule="evenodd" clip-rule="evenodd" d="M166.977 65.9128C166.977 65.9128 168.311 59.1884 169.263 57.1583C170.215 55.1283 170.977 46.0566 160.565 45.5808C160.565 45.5808 156.565 46.0566 154.375 44.7244C154.375 44.7244 154.375 46.0566 154.914 46.5324C154.914 46.5324 151.327 45.6759 148.502 48.8161C145.677 51.9564 150.375 62.8995 150.153 65.5005L166.977 65.9128Z" fill="#8D9FCA"/>
<path fill-rule="evenodd" clip-rule="evenodd" d="M152.819 53.2568H164.342C165.898 53.2568 167.168 54.7476 167.168 56.5556V64.3269C167.168 69.3068 161.612 73.3351 158.597 73.3669C155.136 73.4303 150.026 69.0847 150.026 63.8828V56.5556C150.026 54.7476 151.295 53.2568 152.819 53.2568Z" fill="#D0D9EE"/>
<path fill-rule="evenodd" clip-rule="evenodd" d="M167.168 60.7107C167.168 60.7107 167.168 56.0479 163.454 55.3184C159.739 54.5888 151.486 57.6022 150.311 54.2082C149.137 50.8142 166.311 50.846 167.168 53.0346C168.057 55.1915 167.168 60.7107 167.168 60.7107Z" fill="#8D9FCA"/>
<path fill-rule="evenodd" clip-rule="evenodd" d="M142.248 81.7406C145.645 80.9159 148.819 80.3449 151.772 79.996C154.375 83.4534 156.248 84.2464 158.597 85.1662C162.438 84.627 165.644 79.9326 165.644 79.8374C169.803 80.2498 172.628 81.011 173.771 81.3916C173.898 81.3916 177.929 81.9309 184.596 88.9408C178.659 96.9975 169.104 102.199 158.311 102.199C147.518 102.199 137.931 96.9658 131.995 88.8774C138.439 82.0578 142.248 81.7406 142.248 81.7406Z" fill="#BCC9E7"/>
<path fill-rule="evenodd" clip-rule="evenodd" d="M165.263 78.0613C165.263 78.0613 166.501 78.5688 166.85 79.9962C166.85 79.9962 161.866 85.1347 158.597 85.1981L165.263 78.0613Z" fill="#8D9FCA"/>
<path fill-rule="evenodd" clip-rule="evenodd" d="M158.597 85.198L152.152 77.8074C152.152 77.8074 150.819 78.6955 150.851 80.1229C150.851 80.1229 155.835 85.3883 158.597 85.198Z" fill="#8D9FCA"/>
<path fill-rule="evenodd" clip-rule="evenodd" d="M159.739 84.6589C159.739 84.6589 160.66 92.6205 161.581 102.041C160.501 102.136 159.39 102.2 158.279 102.2C157.581 102.2 156.882 102.168 156.216 102.136C156.978 92.6839 157.676 84.6272 157.676 84.6272L159.739 84.6589Z" fill="#8D9FCA"/>
<path fill-rule="evenodd" clip-rule="evenodd" d="M161.041 82.5655C161.041 82.5655 158.057 82.28 156.279 82.4386C155.93 82.4703 155.708 82.8827 155.898 83.1681C156.406 84.088 157.454 85.674 158.533 85.674C160.025 85.674 162.374 82.6606 161.041 82.5655Z" fill="#8D9FCA"/>
</g>
<defs>
<clipPath id="clip0_164_588">
<rect width="385" height="395" fill="white"/>
</clipPath>
</defs>
</svg>
