<svg width="385" height="291" viewBox="0 0 385 291" fill="none" xmlns="http://www.w3.org/2000/svg">
<g clip-path="url(#clip0_164_791)">
<path d="M193.308 272.431C193.308 272.431 189.829 268.761 181.703 272.431C170.098 277.664 152.703 290.808 154.119 290.808C156.53 290.808 195.718 289.221 195.718 289.221L193.308 272.431Z" fill="#464749"/>
<path d="M241.516 272.431L222.904 290.783L239.678 290.808C241.343 284.633 243.529 278.582 246.337 272.63L241.516 272.431Z" fill="#464749"/>
<path d="M253.618 272.977L246.337 272.63C243.529 278.557 241.343 284.633 239.678 290.808L256.774 290.858L253.618 272.977Z" fill="#323338"/>
<path d="M194.351 66.4153C187.12 67.6305 181.081 75.4922 182.125 77.873C185.281 81.5435 193.68 73.9298 193.68 73.9298L194.351 66.4153Z" fill="#8E599B"/>
<path d="M192.363 68.5977C191.717 61.9513 191.046 55.6272 189.481 46.6991C188.611 46.5999 187.518 46.6495 187.17 47.4431C186.996 47.8151 187.07 48.2367 187.145 48.6335C187.667 51.8576 187.741 55.156 187.344 58.4048C184.362 55.4288 181.628 52.2048 179.218 48.7823C177.23 45.9799 176.136 44.8887 174.223 41.9374C173.328 39.879 172.409 40.0526 171.862 40.2262C173.279 45.3103 175.465 50.1711 178.323 54.6104C175.167 50.4191 170.943 45.2359 167.215 41.5406C166.519 41.1438 165.6 41.8878 165.525 42.6815C165.426 43.4751 165.873 44.2439 166.271 44.9135C168.309 48.2863 171.117 52.8992 173.676 55.9C170.52 52.6264 167.389 49.3775 164.233 46.1039C163.463 46.5751 163.189 47.6167 163.388 48.5095C163.562 49.4023 164.109 50.1711 164.631 50.8903C167.066 54.3128 169.501 57.76 171.937 61.1825C169.427 59.992 167.116 58.9256 165.004 57.1152C164.606 56.7928 164.183 56.4456 163.686 56.3216C163.189 56.1976 162.568 56.4208 162.394 56.892C162.195 57.4128 162.568 57.9584 162.941 58.38C166.171 62.3233 170.098 64.3817 174.347 67.1097C176.807 68.6969 179.342 71.1274 182.324 71.425C183.79 74.4754 186.573 77.9722 188.039 81.0227C189.829 77.5506 191.344 73.6818 193.73 70.557L192.363 68.5977Z" fill="#EEA987"/>
<path d="M263.037 90.0748C252.103 104.161 218.754 124.671 218.754 124.671C218.754 124.671 208.615 124.398 207.547 123.084C201.632 115.718 184.809 82.7339 182.1 77.8482C184.784 77.873 188.487 75.7154 191.121 72.7394C192.811 70.8545 194.053 68.6225 194.326 66.4153L219.847 103.913L252.326 60.2896C254.712 59.9672 257.719 61.356 260.378 63.8361C266.267 69.3417 270.591 80.3282 263.037 90.0748Z" fill="#141954"/>
<path d="M260.353 63.8113C259.185 66.5145 257.569 69.5402 255.656 71.2514C251.556 74.9218 219.574 111.8 219.574 111.8V117.008L216.368 113.486L191.146 72.7394C192.835 70.8546 194.078 68.6226 194.351 66.4153L219.847 103.913L250.885 61.5545C253.27 61.2321 257.694 61.3313 260.353 63.8113Z" fill="#141954"/>
<path d="M326.652 188.631L343.078 290.015L339.326 290.709L322.9 189.326L326.652 188.631Z" fill="#212C3D"/>
<path d="M263.931 188.631L280.357 290.015L276.605 290.709L260.179 189.326L263.931 188.631Z" fill="#212C3D"/>
<path d="M225.886 188.631L229.638 189.326L213.212 290.709L209.46 290.015L225.886 188.631Z" fill="#212C3D"/>
<path d="M288.607 188.631L292.359 189.326L275.934 290.709L272.181 290.015L288.607 188.631Z" fill="#212C3D"/>
<path d="M354.733 119.661C354.335 169.411 345.836 189.325 330.032 196.369C328.094 197.237 326.031 197.906 323.844 198.402C277.996 209.091 213.511 195.005 215.797 180.918C218.058 166.832 243.032 177.025 254.389 172.164C265.745 167.303 262.117 115.297 278.891 92.4556C284.681 84.5939 295.515 78.741 307.22 76.757C329.51 72.8882 355.031 83.0067 354.733 119.661Z" fill="#CE4D3C"/>
<path d="M354.733 119.661C354.335 169.411 345.837 189.325 330.032 196.369C334.654 190.987 340.295 182.952 343.103 173.304C348.297 155.448 350.309 111.651 343.103 96.622C337.86 85.7099 324.391 79.0634 307.22 76.757C329.51 72.8882 355.031 83.0067 354.733 119.661Z" fill="#EF6A51"/>
<path d="M298.696 157.06C298.224 158.102 297.727 159.119 297.131 160.111C292.136 168.865 283.289 175.164 273.797 178.835C263.459 182.828 251.705 184.663 240.721 185.581C239.131 185.729 219.599 185.333 218.928 183.795C219.077 184.266 221.313 191.88 221.313 195.749C221.313 199.742 194.898 275.606 194.898 275.606L185.132 275.382L175.764 275.184C175.764 275.184 188.487 164.6 202.104 161.425C215.921 158.176 229.713 154.803 243.504 151.455C254.339 148.851 264.552 146.099 274.964 145.851C281.823 145.677 288.781 146.595 296.037 149.372C297.081 149.769 298.174 150.24 298.845 151.133C300.137 152.795 299.541 155.151 298.696 157.06Z" fill="#003D81"/>
<path d="M297.131 160.111C292.136 168.865 283.289 175.164 273.797 178.835C263.459 182.828 251.705 184.663 240.721 185.581C239.131 185.729 219.599 185.333 218.928 183.795C219.077 184.266 221.313 191.88 221.313 195.749C221.313 199.742 194.898 275.606 194.898 275.606L185.132 275.382L209.46 173.85C209.46 173.85 221.537 171.792 231.353 171.072C240.1 170.452 285.874 162.616 297.131 160.111Z" fill="#002B5B"/>
<path d="M310.649 186.449C290.968 188.978 272.181 191.086 272.181 191.086C272.181 191.086 275.536 199.618 274.89 207.43C273.598 223.128 255.706 273.522 255.706 273.522L249.22 273.398L239.678 273.2C239.678 273.2 247.679 183.745 247.679 181.365C247.679 178.984 294.571 145.255 331.647 148.926C333.387 152.398 334.406 155.771 334.753 158.995C336.493 173.329 325.683 184.539 310.649 186.449Z" fill="#003D81"/>
<path d="M310.649 186.449C290.968 188.978 272.181 191.086 272.181 191.086C272.181 191.086 275.536 199.618 274.89 207.43C273.598 223.128 255.706 273.522 255.706 273.522L249.22 273.398C251.009 266.281 254.066 253.484 256.725 239.645C260.75 218.714 262.167 183.993 262.167 183.993C262.167 183.993 328.118 161.028 334.753 158.995C336.493 173.329 325.683 184.539 310.649 186.449Z" fill="#002B5B"/>
<path d="M328.74 159.466C330.927 159.516 333.113 159.342 335.3 158.871C332.716 145.702 329.783 132.83 327.994 119.463C326.354 107.311 324.267 95.2829 320.241 83.6267C317.905 76.8811 314.873 67.9778 309.754 62.8689C299.79 52.8744 283.811 53.2464 270.889 55.2552C265.497 56.0984 256.749 56.6936 252.351 60.1409C247.406 64.0097 248.102 71.7722 248.102 77.2779C248.102 86.2308 250.562 92.1332 254.289 100.119C257.246 106.418 261.322 111.973 263.931 118.546C267.41 127.35 270.342 136.6 272.43 145.851C272.38 145.627 277.449 148.132 277.996 148.529C280.208 150.191 282.245 152.224 284.333 154.035C285.749 155.275 287.24 156.54 289.005 157.135C291.415 157.978 292.533 156.713 294.67 156.242C297.777 155.523 301.256 155.523 304.412 155.746C312.562 156.292 320.688 159.292 328.74 159.466Z" fill="#5C9AFF"/>
<path d="M251.978 119.017C252.078 119.364 242.063 117.479 241.715 117.405C240.572 117.181 239.429 116.958 238.286 117.008C237.068 117.057 235.876 117.429 234.708 117.826C228.818 119.86 223.227 122.786 218.207 126.506C219.276 128.441 221.786 128.962 223.972 129.185C228.893 129.681 233.838 129.631 238.758 129.606C243.629 129.557 248.971 130.499 253.743 129.978C254.414 126.432 252.898 122.439 251.978 119.017Z" fill="#EEA987"/>
<path d="M300.684 130.549C299.442 130.549 266.814 130.226 253.842 130.078C254.016 127.598 253.544 125.068 252.923 122.613C252.624 121.373 252.252 120.158 251.953 119.017L289.079 111.701C290.148 105.699 289.924 76.6083 293.13 67.0106C294.024 64.3321 295.317 61.6041 297.677 60.0913C299.64 58.8265 302.15 58.5785 304.437 59.2233C304.934 59.3473 305.406 59.5209 305.878 59.7441C306.971 60.2649 307.94 60.9841 308.785 61.8521C309.928 63.0425 310.823 64.4809 311.394 66.0186C311.867 67.2338 312.14 68.4986 312.413 69.7634C316.041 86.1068 306.275 130.549 300.684 130.549Z" fill="#141954"/>
<path d="M228.694 129.755L223.5 91.3148C223.177 88.8347 221.065 86.9995 218.555 86.9995H159.263C157.449 86.9995 156.058 88.6115 156.356 90.3972L162.817 130.499L228.694 129.755Z" fill="#50374B"/>
<path d="M355.901 290.461L361.393 288.576L290.62 135.657L227.501 288.675L233.067 290.362L290.943 150.066L355.901 290.461Z" fill="#33435C"/>
<path d="M332.691 236.123H251.258V241.207H332.691V236.123Z" fill="#33435C"/>
<path d="M160.307 290.461L165.799 288.576L95.0261 135.657L31.9073 288.675L37.4737 290.362L95.3492 150.066L160.307 290.461Z" fill="#33435C"/>
<path d="M137.097 236.123H55.6638V241.207H137.097V236.123Z" fill="#33435C"/>
<path d="M21.2675 153.78L363.724 153.78V142.943L21.2675 142.943V153.78Z" fill="#33435C"/>
<path d="M21.2675 146.649L363.724 146.649V139.085L21.2675 139.085V146.649Z" fill="#33435C"/>
<path d="M0.521849 142.874H384.478C384.751 142.874 385 142.651 385 142.354V130.673C385 130.4 384.776 130.152 384.478 130.152H0.521849C0.248499 130.152 0 130.375 0 130.673V142.354C0 142.626 0.223649 142.874 0.521849 142.874Z" fill="#FCF6F0"/>
<path d="M89.8822 60.5375C89.4598 61.1079 88.9876 61.7031 88.3415 62.0255C88.1924 62.0751 88.0682 62.1495 87.9439 62.1743H87.9191C87.4966 62.2983 87.0493 62.3231 86.6269 62.3231C84.1916 62.4223 81.7066 62.5215 79.4204 61.6783C77.9294 61.1327 76.6124 60.2151 75.4196 59.1983C74.7486 58.6279 74.1274 58.0079 73.531 57.4127C69.5301 53.4198 63.6656 48.4102 62.0752 42.8797C60.4102 37.1756 61.3048 30.8268 62.771 25.1723C66.0015 12.921 76.9851 6.8201 88.764 12.2514C92.9139 14.161 95.8711 16.6906 96.8651 20.8819C97.0142 21.4027 97.0887 21.9731 97.1633 22.5683C98.4306 34.8692 97.4118 50.0718 89.8822 60.5375Z" fill="#F4AE7C"/>
<path d="M95.2995 20.3115C95.1753 20.6835 95.0013 21.0307 94.8522 21.3779C92.2181 27.0075 90.3047 33.158 90.3544 39.4325C90.4041 45.4341 89.2113 51.1382 88.59 57.1399C88.4161 58.7767 88.2421 60.4879 87.9191 62.1743C87.4966 62.2983 87.0493 62.3231 86.6269 62.3231C84.1916 62.4223 81.7066 62.5215 79.4204 61.6783C77.9294 61.1327 76.6124 60.2151 75.4196 59.1983C74.7486 58.6279 74.1274 58.0079 73.531 57.4127C69.5301 53.4198 63.6656 48.4102 62.0752 42.8797C60.4102 37.1756 61.3048 30.8268 62.771 25.1723C66.0015 12.921 76.9851 6.8201 88.764 12.2514C91.5223 13.5162 93.8334 15.401 95.3492 18.0298C95.6971 18.6994 95.5729 19.5178 95.2995 20.3115Z" fill="#CF9369"/>
<path d="M66.3245 45.5085C67.0451 51.6838 64.2122 58.4543 65.2808 58.1071C66.3245 57.7599 82.8 60.5623 82.8 60.5623L83.1479 48.311L66.3245 45.5085Z" fill="#CF9369"/>
<path d="M162.345 275.184C168.01 280.516 174.024 285.451 179.864 290.238C187.642 290.535 194.376 290.783 195.32 290.783C197.159 290.783 173.875 280.317 162.345 275.184Z" fill="#464749"/>
<path d="M156.132 272.431L153.722 289.196C153.722 289.196 168.01 289.766 179.864 290.238C174.024 285.451 168.01 280.516 162.345 275.184C158.642 273.522 156.132 272.431 156.132 272.431Z" fill="#323338"/>
<path d="M166.196 275.655L154.517 275.63C154.517 275.63 128.101 199.766 128.101 195.773C128.101 191.781 130.512 183.795 130.512 183.795C130.512 183.795 79.0477 189.499 68.3622 188.631C63.914 188.284 59.4908 184.043 55.9869 177.768C51.0915 169.014 47.9604 156.291 48.8798 144.66C50.4702 124.696 74.5001 143.866 74.5001 143.866C74.5001 143.866 133.718 158.251 147.31 161.45C160.928 164.599 166.196 275.655 166.196 275.655Z" fill="#3479C7"/>
<path d="M161.649 276.002L154.517 275.63C154.517 275.63 128.101 199.766 128.101 195.773C128.101 191.781 130.512 183.795 130.512 183.795C130.512 183.795 79.0477 189.499 68.3622 188.631C63.9141 188.284 59.4908 184.043 55.9869 177.768C64.3117 167.898 88.7391 153.96 88.7391 153.96C89.7828 153.96 136.401 169.708 142.365 171.444C147.708 172.982 160.382 257.799 161.649 276.002Z" fill="#1C599D"/>
<path d="M105.115 267.645L104.618 267.694C106.929 275.035 110.557 282.425 111.974 290.461L125.119 290.808L105.115 267.645Z" fill="#464749"/>
<path d="M98.7288 268.438L93.9327 289.99L111.999 290.461C110.582 282.45 106.954 275.06 104.643 267.694L98.7288 268.438Z" fill="#323338"/>
<path d="M109.712 273.225C109.712 273.225 101.711 183.77 101.711 181.389C101.711 180.571 96.865 177.52 90.4537 173.85C98.1075 206.661 100.245 240.389 107.749 273.225H109.712Z" fill="#3479C7"/>
<path d="M90.4786 173.85C78.1531 166.782 60.112 157.432 60.112 157.432C60.112 157.432 34.5166 129.482 21.694 146.247C8.89629 163.012 9.69149 178.984 30.3418 188.631C50.9921 198.253 73.7298 186.994 73.7298 186.994C73.7298 186.994 68.1385 192.574 76.1402 206.165C84.1419 219.73 97.8839 273.225 97.8839 273.225L107.774 273.249C100.269 240.389 98.1076 206.661 90.4786 173.85Z" fill="#1C599D"/>
<path d="M16.898 158.027C15.9785 145.702 19.8303 131.615 21.4455 119.463C24.0548 100.168 26.0179 82.2377 34.4669 64.3319C35.1378 62.9183 35.8336 61.5047 37.0016 60.4383C38.3435 59.1983 40.1824 58.6031 41.9467 58.0823C60.112 52.7998 77.5815 51.9814 95.722 57.3383C119.155 64.2575 74.4256 166.459 74.4256 166.459C74.4256 166.459 19.0351 186.449 16.898 158.027Z" fill="#C8D4FF"/>
<path d="M90.8514 66.6631C84.5395 61.9511 79.2961 59.3222 65.2559 58.0822C51.2406 56.867 40.903 62.9679 40.903 62.9679L30.5654 84.6433L31.0873 141.486L66.4736 142.354L88.1924 93.5714L90.8514 66.6631Z" fill="#ACBEFF"/>
<path d="M136.252 124.15C135.929 126.581 135.084 128.887 133.817 130.97C126.213 130.921 120.746 130.747 120.1 130.35C117.689 128.887 91.2987 98.0355 80.8866 86.305C75.0468 79.7329 78.7743 69.912 84.5643 63.8607C89.1119 59.0991 94.9516 56.6438 98.4803 59.8679C111.303 71.6232 126.486 114.924 126.486 114.924L135.755 117.355C136.426 119.661 136.575 121.943 136.252 124.15Z" fill="#ACBEFF"/>
<path d="M179.342 122.985C172.135 122.241 165.749 125.192 165.749 125.192L135.805 117.355C137.172 122.241 136.252 127.002 133.842 130.97C154.07 131.119 189.058 131.045 190.798 131.045C189.754 127.97 186.548 123.729 179.342 122.985Z" fill="#F99381"/>
<path d="M30.3418 188.631L13.916 290.015L17.6684 290.709L34.0942 189.325L30.3418 188.631Z" fill="#212C3D"/>
<path d="M93.0631 188.631L76.6373 290.015L80.3896 290.709L96.8154 189.325L93.0631 188.631Z" fill="#212C3D"/>
<path d="M131.108 188.631L127.356 189.325L143.782 290.709L147.534 290.015L131.108 188.631Z" fill="#212C3D"/>
<path d="M68.387 188.631L64.6347 189.325L81.0605 290.709L84.8128 290.015L68.387 188.631Z" fill="#212C3D"/>
<path d="M141.247 182.084C139.93 195.773 77.7555 208.794 33.1498 198.402C13.3693 193.789 2.73352 175.561 2.26137 119.661C2.16197 105.823 5.71551 95.7787 11.3813 88.8346C28.6271 67.7048 65.4547 75.2441 78.1034 92.4554C94.9019 115.297 91.2738 167.303 102.63 172.164C113.987 177.024 138.961 166.831 141.222 180.918C141.272 181.29 141.272 181.687 141.247 182.084Z" fill="#EF6A51"/>
<path d="M141.247 182.084C139.93 195.773 77.7555 208.794 33.1498 198.402C13.3693 193.789 2.73352 175.561 2.26137 119.661C2.16197 105.823 5.71551 95.7787 11.3813 88.8346C19.0599 84.073 28.0059 81.345 37.0264 81.5186C50.9424 81.7914 64.7589 89.281 71.6672 101.334C75.1462 107.41 76.8609 114.329 78.5258 121.149C82.0793 135.782 85.6577 150.414 89.2113 165.046C89.9568 168.196 90.7768 171.42 92.6406 174.073C96.6414 179.777 104.444 181.364 111.402 180.968C118.36 180.571 125.244 178.661 132.202 179.232C135.308 179.504 138.514 180.472 141.247 182.084Z" fill="#CE4D3C"/>
<path d="M99.0519 25.9412C99.0767 24.2299 98.8531 22.4443 98.207 20.8819C95.6474 25.4203 90.4041 28.446 91.2241 34.274C91.3235 35.0677 91.5223 35.8861 91.2738 36.6797C91.0253 37.4485 90.1556 38.1181 89.4349 37.7709C89.9319 35.2165 89.0125 32.3644 87.7948 30.1324C83.6946 32.7364 84.8874 36.5061 83.9183 40.3997C82.7752 45.1118 80.0168 49.8486 75.2953 51.6094C73.8292 52.155 72.2139 52.2047 70.6484 52.2295C69.4307 52.2295 68.1882 52.1798 67.0948 51.659C63.4171 49.8982 61.7521 42.7309 61.0315 39.1597C60.609 37.0517 60.2363 34.9437 59.9878 32.786C59.4162 28.2228 59.2671 23.6099 59.9629 19.0715C60.286 17.0379 60.6339 14.905 61.8764 13.2682C63.1189 11.6066 65.5044 10.6394 67.2936 11.6562C67.2936 11.6314 67.2936 11.6314 67.2936 11.6066C67.3433 9.07696 69.1077 6.91934 71.5678 6.32413C76.3639 5.18332 81.3339 4.78652 86.105 5.90253C90.6526 6.96894 96.9645 10.7882 99.8968 15.2522C100.369 15.9466 100.742 16.6906 101.04 17.4099C101.114 17.6579 101.214 17.9059 101.288 18.1291C101.959 20.9315 101.214 24.0811 99.0519 25.9412Z" fill="#0F3970"/>
<path d="M136.252 124.15C133.593 123.952 126.238 123.158 126.238 123.158V120.703L121.342 123.158L123.107 118.62C123.107 118.62 102.084 77.3521 95.4238 70.3584C92.243 67.0104 89.0622 64.1583 85.608 63.0175C90.1556 58.2559 95.0013 56.6686 98.53 59.8927C111.353 71.648 126.536 114.949 126.536 114.949L135.805 117.38C136.426 119.661 136.575 121.943 136.252 124.15Z" fill="#C8D4FF"/>
<path d="M281.351 71.7472L278.642 77.6993L287.315 112.048L277.3 114.032L275.089 78.5177L270.665 72.4168L273.324 68.9944L276.381 69.3168L281.351 71.7472Z" fill="#FFAD40"/>
<path d="M244.101 17.7572C246.387 12.0779 258.439 14.1611 258.439 14.1611L256.923 35.1174L247.182 37.0518C247.207 37.027 240.249 27.4293 244.101 17.7572Z" fill="#1A1C1B"/>
<path d="M263.36 45.1862L277.673 40.7222C277.673 40.7222 277.847 49.1047 284.109 54.6103C286.172 56.4207 283.24 65.944 280.456 68.4241C277.946 70.6809 274.567 71.6481 271.237 71.0777C268.106 70.5321 264.851 63.464 265.025 62.5464C268.081 53.6679 263.36 45.1862 263.36 45.1862Z" fill="#EEA987"/>
<path d="M263.385 45.1862C263.385 45.1862 265.547 51.8327 266.044 58.5784C269.523 57.76 274.07 55.5031 279.14 47.2942C277.996 44.0206 277.698 40.7222 277.698 40.7222L263.385 45.1862Z" fill="#CF8C6B"/>
<path d="M247.282 19.2453C250.984 8.33318 270.218 5.53075 278.518 13.4668C286.818 21.4029 282.743 36.5807 279.661 42.1112C274.095 52.1057 260.005 55.6521 253.768 50.1217C247.505 44.5664 243.554 30.1574 247.282 19.2453Z" fill="#EEA987"/>
<path d="M245.915 26.561C246.064 24.0314 246.486 21.5514 247.282 19.2202C250.984 8.30803 270.218 5.5056 278.518 13.4417C282.295 17.0377 283.488 22.1466 283.414 27.1314C282.096 28.2227 280.605 29.0907 278.916 29.8843C278.891 29.8843 270.019 24.9738 266.342 17.9553C266.342 17.9801 254.911 25.7922 245.915 26.561Z" fill="#CF8C6B"/>
<path d="M280.456 5.67931C276.157 2.80247 270.144 0.744051 265.72 6.42331C262.117 11.061 273.15 27.2803 276.083 29.3884C280.108 32.29 281.376 42.1109 282.196 37.4981C284.084 26.8835 292.981 15.0786 280.456 5.67931Z" fill="#252725"/>
<path d="M236.894 20.2123C235.876 15.649 242.212 6.64653 250.289 2.50489C261.372 -3.19918 268.752 2.15768 269.945 4.96011C271.138 7.76255 272.156 13.0946 253.966 21.1299C250.413 22.7171 246.213 23.9323 246.213 23.9323C246.213 23.9323 237.342 22.3203 236.894 20.2123Z" fill="#252725"/>
<path d="M257.868 0.0994662C255.606 0.347469 253.072 1.09148 250.289 2.52989C242.212 6.67154 235.876 15.674 236.894 20.2373C236.969 20.5597 237.491 20.8573 237.913 21.1549C245.294 4.78672 259.309 2.00909 265.869 1.61228C263.807 0.545871 261.247 -0.272538 257.868 0.0994662Z" fill="#474A46"/>
<path d="M278.12 34.9686C277.822 31.8685 280.108 29.1157 283.24 28.8181C286.346 28.5205 289.129 30.8021 289.427 33.8774C289.725 36.9774 287.439 39.7302 284.308 40.0278C281.177 40.3254 278.419 38.0438 278.12 34.9686Z" fill="#EEA987"/>
<path d="M274.815 26.3132C274.815 26.3132 272.803 37.7214 270.715 41.0694C268.628 44.4174 263.757 40.3502 259.806 40.5486C255.855 40.747 249.692 44.9878 249.816 45.1862C249.941 45.3846 254.786 55.8008 265.646 52.5767C275.561 49.6255 276.903 45.7567 277.077 44.1694C277.251 42.5822 276.803 31.3477 277.773 28.9917C278.742 26.6356 274.815 26.3132 274.815 26.3132Z" fill="#252725"/>
<path d="M261.62 42.8551C260.701 42.1607 256.874 43.1279 254.687 44.2191C252.5 45.3103 255.184 50.1712 259.408 49.5759C261.57 49.2535 263.583 44.3679 261.62 42.8551Z" fill="#FD9D81"/>
<path d="M282.842 54.1143L276.381 69.3168L284.383 73.2105L287.837 54.2135L282.842 54.1143Z" fill="#141954"/>
<path d="M273.324 68.9944L265.646 56.9911L263.832 59.5703C263.832 59.5703 269.025 74.6985 269.15 74.4505C269.224 74.2273 273.324 68.9944 273.324 68.9944Z" fill="#141954"/>
</g>
<defs>
<clipPath id="clip0_164_791">
<rect width="385" height="290.858" fill="white"/>
</clipPath>
</defs>
</svg>
