<svg viewBox="0 0 501 186" fill="none" xmlns="http://www.w3.org/2000/svg">
<rect x="1" y="1" width="183.386" height="183.386" rx="24" fill="url(#paint0_linear_159_505)"/>
<rect x="0.5" y="0.5" width="184.386" height="184.386" rx="24.5" stroke="#0E317A" stroke-opacity="0.3"/>
<path fill-rule="evenodd" clip-rule="evenodd" d="M113.29 41.1368H132.454L133.076 114.475H113.29V118.529H133.11L133.179 126.636H113.29V130.69H133.191V128.118L133.375 149.854H113.29V41.1368Z" fill="#0F6FBB"/>
<path fill-rule="evenodd" clip-rule="evenodd" d="M92.6527 34.503H113.291L113.291 52.5615L92.6527 54.7727V58.8266L113.291 56.6154L113.291 136.587L92.6527 138.798V142.852L113.291 140.641L113.291 149.854H92.6527V34.503Z" fill="#E82F2A"/>
<path fill-rule="evenodd" clip-rule="evenodd" d="M73.673 45.1908L92.8368 51.2715L77.5409 116.132L58.7884 108.779L73.673 45.1908ZM57.8418 112.822L76.5878 120.174L73.2841 134.183L54.5998 126.673L57.8418 112.822ZM53.6532 130.716L49.9027 146.739L69.3736 150.765L72.3311 138.224L53.6532 130.716Z" fill="#FDCF31"/>
<path d="M232.848 82.1708L249.142 39.3607H261.408L277.522 82.1708H265.016L253.05 45.7943H257.38L245.114 82.1708H232.848ZM243.43 74.9556V65.5759H267.361V74.9556H243.43Z" fill="#141622"/>
<path d="M286.966 82.1708V39.3607H295.384L298.991 48.3797V82.1708H286.966ZM316.428 82.1708L291.596 50.9651L295.384 39.3607L320.216 70.5664L316.428 82.1708ZM316.428 82.1708L313.422 72.6708V39.3607H325.447V82.1708H316.428Z" fill="#141622"/>
<path d="M335.357 82.1708L351.651 39.3607H363.917L380.031 82.1708H367.524L355.559 45.7943H359.888L347.622 82.1708H335.357ZM345.939 74.9556V65.5759H369.869V74.9556H345.939Z" fill="#141622"/>
<path d="M399.215 67.1392V58.481H406.972C407.893 58.481 408.735 58.3006 409.497 57.9398C410.299 57.539 410.94 56.9577 411.421 56.1961C411.902 55.3945 412.142 54.4124 412.142 53.2499C412.142 52.0875 411.902 51.1255 411.421 50.3639C410.94 49.5622 410.299 48.981 409.497 48.6202C408.735 48.2194 407.893 48.0189 406.972 48.0189H399.215V39.3607H409.316C412.082 39.3607 414.567 39.9219 416.772 41.0443C419.017 42.1265 420.781 43.7099 422.063 45.7943C423.386 47.8386 424.047 50.3238 424.047 53.2499C424.047 56.136 423.386 58.6213 422.063 60.7056C420.781 62.79 419.017 64.3934 416.772 65.5158C414.567 66.598 412.082 67.1392 409.316 67.1392H399.215ZM389.475 82.1708V39.3607H401.5V82.1708H389.475Z" fill="#141622"/>
<path d="M434.358 82.1708V39.3607H446.384V82.1708H434.358Z" fill="#141622"/>
<path d="M456.326 82.1708L472.62 39.3607H484.886L501 82.1708H488.494L476.529 45.7943H480.858L468.592 82.1708H456.326ZM466.908 74.9556V65.5759H490.839V74.9556H466.908Z" fill="#141622"/>
<path d="M249.683 146.025C240.544 146.025 235.073 139.772 235.073 129.37C235.073 118.547 240.724 112.595 249.683 112.595C258.823 112.595 264.294 118.968 264.294 129.37C264.294 140.133 258.642 146.025 249.683 146.025ZM249.683 141.456C255.636 141.456 258.883 137.187 258.883 129.37C258.883 121.614 255.576 117.164 249.683 117.164C243.731 117.164 240.484 121.494 240.484 129.37C240.484 137.066 243.791 141.456 249.683 141.456Z" fill="#141622"/>
<path d="M273.509 145.304V113.376H278.801V118.307C280.965 114.399 284.392 112.595 288.24 112.595C289.503 112.595 290.645 112.895 291.247 113.376V118.126C290.345 117.826 289.202 117.706 287.94 117.706C281.566 117.706 278.801 121.674 278.801 127.446V145.304H273.509Z" fill="#141622"/>
<path d="M298.344 109.107V102.013H303.636V109.107H298.344ZM298.344 145.304V113.376H303.636V145.304H298.344Z" fill="#141622"/>
<path d="M342.029 134.902C340.285 142.357 334.934 146.025 327.659 146.025C318.399 146.025 312.807 139.772 312.807 129.37C312.807 118.547 318.399 112.595 327.358 112.595C336.377 112.595 341.788 118.788 341.788 128.949V130.272H318.219C318.519 137.427 321.886 141.456 327.659 141.456C332.168 141.456 335.355 139.291 336.497 134.902H342.029ZM327.358 117.164C322.247 117.164 319.181 120.351 318.399 126.304H336.257C335.535 120.411 332.348 117.164 327.358 117.164Z" fill="#141622"/>
<path d="M351.244 145.304V113.376H356.535V117.706C358.7 114.339 362.187 112.595 366.396 112.595C373.19 112.595 377.219 116.563 377.219 123.959V145.304H371.928V125.041C371.928 120.231 369.763 117.104 364.953 117.104C359.662 117.104 356.535 121.854 356.535 126.424V145.304H351.244Z" fill="#141622"/>
<path d="M388.779 136.104V117.585H384.33V113.376H388.779V106.041H394.07V113.376H401.105V117.585H394.07V136.104C394.07 139.952 395.213 141.756 399.902 141.756H400.985V145.544C400.383 145.845 399.061 146.025 397.557 146.025C391.605 146.025 388.779 142.838 388.779 136.104Z" fill="#141622"/>
<path d="M413.418 123.778H408.127C409.149 116.744 413.778 112.595 421.595 112.595C430.133 112.595 434.282 117.585 434.282 125.041V137.607C434.282 141.275 434.582 143.56 435.424 145.304H429.832C429.231 144.041 429.051 142.177 428.99 140.253C426.285 144.282 421.956 146.025 418.108 146.025C411.494 146.025 407.044 142.959 407.044 136.886C407.044 132.497 409.449 129.31 414.139 127.747C418.468 126.304 422.858 125.943 428.99 125.883V125.161C428.99 119.99 426.585 117.164 421.114 117.164C416.544 117.164 414.079 119.69 413.418 123.778ZM412.456 136.766C412.456 139.712 414.921 141.456 418.649 141.456C424.541 141.456 428.99 136.826 428.99 131.354V129.851C415.402 129.971 412.456 132.857 412.456 136.766Z" fill="#141622"/>
<defs>
<linearGradient id="paint0_linear_159_505" x1="5.50949" y1="5.50949" x2="169.354" y2="184.386" gradientUnits="userSpaceOnUse">
<stop stop-color="#0A52A3"/>
<stop offset="1" stop-color="#00133C"/>
</linearGradient>
</defs>
</svg>
