<svg width="462" height="226" viewBox="0 0 462 226" fill="none" xmlns="http://www.w3.org/2000/svg">
<path d="M453.646 225.354C453.842 225.549 454.158 225.549 454.354 225.354L457.536 222.172C457.731 221.976 457.731 221.66 457.536 221.464C457.34 221.269 457.024 221.269 456.828 221.464L454 224.293L451.172 221.464C450.976 221.269 450.66 221.269 450.464 221.464C450.269 221.66 450.269 221.976 450.464 222.172L453.646 225.354ZM3.74264 3.16079C4.01875 3.15656 4.23914 2.92929 4.23491 2.65318C4.23068 2.37707 4.00341 2.15667 3.7273 2.16091L3.74264 3.16079ZM11.6546 1.97631C11.3786 1.98421 11.1612 2.21438 11.1691 2.4904C11.177 2.76643 11.4072 2.9838 11.6832 2.9759L11.6546 1.97631ZM19.6251 2.73083C19.9011 2.72195 20.1176 2.49101 20.1087 2.21501C20.0999 1.93901 19.8689 1.72247 19.5929 1.73135L19.6251 2.73083ZM27.6153 1.47306C27.3393 1.48183 27.1227 1.71268 27.1315 1.98868C27.1402 2.26468 27.3711 2.48132 27.6471 2.47255L27.6153 1.47306ZM35.5286 2.23077C35.8046 2.22267 36.0218 1.99234 36.0137 1.71632C36.0056 1.44029 35.7753 1.2231 35.4993 1.2312L35.5286 2.23077ZM43.3769 1.01379C43.1009 1.02088 42.8828 1.25042 42.8899 1.52647C42.897 1.80252 43.1266 2.02055 43.4026 2.01346L43.3769 1.01379ZM51.4749 1.82404C51.7509 1.81821 51.97 1.58968 51.9642 1.3136C51.9584 1.03752 51.7298 0.818434 51.4538 0.824264L51.4749 1.82404ZM59.2337 0.679148C58.9576 0.683595 58.7374 0.911028 58.7418 1.18714C58.7463 1.46324 58.9737 1.68347 59.2498 1.67902L59.2337 0.679148ZM67.2702 1.57219C67.5463 1.5693 67.7678 1.34312 67.7649 1.06699C67.762 0.790862 67.5358 0.569358 67.2597 0.572246L67.2702 1.57219ZM75.1003 0.513166C74.8242 0.514423 74.6013 0.739297 74.6026 1.01544C74.6038 1.29158 74.8287 1.51441 75.1049 1.51316L75.1003 0.513166ZM83.109 1.50207C83.3852 1.50258 83.6094 1.27913 83.6099 1.00299C83.6105 0.726848 83.387 0.502579 83.1109 0.502072L83.109 1.50207ZM90.9623 0.542113C90.6862 0.53979 90.4605 0.761756 90.4582 1.03789C90.4558 1.31402 90.6778 1.53975 90.9539 1.54208L90.9623 0.542113ZM98.9669 1.63741C99.243 1.64167 99.4703 1.4213 99.4746 1.14519C99.4789 0.869079 99.2585 0.641794 98.9824 0.637533L98.9669 1.63741ZM106.823 0.786386C106.547 0.780151 106.318 0.998897 106.312 1.27497C106.305 1.55104 106.524 1.7799 106.8 1.78613L106.823 0.786386ZM114.795 1.99684C115.071 2.00517 115.302 1.78817 115.31 1.51215C115.318 1.23613 115.101 1.00563 114.825 0.997298L114.795 1.99684ZM122.685 1.2647C122.409 1.25424 122.177 1.46945 122.166 1.7454C122.156 2.02134 122.371 2.25352 122.647 2.26398L122.685 1.2647ZM130.588 2.59719C130.864 2.6099 131.098 2.39657 131.111 2.12072C131.123 1.84487 130.91 1.61096 130.634 1.59825L130.588 2.59719ZM138.547 1.99565C138.271 1.98064 138.035 2.192 138.02 2.46773C138.005 2.74346 138.217 2.97916 138.492 2.99418L138.547 1.99565ZM146.387 3.45819C146.662 3.47559 146.9 3.26629 146.917 2.9907C146.935 2.7151 146.725 2.47758 146.45 2.46017L146.387 3.45819ZM154.401 2.99834C154.126 2.97844 153.886 3.18558 153.866 3.46101C153.846 3.73643 154.054 3.97584 154.329 3.99574L154.401 2.99834ZM162.185 4.59991C162.46 4.62237 162.701 4.41746 162.724 4.14224C162.746 3.86701 162.541 3.62569 162.266 3.60322L162.185 4.59991ZM170.198 4.28925C169.923 4.26411 169.68 4.46665 169.655 4.74165C169.63 5.01664 169.832 5.25995 170.107 5.28509L170.198 4.28925ZM177.971 6.04355C178.246 6.07145 178.491 5.87135 178.519 5.59662C178.547 5.32189 178.347 5.07656 178.072 5.04867L177.971 6.04355ZM185.956 5.89065C185.681 5.85988 185.434 6.0574 185.403 6.33182C185.372 6.60625 185.57 6.85365 185.844 6.88442L185.956 5.89065ZM193.728 7.8115C194.002 7.84525 194.251 7.65043 194.285 7.37636C194.319 7.10229 194.124 6.85275 193.85 6.81899L193.728 7.8115ZM201.696 7.82982C201.422 7.79299 201.171 7.98498 201.134 8.25866C201.097 8.53233 201.289 8.78405 201.563 8.82089L201.696 7.82982ZM209.419 9.9251C209.692 9.96515 209.946 9.77613 209.986 9.50291C210.026 9.22969 209.837 8.97573 209.564 8.93567L209.419 9.9251ZM217.397 10.1327C217.124 10.0893 216.868 10.2752 216.824 10.5479C216.781 10.8206 216.967 11.0769 217.24 11.1203L217.397 10.1327ZM225.049 12.4136C225.321 12.4604 225.58 12.2778 225.627 12.0057C225.674 11.7335 225.491 11.4749 225.219 11.4281L225.049 12.4136ZM233.033 12.827C232.762 12.7765 232.501 12.9557 232.45 13.2272C232.4 13.4987 232.579 13.7597 232.85 13.8102L233.033 12.827ZM240.62 15.3103C240.891 15.3646 241.154 15.189 241.208 14.9183C241.262 14.6475 241.087 14.3841 240.816 14.3298L240.62 15.3103ZM248.581 15.9437C248.311 15.8855 248.045 16.0572 247.987 16.3271C247.929 16.5971 248.101 16.8631 248.37 16.9212L248.581 15.9437ZM256.1 18.6477C256.369 18.71 256.637 18.5424 256.7 18.2733C256.762 18.0043 256.594 17.7357 256.325 17.6735L256.1 18.6477ZM264.039 19.5226C263.771 19.456 263.499 19.6194 263.433 19.8874C263.366 20.1554 263.53 20.4266 263.798 20.4931L264.039 19.5226ZM271.457 22.4612C271.723 22.5322 271.997 22.3734 272.068 22.1065C272.139 21.8396 271.98 21.5658 271.714 21.4948L271.457 22.4612ZM279.373 23.6029C279.108 23.5273 278.831 23.6813 278.756 23.9469C278.68 24.2125 278.834 24.4891 279.1 24.5647L279.373 23.6029ZM286.684 26.7985C286.948 26.879 287.228 26.7301 287.308 26.4659C287.388 26.2017 287.24 25.9224 286.975 25.8419L286.684 26.7985ZM294.546 28.2267C294.283 28.1412 294.001 28.2847 293.915 28.5473C293.83 28.8099 293.973 29.0921 294.236 29.1776L294.546 28.2267ZM301.741 31.7054C302.001 31.7962 302.286 31.6584 302.377 31.3976C302.468 31.1368 302.33 30.8518 302.069 30.761L301.741 31.7054ZM309.512 33.4406C309.253 33.3443 308.965 33.476 308.869 33.7348C308.773 33.9936 308.905 34.2815 309.163 34.3778L309.512 33.4406ZM316.572 37.2288C316.828 37.3309 317.119 37.2057 317.221 36.9491C317.323 36.6925 317.198 36.4018 316.941 36.2997L316.572 37.2288ZM324.269 39.3144C324.015 39.2063 323.721 39.3247 323.613 39.5788C323.505 39.8329 323.623 40.1265 323.877 40.2346L324.269 39.3144ZM331.121 43.4213C331.372 43.5357 331.669 43.4246 331.783 43.1732C331.897 42.9219 331.786 42.6254 331.535 42.5111L331.121 43.4213ZM338.722 45.8938C338.474 45.7729 338.175 45.8762 338.054 46.1245C337.933 46.3728 338.036 46.6721 338.285 46.7929L338.722 45.8938ZM345.324 50.3391C345.569 50.4667 345.871 50.3716 345.999 50.1268C346.126 49.8819 346.031 49.5799 345.786 49.4523L345.324 50.3391ZM352.795 53.2347C352.554 53.1 352.25 53.1863 352.115 53.4273C351.98 53.6684 352.067 53.973 352.308 54.1077L352.795 53.2347ZM359.138 58.0599C359.375 58.2018 359.682 58.1249 359.824 57.888C359.966 57.6511 359.889 57.344 359.652 57.2021L359.138 58.0599ZM366.402 61.3943C366.169 61.2448 365.86 61.3119 365.711 61.5441C365.561 61.7763 365.628 62.0857 365.86 62.2351L366.402 61.3943ZM372.437 66.6253C372.664 66.7824 372.975 66.7258 373.133 66.4988C373.29 66.2718 373.233 65.9603 373.006 65.8031L372.437 66.6253ZM379.442 70.4274C379.221 70.2623 378.907 70.3079 378.742 70.5293C378.577 70.7507 378.623 71.0639 378.844 71.229L379.442 70.4274ZM385.102 76.077C385.317 76.2502 385.632 76.2162 385.805 76.0011C385.978 75.7859 385.944 75.4712 385.729 75.298L385.102 76.077ZM391.808 80.385C391.599 80.2037 391.284 80.2256 391.102 80.4339C390.921 80.6422 390.943 80.958 391.151 81.1393L391.808 80.385ZM397.011 86.4481C397.212 86.6376 397.528 86.6283 397.718 86.4275C397.907 86.2266 397.898 85.9102 397.697 85.7207L397.011 86.4481ZM403.36 91.2879C403.167 91.0902 402.85 91.0863 402.652 91.2791C402.455 91.4719 402.451 91.7885 402.644 91.9862L403.36 91.2879ZM408.033 97.752C408.217 97.9578 408.533 97.9753 408.739 97.7911C408.945 97.6069 408.962 97.2908 408.778 97.0851L408.033 97.752ZM413.944 103.117C413.769 102.903 413.454 102.872 413.24 103.047C413.026 103.222 412.995 103.537 413.17 103.75L413.944 103.117ZM418.039 109.977C418.204 110.199 418.518 110.244 418.739 110.079C418.96 109.914 419.006 109.601 418.841 109.379L418.039 109.977ZM423.431 115.834C423.277 115.605 422.966 115.546 422.737 115.7C422.508 115.855 422.449 116.166 422.603 116.395L423.431 115.834ZM426.894 123.056C427.038 123.292 427.345 123.366 427.581 123.222C427.817 123.078 427.891 122.77 427.747 122.534L426.894 123.056ZM431.715 129.373C431.582 129.131 431.278 129.043 431.036 129.176C430.794 129.309 430.706 129.613 430.839 129.855L431.715 129.373ZM434.485 136.868C434.607 137.116 434.906 137.218 435.154 137.096C435.402 136.975 435.505 136.675 435.383 136.427L434.485 136.868ZM438.722 143.647C438.612 143.394 438.318 143.278 438.064 143.388C437.811 143.498 437.695 143.792 437.805 144.046L438.722 143.647ZM440.773 151.315C440.872 151.573 441.161 151.702 441.419 151.603C441.677 151.505 441.806 151.216 441.708 150.958L440.773 151.315ZM444.402 158.509C444.315 158.247 444.032 158.105 443.77 158.192C443.508 158.279 443.366 158.562 443.453 158.824L444.402 158.509ZM445.754 166.294C445.829 166.56 446.106 166.714 446.372 166.638C446.637 166.562 446.791 166.286 446.716 166.02L445.754 166.294ZM448.731 173.707C448.666 173.438 448.396 173.273 448.128 173.337C447.859 173.402 447.694 173.672 447.758 173.94L448.731 173.707ZM449.457 181.723C449.511 181.994 449.773 182.171 450.044 182.117C450.315 182.064 450.492 181.801 450.438 181.53L449.457 181.723ZM451.803 189.24C451.76 188.967 451.504 188.781 451.232 188.824C450.959 188.867 450.773 189.123 450.815 189.396L451.803 189.24ZM451.904 197.28C451.936 197.554 452.185 197.75 452.459 197.718C452.733 197.685 452.929 197.436 452.897 197.162L451.904 197.28ZM453.693 205.069C453.67 204.794 453.429 204.59 453.154 204.612C452.878 204.635 452.674 204.877 452.697 205.152L453.693 205.069ZM453.209 212.945C453.222 213.221 453.457 213.433 453.733 213.42C454.008 213.406 454.221 213.172 454.208 212.896L453.209 212.945ZM454.467 220.916C454.463 220.64 454.235 220.42 453.959 220.424C453.683 220.429 453.463 220.656 453.467 220.932L454.467 220.916ZM0 3.19267C1.14789 3.19267 2.39683 3.18143 3.74264 3.16079L3.7273 2.16091C2.38523 2.18149 1.14156 2.19267 0 2.19267V3.19267ZM11.6832 2.9759C14.1397 2.90561 16.7913 2.82199 19.6251 2.73083L19.5929 1.73135C16.7594 1.82251 14.1093 1.90608 11.6546 1.97631L11.6832 2.9759ZM27.6471 2.47255C30.1667 2.39251 32.796 2.31093 35.5286 2.23077L35.4993 1.2312C32.7656 1.3114 30.1355 1.393 27.6153 1.47306L27.6471 2.47255ZM43.4026 2.01346C46.0168 1.94628 48.709 1.88244 51.4749 1.82404L51.4538 0.824264C48.6863 0.882697 45.9924 0.946579 43.3769 1.01379L43.4026 2.01346ZM59.2498 1.67902C61.8678 1.63685 64.5423 1.60072 67.2702 1.57219L67.2597 0.572246C64.5299 0.600799 61.8534 0.636955 59.2337 0.679148L59.2498 1.67902ZM75.1049 1.51316C77.7306 1.50121 80.3995 1.49709 83.109 1.50207L83.1109 0.502072C80.3991 0.497091 77.7281 0.501208 75.1003 0.513166L75.1049 1.51316ZM90.9539 1.54208C93.5916 1.56427 96.2634 1.59569 98.9669 1.63741L98.9824 0.637533C96.2764 0.595772 93.6023 0.564322 90.9623 0.542113L90.9539 1.54208ZM106.8 1.78613C109.439 1.84573 112.105 1.91565 114.795 1.99684L114.825 0.997298C112.132 0.916029 109.464 0.846036 106.823 0.786386L106.8 1.78613ZM122.647 2.26398C125.273 2.36358 127.921 2.47437 130.588 2.59719L130.634 1.59825C127.964 1.47531 125.314 1.3644 122.685 1.2647L122.647 2.26398ZM138.492 2.99418C141.108 3.13659 143.74 3.29101 146.387 3.45819L146.45 2.46017C143.8 2.29281 141.165 2.13822 138.547 1.99565L138.492 2.99418ZM154.329 3.99574C156.936 4.18409 159.555 4.38525 162.185 4.59991L162.266 3.60322C159.633 3.3883 157.011 3.18691 154.401 2.99834L154.329 3.99574ZM170.107 5.28509C172.72 5.52391 175.341 5.77651 177.971 6.04355L178.072 5.04867C175.439 4.78128 172.814 4.52836 170.198 4.28925L170.107 5.28509ZM185.844 6.88442C188.466 7.17839 191.095 7.4872 193.728 7.8115L193.85 6.81899C191.213 6.49424 188.581 6.18501 185.956 5.89065L185.844 6.88442ZM201.563 8.82089C204.178 9.17295 206.797 9.54081 209.419 9.9251L209.564 8.93567C206.938 8.5508 204.315 8.18239 201.696 7.82982L201.563 8.82089ZM217.24 11.1203C219.842 11.5344 222.446 11.9653 225.049 12.4136L225.219 11.4281C222.611 10.9791 220.004 10.5475 217.397 10.1327L217.24 11.1203ZM232.85 13.8102C235.442 14.2922 238.033 14.792 240.62 15.3103L240.816 14.3298C238.224 13.8106 235.63 13.3098 233.033 12.827L232.85 13.8102ZM248.37 16.9212C250.952 17.4775 253.529 18.0528 256.1 18.6477L256.325 17.6735C253.749 17.0773 251.167 16.5009 248.581 15.9437L248.37 16.9212ZM263.798 20.4931C266.358 21.1286 268.912 21.7844 271.457 22.4612L271.714 21.4948C269.163 20.8166 266.604 20.1594 264.039 19.5226L263.798 20.4931ZM279.1 24.5647C281.638 25.2874 284.167 26.0318 286.684 26.7985L286.975 25.8419C284.452 25.0734 281.918 24.3272 279.373 23.6029L279.1 24.5647ZM294.236 29.1776C296.751 29.9966 299.253 30.839 301.741 31.7054L302.069 30.761C299.575 29.8924 297.067 29.0478 294.546 28.2267L294.236 29.1776ZM309.163 34.3778C311.649 35.3028 314.119 36.2529 316.572 37.2288L316.941 36.2997C314.482 35.3209 312.005 34.3681 309.512 33.4406L309.163 34.3778ZM323.877 40.2346C326.311 41.2698 328.726 42.3318 331.121 43.4213L331.535 42.5111C329.133 41.4181 326.71 40.3528 324.269 39.3144L323.877 40.2346ZM338.285 46.7929C340.654 47.9463 343.001 49.1281 345.324 50.3391L345.786 49.4523C343.454 48.237 341.099 47.0511 338.722 45.8938L338.285 46.7929ZM352.308 54.1077C354.611 55.3942 356.888 56.7114 359.138 58.0599L359.652 57.2021C357.393 55.8483 355.107 54.5261 352.795 53.2347L352.308 54.1077ZM365.86 62.2351C368.082 63.6654 370.275 65.1286 372.437 66.6253L373.006 65.8031C370.835 64.2999 368.633 62.8305 366.402 61.3943L365.86 62.2351ZM378.844 71.229C380.964 72.8098 383.05 74.4256 385.102 76.077L385.729 75.298C383.668 73.6387 381.571 72.0154 379.442 70.4274L378.844 71.229ZM391.151 81.1393C393.142 82.8718 395.096 84.6411 397.011 86.4481L397.697 85.7207C395.772 83.9044 393.808 82.1261 391.808 80.385L391.151 81.1393ZM402.644 91.9862C404.481 93.8695 406.278 95.7912 408.033 97.752L408.778 97.0851C407.013 95.1134 405.206 93.1813 403.36 91.2879L402.644 91.9862ZM413.17 103.75C414.837 105.786 416.46 107.861 418.039 109.977L418.841 109.379C417.253 107.251 415.62 105.164 413.944 103.117L413.17 103.75ZM422.603 116.395C424.08 118.574 425.51 120.795 426.894 123.056L427.747 122.534C426.355 120.259 424.916 118.026 423.431 115.834L422.603 116.395ZM430.839 129.855C432.102 132.152 433.318 134.489 434.485 136.868L435.383 136.427C434.209 134.035 432.986 131.684 431.715 129.373L430.839 129.855ZM437.805 144.046C438.842 146.429 439.832 148.852 440.773 151.315L441.708 150.958C440.761 148.481 439.765 146.044 438.722 143.647L437.805 144.046ZM443.453 158.824C444.266 161.276 445.034 163.766 445.754 166.294L446.716 166.02C445.991 163.478 445.22 160.975 444.402 158.509L443.453 158.824ZM447.758 173.94C448.372 176.497 448.938 179.091 449.457 181.723L450.438 181.53C449.917 178.885 449.347 176.277 448.731 173.707L447.758 173.94ZM450.815 189.396C451.224 191.988 451.587 194.616 451.904 197.28L452.897 197.162C452.578 194.486 452.213 191.845 451.803 189.24L450.815 189.396ZM452.697 205.152C452.909 207.717 453.08 210.315 453.209 212.945L454.208 212.896C454.078 210.255 453.907 207.646 453.693 205.069L452.697 205.152ZM453.467 220.932C453.489 222.28 453.5 223.636 453.5 225H454.5C454.5 223.631 454.489 222.269 454.467 220.916L453.467 220.932ZM453.293 225.707C453.683 226.098 454.317 226.098 454.707 225.707L461.071 219.343C461.462 218.953 461.462 218.319 461.071 217.929C460.681 217.538 460.047 217.538 459.657 217.929L454 223.586L448.343 217.929C447.953 217.538 447.319 217.538 446.929 217.929C446.538 218.319 446.538 218.953 446.929 219.343L453.293 225.707ZM3.7503 3.66073C4.30252 3.65226 4.74332 3.19774 4.73485 2.64552C4.72638 2.0933 4.27186 1.6525 3.71964 1.66097L3.7503 3.66073ZM11.6403 1.47651C11.0883 1.49231 10.6535 1.95265 10.6693 2.50471C10.6851 3.05676 11.1455 3.49149 11.6975 3.4757L11.6403 1.47651ZM19.6412 3.23057C20.1932 3.21282 20.6262 2.75094 20.6085 2.19894C20.5907 1.64694 20.1288 1.21385 19.5768 1.23161L19.6412 3.23057ZM27.5995 0.97331C27.0475 0.990845 26.6142 1.45255 26.6317 2.00456C26.6493 2.55656 27.111 2.98984 27.663 2.9723L27.5995 0.97331ZM35.5433 2.73055C36.0953 2.71435 36.5297 2.2537 36.5135 1.70166C36.4973 1.14961 36.0367 0.715215 35.4846 0.731411L35.5433 2.73055ZM43.3641 0.513953C42.812 0.52814 42.3759 0.987208 42.3901 1.53931C42.4043 2.09141 42.8634 2.52748 43.4155 2.51329L43.3641 0.513953ZM51.4854 2.32393C52.0376 2.31227 52.4757 1.8552 52.4641 1.30304C52.4524 0.750881 51.9954 0.312717 51.4432 0.324375L51.4854 2.32393ZM59.2257 0.179213C58.6734 0.188107 58.233 0.642974 58.2419 1.19519C58.2508 1.7474 58.7057 2.18785 59.2579 2.17895L59.2257 0.179213ZM67.2754 2.07216C67.8277 2.06639 68.2707 1.61401 68.2649 1.06176C68.2591 0.509505 67.8067 0.0664973 67.2545 0.0722736L67.2754 2.07216ZM75.098 0.0131716C74.5457 0.0156849 74.1001 0.465433 74.1026 1.01771C74.1051 1.56999 74.5548 2.01566 75.1071 2.01315L75.098 0.0131716ZM83.1081 2.00207C83.6604 2.00308 84.1089 1.55619 84.1099 1.00391C84.111 0.451625 83.6641 0.00308758 83.1118 0.00207305L83.1081 2.00207ZM90.9665 0.0421302C90.4143 0.0374843 89.9628 0.481417 89.9582 1.03368C89.9535 1.58595 90.3975 2.03741 90.9497 2.04206L90.9665 0.0421302ZM98.9592 2.13735C99.5114 2.14588 99.966 1.70512 99.9745 1.1529C99.983 0.600685 99.5423 0.146115 98.9901 0.137592L98.9592 2.13735ZM106.834 0.286513C106.282 0.274043 105.824 0.711535 105.812 1.26368C105.799 1.81582 106.237 2.27353 106.789 2.286L106.834 0.286513ZM114.78 2.49662C115.332 2.51327 115.793 2.07927 115.81 1.52723C115.827 0.975199 115.393 0.514184 114.841 0.497526L114.78 2.49662ZM122.704 0.76506C122.152 0.744132 121.688 1.17456 121.667 1.72645C121.646 2.27834 122.076 2.7427 122.628 2.76362L122.704 0.76506ZM130.565 3.09667C131.117 3.12207 131.585 2.69543 131.61 2.14373C131.636 1.59203 131.209 1.12419 130.657 1.09878L130.565 3.09667ZM138.574 1.49639C138.022 1.46637 137.551 1.88908 137.521 2.44054C137.491 2.99201 137.914 3.46341 138.465 3.49344L138.574 1.49639ZM146.355 3.95719C146.906 3.992 147.381 3.5734 147.416 3.02221C147.451 2.47103 147.032 1.99598 146.481 1.96117L146.355 3.95719ZM154.437 2.49964C153.886 2.45984 153.407 2.87412 153.368 3.42497C153.328 3.97582 153.742 4.45464 154.293 4.49444L154.437 2.49964ZM162.144 5.09825C162.695 5.14318 163.177 4.73336 163.222 4.18291C163.267 3.63245 162.857 3.1498 162.307 3.10488L162.144 5.09825ZM170.244 3.79132C169.694 3.74104 169.207 4.14614 169.157 4.69613C169.107 5.24612 169.512 5.73274 170.062 5.78302L170.244 3.79132ZM177.92 6.54099C178.47 6.59679 178.961 6.1966 179.016 5.64714C179.072 5.09768 178.672 4.60702 178.122 4.55122L177.92 6.54099ZM186.011 5.39376C185.463 5.33223 184.968 5.72727 184.906 6.27611C184.845 6.82496 185.24 7.31977 185.789 7.38131L186.011 5.39376ZM193.667 8.30775C194.215 8.37525 194.714 7.98562 194.781 7.43747C194.849 6.88933 194.459 6.39025 193.911 6.32274L193.667 8.30775ZM201.763 7.33429C201.215 7.26062 200.712 7.64461 200.638 8.19196C200.565 8.7393 200.949 9.24274 201.496 9.31642L201.763 7.33429ZM209.346 10.4198C209.892 10.4999 210.4 10.1219 210.48 9.57544C210.561 9.029 210.183 8.52107 209.636 8.44096L209.346 10.4198ZM217.475 9.63889C216.93 9.5521 216.417 9.92391 216.331 10.4693C216.244 11.0148 216.616 11.5273 217.161 11.614L217.475 9.63889ZM224.964 12.9063C225.508 13 226.026 12.6348 226.119 12.0905C226.213 11.5463 225.848 11.0291 225.304 10.9353L224.964 12.9063ZM233.125 12.3355C232.582 12.2345 232.06 12.5928 231.959 13.1358C231.858 13.6788 232.216 14.2008 232.759 14.3018L233.125 12.3355ZM240.522 15.8006C241.063 15.9091 241.59 15.558 241.699 15.0165C241.807 14.475 241.456 13.948 240.914 13.8395L240.522 15.8006ZM248.686 15.4549C248.147 15.3386 247.615 15.6819 247.498 16.2218C247.382 16.7617 247.725 17.2937 248.265 17.41L248.686 15.4549ZM255.987 19.1349C256.525 19.2594 257.062 18.9241 257.187 18.3861C257.311 17.848 256.976 17.3109 256.438 17.1864L255.987 19.1349ZM264.159 19.0373C263.623 18.9042 263.081 19.2309 262.948 19.7669C262.815 20.303 263.141 20.8453 263.677 20.9784L264.159 19.0373ZM271.328 22.9444C271.862 23.0863 272.41 22.7687 272.551 22.235C272.693 21.7012 272.376 21.1535 271.842 21.0116L271.328 22.9444ZM279.51 23.122C278.979 22.9708 278.426 23.2788 278.275 23.81C278.124 24.3411 278.432 24.8943 278.963 25.0456L279.51 23.122ZM286.538 27.2768C287.067 27.4378 287.625 27.1399 287.786 26.6116C287.947 26.0833 287.649 25.5245 287.121 25.3636L286.538 27.2768ZM294.701 27.7513C294.175 27.5803 293.611 27.8673 293.44 28.3925C293.269 28.9176 293.556 29.482 294.081 29.653L294.701 27.7513ZM301.576 32.1775C302.098 32.3592 302.668 32.0836 302.849 31.562C303.031 31.0404 302.755 30.4704 302.234 30.2888L301.576 32.1775ZM309.686 32.972C309.169 32.7793 308.593 33.0428 308.401 33.5604C308.208 34.078 308.471 34.6538 308.989 34.8464L309.686 32.972ZM316.387 37.6934C316.9 37.8976 317.482 37.6471 317.686 37.134C317.89 36.6208 317.639 36.0393 317.126 35.8351L316.387 37.6934ZM324.464 38.8543C323.956 38.6381 323.369 38.8748 323.153 39.3831C322.937 39.8913 323.173 40.4785 323.682 40.6947L324.464 38.8543ZM330.914 43.8764C331.417 44.1051 332.01 43.883 332.238 43.3803C332.467 42.8776 332.245 42.2847 331.742 42.056L330.914 43.8764ZM338.941 45.4443C338.445 45.2025 337.846 45.4091 337.604 45.9057C337.363 46.4022 337.569 47.0007 338.066 47.2425L338.941 45.4443ZM345.093 50.7825C345.583 51.0377 346.187 50.8476 346.442 50.3579C346.697 49.8681 346.507 49.2641 346.017 49.0089L345.093 50.7825ZM353.039 52.7982C352.557 52.5288 351.948 52.7013 351.679 53.1835C351.409 53.6656 351.582 54.2748 352.064 54.5442L353.039 52.7982ZM358.881 58.4887C359.355 58.7726 359.969 58.6187 360.253 58.145C360.537 57.6713 360.383 57.0571 359.909 56.7732L358.881 58.4887ZM366.672 60.9738C366.208 60.6749 365.589 60.809 365.29 61.2734C364.991 61.7378 365.125 62.3566 365.59 62.6556L366.672 60.9738ZM372.152 67.0363C372.606 67.3507 373.229 67.2375 373.544 66.7834C373.858 66.3293 373.745 65.7064 373.291 65.392L372.152 67.0363ZM379.741 70.0266C379.298 69.6964 378.672 69.7877 378.341 70.2304C378.011 70.6731 378.103 71.2997 378.545 71.6299L379.741 70.0266ZM384.789 76.4665C385.219 76.8128 385.848 76.7448 386.195 76.3146C386.541 75.8843 386.473 75.2548 386.043 74.9085L384.789 76.4665ZM392.136 80.0079C391.719 79.6453 391.088 79.6891 390.725 80.1057C390.363 80.5223 390.406 81.1539 390.823 81.5165L392.136 80.0079ZM396.668 86.8118C397.07 87.1907 397.702 87.1723 398.081 86.7706C398.46 86.3689 398.442 85.736 398.04 85.357L396.668 86.8118ZM403.717 90.9388C403.332 90.5434 402.699 90.5356 402.303 90.9212C401.908 91.3069 401.9 91.94 402.286 92.3353L403.717 90.9388ZM407.661 98.0855C408.029 98.497 408.661 98.532 409.073 98.1636C409.484 97.7953 409.519 97.1631 409.151 96.7516L407.661 98.0855ZM414.331 102.8C413.981 102.373 413.351 102.31 412.923 102.66C412.496 103.01 412.433 103.64 412.783 104.067L414.331 102.8ZM417.638 110.276C417.969 110.719 418.595 110.81 419.038 110.48C419.481 110.15 419.572 109.523 419.241 109.08L417.638 110.276ZM423.845 115.554C423.536 115.096 422.914 114.977 422.457 115.287C421.999 115.596 421.88 116.218 422.189 116.675L423.845 115.554ZM426.467 123.317C426.755 123.788 427.371 123.936 427.842 123.648C428.313 123.36 428.461 122.745 428.173 122.273L426.467 123.317ZM432.154 129.132C431.887 128.648 431.279 128.472 430.795 128.738C430.311 129.004 430.135 129.612 430.401 130.096L432.154 129.132ZM434.036 137.088C434.28 137.584 434.879 137.788 435.375 137.545C435.87 137.302 436.075 136.702 435.832 136.207L434.036 137.088ZM439.181 143.447C438.961 142.941 438.371 142.709 437.865 142.929C437.359 143.15 437.127 143.739 437.347 144.245L439.181 143.447ZM440.306 151.493C440.504 152.009 441.082 152.268 441.598 152.07C442.114 151.873 442.372 151.295 442.175 150.779L440.306 151.493ZM444.876 158.352C444.702 157.827 444.136 157.543 443.612 157.717C443.088 157.891 442.804 158.457 442.978 158.981L444.876 158.352ZM445.273 166.431C445.424 166.962 445.977 167.27 446.509 167.119C447.04 166.968 447.348 166.414 447.196 165.883L445.273 166.431ZM449.217 173.59C449.088 173.053 448.548 172.722 448.011 172.851C447.474 172.98 447.143 173.52 447.272 174.057L449.217 173.59ZM448.967 181.82C449.073 182.362 449.599 182.715 450.141 182.608C450.683 182.501 451.036 181.975 450.929 181.433L448.967 181.82ZM452.297 189.162C452.211 188.617 451.699 188.244 451.154 188.33C450.608 188.416 450.236 188.928 450.322 189.473L452.297 189.162ZM451.407 197.339C451.472 197.888 451.97 198.279 452.518 198.214C453.067 198.149 453.458 197.651 453.393 197.103L451.407 197.339ZM454.191 205.028C454.146 204.478 453.663 204.068 453.112 204.114C452.562 204.16 452.153 204.643 452.198 205.193L454.191 205.028ZM452.709 212.969C452.736 213.521 453.206 213.946 453.757 213.919C454.309 213.892 454.734 213.423 454.707 212.871L452.709 212.969ZM454.967 220.908C454.958 220.356 454.504 219.915 453.951 219.924C453.399 219.933 452.959 220.388 452.967 220.94L454.967 220.908ZM0 3.69267C1.15105 3.69267 2.40263 3.6814 3.7503 3.66073L3.71964 1.66097C2.37943 1.68152 1.1384 1.69267 0 1.69267V3.69267ZM11.6975 3.4757C14.155 3.40538 16.8073 3.32174 19.6412 3.23057L19.5768 1.23161C16.7434 1.32276 14.094 1.40631 11.6403 1.47651L11.6975 3.4757ZM27.663 2.9723C30.1823 2.89227 32.8112 2.8107 35.5433 2.73055L35.4846 0.731411C32.7504 0.811626 30.1198 0.893246 27.5995 0.97331L27.663 2.9723ZM43.4155 2.51329C46.0289 2.44614 48.7204 2.38231 51.4854 2.32393L51.4432 0.324375C48.6749 0.382826 45.9803 0.446727 43.3641 0.513953L43.4155 2.51329ZM59.2579 2.17895C61.8749 2.1368 64.5486 2.10069 67.2754 2.07216L67.2545 0.0722736C64.5237 0.100837 61.8462 0.137006 59.2257 0.179213L59.2579 2.17895ZM75.1071 2.01315C77.7318 2.00121 80.3997 1.99709 83.1081 2.00207L83.1118 0.00207305C80.3989 -0.00291049 77.7268 0.0012086 75.098 0.0131716L75.1071 2.01315ZM90.9497 2.04206C93.5863 2.06424 96.2569 2.09565 98.9592 2.13735L98.9901 0.137592C96.2829 0.0958126 93.6077 0.0643488 90.9665 0.0421302L90.9497 2.04206ZM106.789 2.286C109.426 2.34557 112.091 2.41546 114.78 2.49662L114.841 0.497526C112.146 0.416217 109.477 0.346191 106.834 0.286513L106.789 2.286ZM122.628 2.76362C125.253 2.86317 127.9 2.97391 130.565 3.09667L130.657 1.09878C127.986 0.975771 125.334 0.864805 122.704 0.76506L122.628 2.76362ZM138.465 3.49344C141.079 3.63577 143.71 3.79011 146.355 3.95719L146.481 1.96117C143.83 1.79371 141.194 1.63904 138.574 1.49639L138.465 3.49344ZM154.293 4.49444C156.898 4.68268 159.516 4.88372 162.144 5.09825L162.307 3.10488C159.672 2.88983 157.048 2.68832 154.437 2.49964L154.293 4.49444ZM170.062 5.78302C172.673 6.02169 175.293 6.27412 177.92 6.54099L178.122 4.55122C175.488 4.28367 172.861 4.03059 170.244 3.79132L170.062 5.78302ZM185.789 7.38131C188.409 7.67508 191.035 7.98368 193.667 8.30775L193.911 6.32274C191.272 5.99777 188.639 5.68832 186.011 5.39376L185.789 7.38131ZM201.496 9.31642C204.11 9.66822 206.727 10.0358 209.346 10.4198L209.636 8.44096C207.009 8.0558 204.384 7.68712 201.763 7.33429L201.496 9.31642ZM217.161 11.614C219.762 12.0278 222.363 12.4584 224.964 12.9063L225.304 10.9353C222.694 10.4859 220.084 10.054 217.475 9.63889L217.161 11.614ZM232.759 14.3018C235.349 14.7833 237.937 15.2827 240.522 15.8006L240.914 13.8395C238.32 13.3198 235.723 12.8187 233.125 12.3355L232.759 14.3018ZM248.265 17.41C250.844 17.9657 253.418 18.5405 255.987 19.1349L256.438 17.1864C253.859 16.5896 251.275 16.0127 248.686 15.4549L248.265 17.41ZM263.677 20.9784C266.235 21.6132 268.786 22.2684 271.328 22.9444L271.842 21.0116C269.289 20.3326 266.727 19.6747 264.159 19.0373L263.677 20.9784ZM278.963 25.0456C281.498 25.7674 284.024 26.511 286.538 27.2768L287.121 25.3636C284.595 24.5941 282.057 23.8471 279.51 23.122L278.963 25.0456ZM294.081 29.653C296.593 30.471 299.091 31.3123 301.576 32.1775L302.234 30.2888C299.736 29.419 297.225 28.5734 294.701 27.7513L294.081 29.653ZM308.989 34.8464C311.471 35.7701 313.938 36.7189 316.387 37.6934L317.126 35.8351C314.663 34.855 312.182 33.9008 309.686 32.972L308.989 34.8464ZM323.682 40.6947C326.112 41.7283 328.523 42.7887 330.914 43.8764L331.742 42.056C329.336 40.9612 326.909 39.8942 324.464 38.8543L323.682 40.6947ZM338.066 47.2425C340.431 48.3939 342.774 49.5736 345.093 50.7825L346.017 49.0089C343.681 47.7914 341.322 46.6035 338.941 45.4443L338.066 47.2425ZM352.064 54.5442C354.362 55.8283 356.635 57.143 358.881 58.4887L359.909 56.7732C357.645 55.4168 355.355 54.092 353.039 52.7982L352.064 54.5442ZM365.59 62.6556C367.807 64.0829 369.995 65.5429 372.152 67.0363L373.291 65.392C371.115 63.8855 368.908 62.4131 366.672 60.9738L365.59 62.6556ZM378.545 71.6299C380.66 73.207 382.742 74.819 384.789 76.4665L386.043 74.9085C383.976 73.2453 381.875 71.6182 379.741 70.0266L378.545 71.6299ZM390.823 81.5165C392.809 83.2447 394.757 85.0095 396.668 86.8118L398.04 85.357C396.11 83.536 394.141 81.7533 392.136 80.0079L390.823 81.5165ZM402.286 92.3353C404.118 94.2136 405.91 96.1301 407.661 98.0855L409.151 96.7516C407.381 94.7745 405.569 92.8372 403.717 90.9388L402.286 92.3353ZM412.783 104.067C414.445 106.097 416.064 108.167 417.638 110.276L419.241 109.08C417.649 106.946 416.012 104.853 414.331 102.8L412.783 104.067ZM422.189 116.675C423.661 118.848 425.088 121.062 426.467 123.317L428.173 122.273C426.778 119.992 425.335 117.752 423.845 115.554L422.189 116.675ZM430.401 130.096C431.66 132.386 432.872 134.716 434.036 137.088L435.832 136.207C434.654 133.807 433.427 131.449 432.154 129.132L430.401 130.096ZM437.347 144.245C438.38 146.622 439.367 149.038 440.306 151.493L442.175 150.779C441.225 148.295 440.227 145.852 439.181 143.447L437.347 144.245ZM442.978 158.981C443.789 161.427 444.555 163.91 445.273 166.431L447.196 165.883C446.47 163.335 445.697 160.824 444.876 158.352L442.978 158.981ZM447.272 174.057C447.884 176.607 448.449 179.194 448.967 181.82L450.929 181.433C450.406 178.781 449.835 176.167 449.217 173.59L447.272 174.057ZM450.322 189.473C450.729 192.06 451.091 194.682 451.407 197.339L453.393 197.103C453.074 194.421 452.708 191.774 452.297 189.162L450.322 189.473ZM452.198 205.193C452.41 207.753 452.581 210.345 452.709 212.969L454.707 212.871C454.577 210.225 454.405 207.611 454.191 205.028L452.198 205.193ZM452.967 220.94C452.989 222.285 453 223.639 453 225H455C455 223.628 454.989 222.264 454.967 220.908L452.967 220.94Z" fill="#221B21" fill-opacity="0.3"/>
</svg>
