<svg viewBox="0 0 1414 879" fill="none" xmlns="http://www.w3.org/2000/svg">
<g clip-path="url(#clip0_185_946)">
<path d="M1414 796.163C1414 793.833 1414 791.502 1414 789.172C1414 399.141 1105.38 83.0483 724.781 83.0483C344.186 83.0483 35.3501 399.141 35.3501 789.172C35.3501 791.502 35.3501 793.833 35.3501 796.163H1414Z" fill="url(#paint0_linear_185_946)"/>
<path d="M35.5615 788C35.5615 788 81.072 824.863 185.217 824.863C289.362 824.863 220.355 871.048 322.383 871.048C424.412 871.048 776.641 871.048 849.67 871.048C922.698 871.048 966.304 867.235 992.34 842.448C1013.08 822.745 1181.16 823.38 1258.42 823.38C1335.68 823.38 1400.45 810.881 1414.21 788C1322.98 788 35.5615 788 35.5615 788Z" fill="url(#paint1_radial_185_946)"/>
<path d="M457.01 786.63L35.562 796.163H1414L772.197 786.63H457.01Z" fill="url(#paint2_linear_185_946)"/>
<path d="M174.845 314.398C174.845 314.398 176.539 246.603 92.5029 252.747C93.9847 284.949 104.568 317.364 174.845 314.398Z" fill="#E7DFEB"/>
<path d="M339.53 273.297C339.53 273.297 236.866 232.832 200.881 341.939C251.049 358.252 306.085 363.549 339.53 273.297Z" fill="#E7DFEB"/>
<path d="M181.619 192.791C181.619 192.791 188.181 154.868 142.882 136.437C135.896 175.207 151.137 185.588 181.619 192.791Z" fill="#E7DFEB"/>
<path d="M117.692 554.221C117.692 554.221 103.722 437.064 0 462.063C24.5545 547.018 71.7584 560.154 117.692 554.221Z" fill="#92C4F5"/>
<path opacity="0.5" d="M117.692 554.222L0 462.063C24.5545 547.018 71.7584 560.154 117.692 554.222Z" fill="#0D66C4"/>
<path d="M158.334 299.992C162.568 302.322 166.59 304.864 170.188 308.042C173.575 311.22 176.75 314.822 179.29 318.635C181.83 322.449 183.947 326.474 185.852 330.711C187.546 334.948 189.027 339.185 189.874 343.634C190.086 344.482 189.451 345.117 188.604 345.329C187.757 345.541 186.911 344.906 186.699 344.27C186.064 340.033 184.794 335.796 183.312 331.77C181.83 327.745 179.714 323.72 177.385 319.906C175.057 316.093 172.093 312.491 168.918 309.313C165.743 306.135 161.721 303.381 157.699 301.051C157.488 300.839 157.276 300.627 157.488 300.203C157.488 299.992 157.911 299.78 158.334 299.992Z" fill="#E5E5E5"/>
<path d="M148.385 263.976C152.619 274.145 156.217 284.526 159.392 294.907C162.567 305.288 165.531 315.881 168.071 326.474C170.611 337.067 172.94 347.66 174.633 358.464C175.056 361.218 175.48 363.761 175.691 366.515C175.903 369.269 176.326 371.811 176.538 374.566C176.75 377.32 176.961 380.074 176.75 382.828C176.75 384.099 176.75 385.582 176.538 386.853L175.903 391.091C175.903 391.938 175.056 392.362 174.21 392.362C173.363 392.362 172.728 391.514 172.94 390.879V390.667L173.575 386.853C173.786 385.582 173.786 384.311 173.786 382.828C173.998 380.286 173.786 377.532 173.575 374.777C173.363 372.023 173.151 369.481 172.94 366.727C172.728 363.973 172.305 361.43 171.881 358.676C170.399 348.083 168.283 337.49 165.743 326.897C163.414 316.305 160.662 305.923 157.487 295.331C154.312 284.949 151.137 274.568 146.903 264.399C146.692 264.187 146.903 263.764 147.327 263.764C147.962 263.552 148.385 263.552 148.385 263.976Z" fill="#0D66C4"/>
<path d="M191.779 199.994C196.013 210.375 197.494 221.392 198.553 232.409C199.611 243.425 199.823 254.23 199.611 265.247C199.399 276.263 198.764 287.068 197.918 298.085C196.859 309.101 195.589 319.906 193.473 330.711C193.261 331.558 192.414 331.982 191.567 331.77C190.721 331.558 190.086 330.923 190.297 330.075C192.626 319.482 193.896 308.678 195.166 297.873C196.224 287.068 197.071 276.051 197.283 265.247C197.706 254.442 197.706 243.425 196.859 232.62C196.013 221.816 194.531 210.799 190.509 200.63C190.297 200.418 190.509 199.994 190.932 199.994C191.356 199.571 191.779 199.571 191.779 199.994Z" fill="#0D66C4"/>
<path d="M239.406 117.581C242.793 125.632 244.91 134.106 246.18 142.581C247.45 151.055 248.085 159.741 248.085 168.216C248.085 185.376 246.391 202.325 243.005 219.273C242.793 220.121 241.946 220.545 241.1 220.333C240.253 220.121 239.618 219.485 239.829 218.638C243.64 202.113 245.545 185.164 245.756 168.216C245.756 159.741 245.545 151.267 244.275 142.793C243.216 134.318 241.311 126.056 237.924 118.005C237.713 117.793 237.924 117.37 238.348 117.37C238.983 117.158 239.194 117.158 239.406 117.581Z" fill="#0D66C4"/>
<path d="M306.931 219.485C296.982 222.875 287.88 227.748 278.99 233.044C270.311 238.341 261.844 244.273 253.8 250.628C237.713 263.128 222.684 276.687 208.713 291.093C208.078 291.729 207.231 291.729 206.596 291.305C205.961 290.881 205.961 289.822 206.384 289.398C220.778 274.992 236.019 261.645 252.53 249.357C260.785 243.213 269.252 237.281 278.143 231.985C287.033 226.688 296.347 222.028 306.507 218.638C306.931 218.426 307.142 218.638 307.354 219.062C307.354 219.062 307.354 219.273 306.931 219.485Z" fill="#0D66C4"/>
<path d="M221.414 324.355C212.735 330.499 205.538 338.126 199.611 346.6C193.684 355.075 188.816 363.973 184.582 373.294C180.349 382.616 176.962 392.15 174.21 401.895C171.458 411.641 168.918 421.598 167.436 431.344C167.225 432.615 165.743 433.674 164.261 433.462C162.779 433.25 161.721 431.979 161.933 430.708C163.838 420.539 166.378 410.581 169.553 400.836C172.728 391.09 176.327 381.345 180.984 372.023C185.429 362.701 190.721 353.592 197.071 345.117C203.421 336.643 211.042 329.016 220.144 322.872C220.567 322.448 221.414 322.66 221.626 323.084C222.049 323.508 222.049 324.143 221.414 324.355Z" fill="#E7DFEB"/>
<path d="M115.575 551.467L147.75 572.865C149.02 573.712 149.232 575.195 148.385 576.255C147.539 577.314 145.845 577.526 144.575 576.678C144.575 576.678 144.363 576.678 144.363 576.467L114.305 552.95C113.882 552.527 113.882 551.891 114.094 551.467C114.517 551.043 115.152 551.043 115.575 551.467Z" fill="#134284"/>
<path d="M180.983 535.578C176.538 539.815 172.093 544.476 168.706 549.561C165.107 554.645 161.932 559.73 159.392 565.238C156.852 570.746 154.524 576.255 152.83 581.975C151.137 587.695 149.655 593.627 148.808 599.347C148.597 600.618 147.327 601.678 145.633 601.466C144.152 601.254 143.093 599.983 143.305 598.712C144.575 592.568 146.268 586.636 148.385 580.704C150.502 574.772 153.042 569.263 156.005 563.755C158.969 558.247 162.356 552.95 166.378 547.866C170.188 542.781 174.845 538.332 179.713 534.095C180.137 533.671 180.772 533.671 181.195 534.095C181.407 534.519 181.407 535.154 180.983 535.578Z" fill="#134284"/>
<path d="M120.656 447.869C125.313 452.529 129.546 457.19 133.145 462.699C136.743 467.995 139.918 473.503 142.458 479.224C144.999 484.944 147.115 490.876 148.809 496.808C150.502 502.74 151.772 508.884 152.619 515.24C152.831 516.511 151.772 517.782 150.29 517.994C148.809 518.206 147.539 517.146 147.327 515.875V515.663C146.904 509.943 145.845 503.799 144.363 497.867C142.882 491.935 141.188 486.215 138.86 480.495C136.743 474.775 133.78 469.266 130.604 464.182C127.429 458.885 123.407 454.012 119.174 449.352C118.751 448.928 118.751 448.292 119.386 447.869C119.597 447.445 120.232 447.445 120.656 447.869Z" fill="#134284"/>
<path d="M208.925 398.717C200.246 404.861 193.049 412.488 187.122 420.962C181.195 429.437 176.326 438.335 172.093 447.657C167.859 456.978 164.473 466.512 161.721 476.258C158.969 486.003 156.429 495.96 154.947 505.706C154.735 506.977 153.254 508.036 151.772 507.824C150.29 507.613 149.232 506.341 149.443 505.07C151.349 494.901 153.889 484.944 157.064 475.198C160.239 465.453 163.837 455.707 168.494 446.385C172.94 437.064 178.231 427.954 184.582 419.479C190.932 411.005 198.552 403.378 207.655 397.234C208.078 396.811 208.925 397.023 209.136 397.446C209.348 397.658 209.348 398.294 208.925 398.717Z" fill="#134284"/>
<path d="M143.093 597.229C144.152 630.067 149.02 662.905 158.334 694.895C164.049 714.174 171.246 733.03 180.348 751.038L192.414 752.097C182.254 733.03 173.998 712.903 167.648 692.565C158.122 661.422 153.042 629.219 151.349 597.017C150.714 580.915 150.714 564.602 151.56 548.501C151.772 544.476 151.984 540.451 152.407 536.425L153.466 524.349C154.101 516.299 155.159 508.248 156.006 500.197C163.838 435.793 179.502 372.023 202.363 310.584C208.078 295.119 214.217 280.077 220.99 265.035C227.552 249.993 234.749 235.163 242.37 220.544C249.99 205.926 258.034 191.52 266.924 177.325C275.603 163.131 284.917 149.36 295.077 136.013C295.501 135.589 295.289 134.954 294.866 134.53C294.442 134.106 293.595 134.318 293.384 134.742C282.8 147.877 273.486 161.86 264.384 175.842C255.494 189.825 247.027 204.443 239.195 218.85C231.363 233.468 223.954 248.298 217.18 263.34C210.407 278.382 203.845 293.636 197.918 308.889C174.21 370.328 157.699 434.31 149.02 499.138C147.962 507.189 146.904 515.451 146.057 523.502L144.787 535.79C144.363 539.815 144.152 544.052 143.728 548.077C142.882 564.391 142.458 580.704 143.093 597.229Z" fill="#134284"/>
<path d="M295.5 310.796C295.5 310.796 186.064 316.516 200.881 404.438C269.464 405.709 298.887 375.201 295.5 310.796Z" fill="#92C4F5"/>
<path opacity="0.5" d="M200.881 404.226C233.056 364.185 295.5 310.584 295.5 310.584C295.5 310.584 186.064 316.516 200.881 404.226Z" fill="#0D66C4"/>
<path d="M115.575 211.858C115.575 211.858 100.97 274.992 156.006 285.373C168.071 246.603 154.735 223.511 115.575 211.858Z" fill="#92C4F5"/>
<path opacity="0.5" d="M156.006 285.161C137.166 258.467 115.575 211.858 115.575 211.858C115.575 211.858 100.97 274.992 156.006 285.161Z" fill="#0D66C4"/>
<path d="M182.889 149.148C182.889 149.148 148.385 196.817 197.071 221.392C221.414 193.215 216.122 170.334 182.889 149.148Z" fill="#92C4F5"/>
<path opacity="0.5" d="M197.071 221.392C188.18 193.851 182.889 149.148 182.889 149.148C182.889 149.148 148.385 196.817 197.071 221.392Z" fill="#0D66C4"/>
<path d="M210.83 89.4043C210.83 89.4043 202.786 131.564 244.275 135.378C251.684 109.531 240.677 95.1245 210.83 89.4043Z" fill="#92C4F5"/>
<path opacity="0.5" d="M244.275 135.589C229.034 119.065 210.83 89.6162 210.83 89.6162C210.83 89.6162 202.786 131.564 244.275 135.589Z" fill="#0D66C4"/>
<path d="M288.092 227.112C288.092 227.112 365.777 253.806 388.003 173.088C326.405 163.979 301.216 193.003 288.092 227.112Z" fill="#92C4F5"/>
<path opacity="0.5" d="M288.092 227.112L388.003 173.088C326.405 163.979 301.216 193.003 288.092 227.112Z" fill="#0D66C4"/>
<path d="M290.42 142.581C290.42 142.581 332.967 142.581 331.274 81.9893C287.245 88.9806 272.005 111.438 290.42 142.581Z" fill="#E7DFEB"/>
<path d="M175.057 539.815C175.057 539.815 312.435 551.044 308.201 412.276C205.115 422.446 178.867 479.647 175.057 539.815Z" fill="#92C4F5"/>
<path opacity="0.5" d="M175.057 539.815L308.201 412.276C205.115 422.446 178.867 479.647 175.057 539.815Z" fill="#0D66C4"/>
<path d="M125.524 456.767C125.524 456.767 165.531 367.998 32.8101 333.677C38.102 414.395 46.569 438.123 125.524 456.767Z" fill="#92C4F5"/>
<path d="M819.401 229.654C825.327 234.315 830.196 240.035 834.218 246.179C838.24 252.323 841.627 259.103 844.378 265.882C847.13 272.662 849.459 279.865 851.364 287.068C853.269 294.271 854.75 301.474 855.809 308.678C856.021 309.737 856.867 310.372 857.926 310.161C858.984 309.949 859.619 309.101 859.619 308.042C858.349 300.627 856.656 293.212 854.539 286.009C852.422 278.806 850.094 271.602 846.918 264.823C843.955 257.832 840.356 251.264 836.123 244.908C831.889 238.552 826.598 232.832 820.459 228.383C820.036 228.171 819.612 228.171 819.401 228.595C818.977 229.019 818.977 229.443 819.401 229.654Z" fill="#134284"/>
<path d="M665.723 143.64C697.898 221.392 751.452 241.942 827.232 234.739C827.232 234.527 821.517 134.53 665.723 143.64Z" fill="#92C4F5"/>
<path d="M855.385 158.046C852.422 159.741 849.67 161.436 847.13 163.767C844.802 166.097 842.473 168.639 840.78 171.393C838.875 174.148 837.393 177.114 836.123 180.08C834.853 183.258 833.794 186.224 833.159 189.613C832.948 190.249 833.371 190.673 834.006 190.884C834.641 190.884 835.064 190.673 835.276 190.037C835.699 187.071 836.758 183.893 837.816 180.927C838.875 177.961 840.356 174.995 842.05 172.241C843.743 169.487 845.648 166.944 847.977 164.614C850.305 162.284 852.845 160.377 855.809 158.682C856.02 158.47 856.02 158.258 856.02 158.046C855.809 158.046 855.597 158.046 855.385 158.046Z" fill="#0D66C4"/>
<path d="M833.371 84.3196C830.408 91.9465 829.138 99.9971 828.291 108.048C827.444 116.098 827.232 124.149 827.232 132.2C827.232 140.25 827.444 148.301 828.079 156.351C828.714 164.402 829.349 172.453 830.831 180.291C830.831 180.927 831.466 181.139 832.101 181.139C832.736 181.139 833.159 180.503 832.948 179.868C831.466 172.029 830.619 164.19 829.984 156.14C829.349 148.089 828.926 140.25 828.926 132.2C828.714 124.149 828.926 116.098 829.561 108.26C830.408 100.421 831.466 92.3702 834.218 84.7433C834.218 84.5315 834.218 84.3196 834.006 84.1078C833.583 83.8959 833.371 84.1078 833.371 84.3196Z" fill="#0D66C4"/>
<path d="M813.262 62.0744C811.357 67.159 810.298 72.6673 809.663 78.1756C809.028 83.6839 808.605 89.1922 808.605 94.7006C808.605 105.717 809.663 116.946 811.568 127.962C811.568 128.386 812.203 128.81 812.627 128.81C813.05 128.81 813.473 128.174 813.262 127.75C811.145 116.946 809.875 105.929 809.875 94.9124C809.875 89.4041 809.875 83.8958 810.51 78.3875C811.145 72.8792 812.203 67.5827 813.897 62.4981C813.897 62.2862 813.897 62.0744 813.685 62.0744C813.473 61.8625 813.262 62.0744 813.262 62.0744Z" fill="#92C4F5"/>
<path d="M753.569 97.2431C760.343 99.9972 766.693 103.599 772.62 107.624C778.547 111.649 784.262 116.098 789.766 120.759C800.773 130.081 810.933 140.25 820.459 151.055C820.882 151.479 821.517 151.479 821.94 151.267C822.364 150.843 822.364 150.208 822.152 149.784C812.415 139.191 802.043 129.022 790.824 119.912C785.32 115.251 779.393 111.014 773.255 106.989C767.116 102.963 760.766 99.3616 753.781 96.8193C753.569 96.8193 753.357 96.8193 753.146 97.0312C753.357 97.0312 753.357 97.2431 753.569 97.2431Z" fill="#0D66C4"/>
<path d="M862.582 376.048C861.524 399.988 857.714 424.14 850.94 447.445C846.918 461.427 841.626 475.198 835.276 488.333L826.809 488.969C834.006 474.986 839.933 460.58 844.59 445.538C851.575 422.869 855.385 399.353 856.867 375.625C857.502 363.761 857.714 351.897 857.291 340.032C857.079 337.066 857.079 334.1 856.867 331.134L856.232 322.236C855.809 316.304 855.174 310.372 854.75 304.44C850.093 256.984 839.933 210.163 824.904 165.038C821.094 153.597 817.072 142.581 812.627 131.352C808.182 120.335 803.525 109.319 798.233 98.514C793.152 87.7093 787.649 77.1163 781.722 66.5234C775.795 56.1424 769.656 45.7613 762.671 36.0158C762.459 35.5921 762.459 35.1684 762.883 34.9565C763.306 34.7447 763.729 34.7447 763.941 35.1684C771.138 44.9139 777.488 55.2949 783.415 65.676C789.342 76.0571 795.058 86.8618 800.35 97.6666C805.641 108.471 810.51 119.488 815.167 130.505C819.824 141.521 824.057 152.75 827.867 164.19C843.532 209.528 854.327 256.56 859.619 304.228C860.254 310.16 860.889 316.093 861.312 322.025L862.159 330.923C862.371 333.889 862.582 336.855 862.794 339.821C863.217 351.897 863.217 363.972 862.582 376.048Z" fill="#134284"/>
<path d="M730.073 0C730.073 0 727.533 47.88 771.985 46.1851C776.218 16.3131 762.459 1.90672 730.073 0Z" fill="#92C4F5"/>
<path opacity="0.5" d="M771.985 46.1851C753.569 30.0839 730.073 0 730.073 0C730.073 0 727.533 47.88 771.985 46.1851Z" fill="#0D66C4"/>
<path d="M844.59 61.8625C844.59 61.8625 807.97 82.6247 828.503 112.92C852.422 101.692 857.291 85.3788 844.59 61.8625Z" fill="#92C4F5"/>
<path opacity="0.5" d="M828.714 112.92C832.736 92.582 844.802 61.8625 844.802 61.8625C844.802 61.8625 807.97 82.8365 828.714 112.92Z" fill="#0D66C4"/>
<path d="M769.233 103.811C769.233 103.811 762.248 41.5242 675.249 56.1424C692.394 101.056 730.919 107.412 769.233 103.811Z" fill="#92C4F5"/>
<path opacity="0.5" d="M769.233 103.81L675.249 56.1423C692.394 101.056 730.919 107.412 769.233 103.81Z" fill="#0D66C4"/>
<path d="M810.087 80.718C810.087 80.718 787.649 61.2271 819.824 21.3977C839.298 45.9733 835.7 68.0065 810.087 80.718Z" fill="#E7DFEB"/>
<path d="M843.743 168.215C843.743 168.215 843.32 72.6674 939.844 82.8366C937.516 128.386 924.815 173.936 843.743 168.215Z" fill="#92C4F5"/>
<path d="M1116.81 370.116C1200.04 370.116 1267.52 302.582 1267.52 219.273C1267.52 135.965 1200.04 68.4302 1116.81 68.4302C1033.57 68.4302 966.092 135.965 966.092 219.273C966.092 302.582 1033.57 370.116 1116.81 370.116Z" fill="white"/>
<path opacity="0.5" d="M1261.59 260.798C1143.69 344.693 1053.09 293.847 1031.08 243.425C1014.99 206.774 1010.76 133.259 1037.85 90.6753C994.669 117.158 965.881 164.826 965.881 219.273C965.881 302.534 1033.41 370.116 1116.59 370.116C1185.6 370.116 1243.6 323.931 1261.59 260.798Z" fill="url(#paint3_linear_185_946)"/>
<path d="M1118.08 216.943L1071.3 170.758C1069.18 168.639 1066.43 168.851 1064.95 171.181C1063.46 173.512 1064.1 176.902 1066.22 179.02L1113 225.205C1115.11 227.324 1117.86 227.112 1119.35 224.782C1120.62 222.663 1119.98 219.061 1118.08 216.943Z" fill="url(#paint4_linear_185_946)"/>
<path opacity="0.5" d="M1201.69 172.029C1200.63 169.487 1197.67 168.216 1195.13 169.487L1107.07 206.986C1104.53 208.045 1103.26 211.011 1104.53 213.553C1105.59 216.096 1108.55 217.367 1111.09 216.096L1199.15 178.597C1201.48 177.537 1202.75 174.571 1201.69 172.029Z" fill="url(#paint5_linear_185_946)"/>
<path d="M1116.81 68.4302C1095.43 68.4302 1075.11 72.8792 1056.69 80.9298C1070.24 76.9045 1084.84 74.5741 1099.66 74.5741C1182.85 74.5741 1250.37 142.157 1250.37 225.417C1250.37 287.28 1213.12 340.456 1159.99 363.761C1222.22 345.117 1267.73 287.492 1267.73 219.273C1267.52 136.013 1199.99 68.4302 1116.81 68.4302Z" fill="#E7DFEB"/>
<path d="M1121.25 217.79L1086.54 166.097C1085.05 163.767 1081.88 163.131 1079.55 164.614C1077.22 166.097 1076.59 169.275 1078.07 171.605L1112.78 223.299C1114.27 225.629 1117.44 226.265 1119.77 224.782C1122.1 223.087 1122.73 220.121 1121.25 217.79Z" fill="#0D66C4"/>
<path d="M1206.35 168.215C1205.08 165.885 1201.9 165.038 1199.57 166.309L1116.81 214.189C1114.48 215.46 1113.63 218.638 1114.9 220.968C1116.17 223.299 1119.35 224.146 1121.67 222.875L1204.44 174.995C1206.77 173.724 1207.62 170.546 1206.35 168.215Z" fill="#0D66C4"/>
<path d="M1127.81 219.273C1127.81 225.417 1122.94 230.29 1116.81 230.29C1110.67 230.29 1105.8 225.417 1105.8 219.273C1105.8 213.13 1110.67 208.257 1116.81 208.257C1122.94 208.257 1127.81 213.13 1127.81 219.273Z" fill="#134284"/>
<path d="M1111.51 223.51C1109.19 220.333 1108.55 213.765 1112.15 209.316C1108.55 211.011 1105.8 214.824 1105.8 219.273C1105.8 225.417 1110.67 230.29 1116.81 230.29C1120.62 230.29 1124 228.383 1125.91 225.417C1120.4 227.112 1113.84 226.9 1111.51 223.51Z" fill="#134284"/>
<path d="M1116.81 375.413C1030.87 375.413 960.8 305.288 960.8 219.273C960.8 133.259 1030.87 63.1338 1116.81 63.1338C1202.75 63.1338 1272.81 133.259 1272.81 219.273C1272.81 305.288 1202.75 375.413 1116.81 375.413ZM1116.81 73.7267C1036.58 73.7267 971.384 138.979 971.384 219.273C971.384 299.568 1036.58 364.82 1116.81 364.82C1197.03 364.82 1262.23 299.568 1262.23 219.273C1262.23 138.979 1197.03 73.7267 1116.81 73.7267Z" fill="#0D66C4"/>
<path d="M1023.88 107.412C988.742 133.894 966.092 176.054 966.092 223.51C966.092 303.805 1031.29 369.057 1111.51 369.057C1146.86 369.057 1179.25 356.346 1204.44 335.16C1180.1 353.591 1149.83 364.608 1116.81 364.608C1036.58 364.608 971.384 299.356 971.384 219.061C971.384 174.359 991.917 134.318 1023.88 107.412Z" fill="#92C4F5"/>
<path d="M1116.81 63.1338C1078.92 63.1338 1043.99 76.6927 1017.11 99.3616C1043.35 79.4469 1075.95 67.5828 1111.51 67.5828C1197.45 67.5828 1267.52 137.708 1267.52 223.722C1267.52 271.814 1245.72 315.033 1211.21 343.634C1248.68 315.033 1272.81 269.907 1272.81 219.273C1272.81 133.047 1202.75 63.1338 1116.81 63.1338Z" fill="#92C4F5"/>
<path d="M1122.52 219.273C1122.52 222.451 1119.98 224.994 1116.81 224.994C1113.63 224.994 1111.09 222.451 1111.09 219.273C1111.09 216.096 1113.63 213.553 1116.81 213.553C1119.98 213.553 1122.52 216.096 1122.52 219.273Z" fill="#92C4F5"/>
<path d="M1122.52 86.862C1122.52 90.0399 1119.98 92.5822 1116.81 92.5822C1113.63 92.5822 1111.09 90.0399 1111.09 86.862C1111.09 83.6841 1113.63 81.1418 1116.81 81.1418C1119.98 81.1418 1122.52 83.6841 1122.52 86.862Z" fill="#92C4F5"/>
<path d="M1122.52 354.015C1122.52 357.193 1119.98 359.735 1116.81 359.735C1113.63 359.735 1111.09 357.193 1111.09 354.015C1111.09 350.837 1113.63 348.295 1116.81 348.295C1119.98 348.507 1122.52 350.837 1122.52 354.015Z" fill="#92C4F5"/>
<path d="M1122.52 219.273C1122.52 222.451 1119.98 224.994 1116.81 224.994C1113.63 224.994 1111.09 222.451 1111.09 219.273C1111.09 216.096 1113.63 213.553 1116.81 213.553C1119.98 213.553 1122.52 216.096 1122.52 219.273Z" fill="#92C4F5"/>
<path d="M1250.59 224.994C1253.74 224.994 1256.3 222.433 1256.3 219.273C1256.3 216.114 1253.74 213.553 1250.59 213.553C1247.43 213.553 1244.87 216.114 1244.87 219.273C1244.87 222.433 1247.43 224.994 1250.59 224.994Z" fill="#92C4F5"/>
<path d="M982.391 224.994C985.548 224.994 988.107 222.433 988.107 219.273C988.107 216.114 985.548 213.553 982.391 213.553C979.235 213.553 976.676 216.114 976.676 219.273C976.676 222.433 979.235 224.994 982.391 224.994Z" fill="#92C4F5"/>
<path d="M684.774 721.801H616.402H548.243C548.243 721.801 556.921 780.486 489.608 780.486H616.614H743.62C676.095 780.486 684.774 721.801 684.774 721.801Z" fill="#0A3572"/>
<path d="M675.46 739.385C674.19 733.242 673.767 727.098 673.978 721.801H616.402H548.242C548.242 721.801 552.053 747.436 535.33 764.808L675.46 739.385Z" fill="#134284"/>
<path d="M997.632 203.808H235.384C220.355 203.808 208.078 216.095 208.078 231.137V711.844C208.078 726.886 220.355 739.174 235.384 739.174H997.844C1012.87 739.174 1025.15 726.886 1025.15 711.844V231.137C1025.15 216.095 1012.66 203.808 997.632 203.808Z" fill="#134284"/>
<path d="M248.085 233.044C225.647 236.222 223.742 244.061 223.742 295.754C223.742 347.448 220.779 685.362 219.932 713.751C219.72 722.225 219.509 728.793 219.509 734.089C223.954 737.267 229.458 739.174 235.385 739.174H461.455L981.333 713.751V624.982L594.811 447.233L248.085 233.044Z" fill="#134284"/>
<path d="M975.406 231.137H257.611C243.428 231.137 231.786 242.79 231.786 256.984V688.116C231.786 702.31 243.428 713.962 257.611 713.962H975.406C989.588 713.962 1001.23 702.31 1001.23 688.116V256.984C1001.23 242.79 989.588 231.137 975.406 231.137Z" fill="#E7DFEB"/>
<path d="M616.614 221.814C618.835 221.814 620.636 220.012 620.636 217.789C620.636 215.567 618.835 213.765 616.614 213.765C614.393 213.765 612.592 215.567 612.592 217.789C612.592 220.012 614.393 221.814 616.614 221.814Z" fill="white"/>
<path d="M785.955 807.816H447.273C439.652 807.816 433.514 801.672 433.514 794.045C433.514 786.418 439.652 780.274 447.273 780.274H785.955C793.576 780.274 799.714 786.418 799.714 794.045C799.503 801.672 793.364 807.816 785.955 807.816Z" fill="#134284"/>
<path opacity="0.5" d="M997.632 203.808H533.213C634.818 208.892 968.421 207.621 995.939 211.858C1023.03 215.884 1017.74 236.646 1016.47 461.004C1015.62 605.279 1017.32 690.446 1014.78 733.242C1021.13 728.157 1025.15 720.53 1025.15 711.844V231.137C1025.15 216.095 1012.66 203.808 997.632 203.808Z" fill="white"/>
<path d="M442.827 781.122C437.536 783.028 433.514 788.113 433.514 794.045C433.514 801.672 439.652 807.816 447.273 807.816H785.955C787.649 807.816 789.13 807.604 790.612 806.968L791.671 805.909C791.671 805.909 469.922 802.519 452.776 801.46C435.63 800.401 435.63 786.842 442.827 781.122Z" fill="#134284"/>
<path opacity="0.6" d="M970.961 709.937C984.932 709.937 996.362 698.497 996.362 684.514V260.586C996.362 246.603 984.932 235.163 970.961 235.163H472.039C664.665 274.992 911.48 437.064 878.67 709.937H970.961Z" fill="white"/>
<path d="M410.653 516.299H408.536V525.408H410.653V516.299Z" fill="#134284"/>
<path d="M410.653 599.983H408.536V618.626H410.653V599.983Z" fill="#134284"/>
<path d="M410.653 537.696H408.536V556.34H410.653V537.696Z" fill="#134284"/>
<path d="M410.653 568.839H408.536V587.483H410.653V568.839Z" fill="#134284"/>
<path d="M410.653 631.126H408.536V641.295H418.696V639.176H410.653V631.126Z" fill="#134284"/>
<path d="M536.177 639.177H518.608V641.295H536.177V639.177Z" fill="#134284"/>
<path d="M565.6 639.177H548.031V641.295H565.6V639.177Z" fill="#134284"/>
<path d="M506.754 639.177H489.185V641.295H506.754V639.177Z" fill="#134284"/>
<path d="M447.908 639.177H430.339V641.295H447.908V639.177Z" fill="#134284"/>
<path d="M477.331 639.177H459.762V641.295H477.331V639.177Z" fill="#134284"/>
<path d="M595.023 639.177H577.454V641.295H595.023V639.177Z" fill="#134284"/>
<path d="M742.138 639.177H724.569V641.295H742.138V639.177Z" fill="#134284"/>
<path d="M800.984 639.177H783.415V641.295H800.984V639.177Z" fill="#134284"/>
<path d="M830.408 639.177H812.838V641.295H830.408V639.177Z" fill="#134284"/>
<path d="M859.83 639.177H842.261V641.295H859.83V639.177Z" fill="#134284"/>
<path d="M624.446 639.177H606.877V641.295H624.446V639.177Z" fill="#134284"/>
<path d="M889.254 639.177H871.684V641.295H889.254V639.177Z" fill="#134284"/>
<path d="M653.869 639.177H636.3V641.295H653.869V639.177Z" fill="#134284"/>
<path d="M771.561 639.177H753.992V641.295H771.561V639.177Z" fill="#134284"/>
<path d="M683.292 639.177H665.723V641.295H683.292V639.177Z" fill="#134284"/>
<path d="M712.715 639.177H695.146V641.295H712.715V639.177Z" fill="#134284"/>
<path d="M910.209 639.177H901.107V641.295H910.209V639.177Z" fill="#134284"/>
<path d="M524.746 280.289H292.114V513.121H524.746V280.289Z" fill="white"/>
<path d="M438.806 485.367C371.069 485.367 316.245 430.496 316.245 362.701C316.245 330.923 328.31 301.898 348.208 280.077H292.114V512.909H524.958V449.987C502.732 472.02 472.462 485.367 438.806 485.367Z" fill="#FFEA92"/>
<path d="M527.71 515.875H289.362V277.323H527.71V515.875ZM294.865 510.367H521.994V283.043H294.865V510.367Z" fill="#134284"/>
<path opacity="0.5" d="M637.147 301.686H548.877V323.084H637.147V301.686Z" fill="#134284"/>
<path opacity="0.5" d="M672.92 301.686H649V323.084H672.92V301.686Z" fill="#134284"/>
<g opacity="0.3">
<path d="M740.445 347.236H725.839V351.684H740.445V347.236Z" fill="#134284"/>
<path d="M714.197 347.236H659.584V351.684H714.197V347.236Z" fill="#134284"/>
<path d="M646.884 347.236H601.797V351.684H646.884V347.236Z" fill="#134284"/>
<path d="M582.534 347.236H548.877V351.684H582.534V347.236Z" fill="#134284"/>
<path d="M770.503 364.184H723.087V368.632H770.503V364.184Z" fill="#134284"/>
<path d="M707.847 364.184H646.884V368.632H707.847V364.184Z" fill="#134284"/>
<path d="M640.322 364.184H616.402V368.632H640.322V364.184Z" fill="#134284"/>
<path d="M599.68 364.184H574.279V368.632H599.68V364.184Z" fill="#134284"/>
<path d="M561.366 364.184H548.877V368.632H561.366V364.184Z" fill="#134284"/>
<path d="M702.766 380.921H606.454V385.369H702.766V380.921Z" fill="#134284"/>
<path d="M571.103 380.921H548.877V385.369H571.103V380.921Z" fill="#134284"/>
<path d="M731.766 397.658H702.766V402.106H731.766V397.658Z" fill="#134284"/>
<path d="M687.102 397.658H654.927V402.106H687.102V397.658Z" fill="#134284"/>
<path d="M637.147 397.658H548.877V402.106H637.147V397.658Z" fill="#134284"/>
<path d="M616.402 414.395H596.293V418.843H616.402V414.395Z" fill="#134284"/>
<path d="M582.534 414.395H548.877V418.843H582.534V414.395Z" fill="#134284"/>
<path d="M654.927 431.132H620.001V435.58H654.927V431.132Z" fill="#134284"/>
<path d="M601.797 431.132H571.104V435.58H601.797V431.132Z" fill="#134284"/>
<path d="M561.366 431.132H548.877V435.58H561.366V431.132Z" fill="#134284"/>
<path d="M683.927 447.868H610.475V452.316H683.927V447.868Z" fill="#134284"/>
<path d="M596.293 447.868H548.877V452.316H596.293V447.868Z" fill="#134284"/>
</g>
<path d="M505.696 506.553C498.922 492.782 490.667 476.046 487.703 472.232C482.411 465.453 455.528 468.631 445.579 467.783C435.631 466.936 422.295 458.461 422.93 438.123C423.565 417.573 392.237 432.827 392.237 432.827C392.237 432.827 379.96 453.165 376.149 461.004C372.339 468.842 322.384 472.232 317.092 475.198C314.128 476.681 308.836 492.359 304.391 506.553H505.696Z" fill="#258BC0"/>
<path d="M395.412 436.64C390.12 443.208 384.193 449.775 395.412 456.555C402.821 460.792 402.821 460.792 402.821 460.792L408.324 490.028L415.521 463.334C415.521 463.334 423.988 456.131 420.39 440.242C416.791 424.352 406.842 427.106 406.842 427.106" fill="#FDC4BF"/>
<path d="M371.281 368.633C371.281 368.633 372.128 421.174 387.792 438.123C403.456 455.283 423.989 451.894 434.572 428.166C445.156 404.437 447.696 364.608 447.696 364.608C447.696 364.608 377.843 329.652 371.281 368.633Z" fill="#FDC4BF"/>
<path d="M371.281 368.633C371.281 368.633 372.128 421.174 387.792 438.123C395.836 446.809 405.149 450.199 413.828 448.292C381.441 445.114 378.478 395.116 382.712 382.404C387.368 368.422 394.777 361.642 399.011 361.854C403.244 362.066 397.741 352.956 397.741 352.956H402.186L439.229 368.422L442.193 394.056L444.098 393.209C446.85 377.743 447.485 364.82 447.485 364.82C447.485 364.82 377.843 329.651 371.281 368.633Z" fill="#FDC4BF"/>
<path d="M372.763 391.09C372.763 391.09 371.916 377.108 364.507 379.862C357.099 382.616 365.777 398.929 375.091 406.556C375.091 405.708 372.763 391.09 372.763 391.09Z" fill="#FDC4BF"/>
<path d="M372.763 391.09C372.763 391.09 371.916 377.108 364.507 379.862C357.099 382.616 365.777 398.929 375.091 406.556C375.091 405.708 372.763 391.09 372.763 391.09Z" fill="#FDC4BF"/>
<path d="M442.193 394.056C442.193 394.056 443.251 380.074 452.565 382.828C462.09 385.582 450.871 401.895 439.018 409.522C439.441 408.463 442.193 394.056 442.193 394.056Z" fill="#FDC4BF"/>
<path opacity="0.8" d="M452.565 382.828C448.755 381.769 446.426 383.252 444.733 385.582C452.565 384.311 454.258 392.362 439.441 408.039C439.229 408.887 439.229 409.31 439.018 409.522C450.871 401.895 462.09 385.582 452.565 382.828Z" fill="#FFEA92"/>
<path d="M442.193 394.056L444.098 366.091L401.974 353.168C401.974 353.168 405.573 359.1 403.879 359.1C402.186 359.1 386.733 353.168 386.733 353.168L373.398 396.175C373.398 396.175 366.836 350.625 369.799 342.151C372.763 333.677 394.777 326.262 403.456 324.567C412.135 322.872 438.594 332.406 447.485 342.151C456.587 351.685 442.193 394.056 442.193 394.056Z" fill="#C36357"/>
<path opacity="0.6" d="M442.193 394.056L444.098 366.091L401.974 353.168C401.974 353.168 405.573 359.1 403.879 359.1C402.186 359.1 386.733 353.168 386.733 353.168L373.398 396.175C373.398 396.175 366.836 350.625 369.799 342.151C372.763 333.677 394.777 326.262 403.456 324.567C412.135 322.872 438.594 332.406 447.485 342.151C456.587 351.685 442.193 394.056 442.193 394.056Z" fill="#134284"/>
<path d="M395.2 416.302C395.2 416.302 401.762 420.539 422.083 416.302C414.04 428.801 403.668 433.038 395.2 416.302Z" fill="white"/>
<path d="M408.113 410.793C408.113 410.793 400.704 408.463 400.916 403.802C400.916 399.141 407.266 398.294 407.266 380.074C407.266 373.93 411.288 395.116 407.689 400.2C404.091 405.073 408.113 410.793 408.113 410.793Z" fill="#FDC4BF"/>
<path opacity="0.6" d="M409.806 344.058C414.04 346.388 404.726 336.007 404.726 336.007C404.726 336.007 417.638 338.549 422.083 337.278C426.529 336.219 418.485 330.287 418.485 330.287L433.937 332.406C422.93 326.897 409.383 323.296 403.668 324.355C394.989 326.05 372.974 333.465 370.011 341.939C367.471 349.566 372.339 386.853 373.398 394.48C373.821 390.031 378.266 351.261 379.325 345.117C380.383 338.761 405.784 341.727 409.806 344.058Z" fill="#134284"/>
<path d="M398.799 385.582C399.01 386.641 397.105 387.7 394.565 387.912C392.025 388.335 389.908 387.7 389.908 386.641C389.697 385.582 391.602 384.523 394.142 384.311C396.47 383.887 398.587 384.523 398.799 385.582Z" fill="#FDC4BF"/>
<path d="M426.74 387.7C426.529 388.759 424.412 389.183 422.083 388.759C419.755 388.335 417.85 387.064 418.062 386.217C418.273 385.158 420.39 384.735 422.718 385.158C425.047 385.582 426.952 386.641 426.74 387.7Z" fill="#FDC4BF"/>
<path opacity="0.3" d="M437.959 337.49C437.959 337.49 451.93 342.151 447.696 364.608C446.003 349.566 444.098 343.634 437.959 337.49Z" fill="#FFEA92"/>
<path opacity="0.8" d="M439.441 408.039C439.441 408.039 430.127 442.784 413.616 448.504C421.66 446.597 429.28 439.818 434.361 428.377C437.112 422.445 439.229 415.242 440.923 408.251H439.441V408.039Z" fill="#FFEA92"/>
<path opacity="0.5" d="M416.58 494.265L430.55 475.622L418.273 466.936L409.594 498.714L405.996 497.02L400.069 464.605L390.332 482.189C390.332 482.189 380.171 477.317 376.996 466.724C354.135 472.444 318.997 477.105 318.997 477.105L310.53 502.104H410.653H497.44L416.58 494.265Z" fill="#258BC0"/>
<path opacity="0.5" d="M556.921 588.119C556.921 594.474 551.841 599.559 545.491 599.559C539.14 599.559 534.06 594.474 534.06 588.119C534.06 581.763 539.14 576.678 545.491 576.678C551.841 576.678 556.921 581.763 556.921 588.119Z" fill="#134284"/>
<path d="M592.483 588.119C592.483 594.474 587.403 599.559 581.052 599.559C574.702 599.559 569.622 594.474 569.622 588.119C569.622 581.763 574.702 576.678 581.052 576.678C587.191 576.678 592.483 581.763 592.483 588.119Z" fill="#134284"/>
<path opacity="0.5" d="M628.044 588.119C628.044 594.474 622.964 599.559 616.614 599.559C610.264 599.559 605.183 594.474 605.183 588.119C605.183 581.763 610.264 576.678 616.614 576.678C622.964 576.678 628.044 581.763 628.044 588.119Z" fill="#134284"/>
<path opacity="0.5" d="M663.606 588.119C663.606 594.474 658.526 599.559 652.176 599.559C645.825 599.559 640.745 594.474 640.745 588.119C640.745 581.763 645.825 576.678 652.176 576.678C658.526 576.678 663.606 581.763 663.606 588.119Z" fill="#134284"/>
<path opacity="0.5" d="M699.168 588.119C699.168 594.474 694.087 599.559 687.737 599.559C681.387 599.559 676.307 594.474 676.307 588.119C676.307 581.763 681.387 576.678 687.737 576.678C694.087 576.678 699.168 581.763 699.168 588.119Z" fill="#134284"/>
<path opacity="0.5" d="M945.983 343.422L903.224 711.632H954.45L961.224 344.058L945.983 343.422Z" fill="url(#paint6_linear_185_946)"/>
<path d="M1040.18 849.976C1215.89 849.976 1358.33 842.008 1358.33 832.179C1358.33 822.351 1215.89 814.383 1040.18 814.383C864.47 814.383 722.029 822.351 722.029 832.179C722.029 842.008 864.47 849.976 1040.18 849.976Z" fill="url(#paint7_linear_185_946)"/>
<path d="M1041.66 323.931C972.654 325.202 946.406 314.61 946.195 343.422C945.983 372.235 932.012 807.18 931.377 824.976C930.742 842.984 943.231 841.289 1004.41 840.23C1065.58 839.171 1333.14 834.298 1354.94 834.086C1376.74 833.662 1369.12 775.189 1361.08 712.268C1353.04 649.346 1331.02 416.302 1324.67 368.845C1318.32 321.389 1324.67 323.508 1281.91 323.296C1239.37 322.872 1041.66 323.931 1041.66 323.931Z" fill="#826160"/>
<path opacity="0.5" d="M1104.32 357.617L1116.38 323.508C1100.93 323.508 1086.75 323.719 1074.89 323.719C1073.62 327.109 1071.72 331.77 1070.03 332.829C1067.49 334.524 961.012 344.058 961.012 344.058L1104.32 357.617Z" fill="#826160"/>
<path d="M1356.85 700.615C1349.23 640.024 1327.85 415.454 1321.71 369.904C1315.57 324.355 1321.71 326.262 1280.64 326.05C1266.46 326.05 1234.92 326.05 1199.57 326.05L1201.26 328.38C1201.26 328.38 1289.11 328.38 1297.58 328.38C1306.04 328.38 1314.3 325.838 1318.53 353.591C1324.04 389.184 1360.02 741.08 1362.99 769.469C1365.53 792.985 1364.68 812.053 1361.08 823.705C1371.45 808.875 1363.2 751.038 1356.85 700.615Z" fill="#FFEA92"/>
<path opacity="0.7" d="M1364.68 827.307C1362.56 827.307 1002.08 835.357 969.479 834.298C936.669 833.239 939.421 833.239 938.574 805.273C937.728 777.308 949.793 382.616 950.217 353.168C950.428 335.372 950.428 330.287 951.91 327.745C947.888 330.711 945.983 335.584 945.983 343.211C945.771 372.023 931.801 806.968 931.166 824.764C930.531 842.772 943.02 841.078 1004.19 840.018C1065.37 838.959 1332.93 834.086 1354.73 833.874C1359.39 833.874 1362.56 831.544 1364.68 827.307Z" fill="#826160"/>
<path opacity="0.5" d="M965.881 344.058H961.012L944.078 821.798C944.078 821.798 1221.59 812.265 1243.39 810.993C1265.19 809.934 1274.93 817.985 1295.67 799.129C1316.42 780.274 1340.34 742.987 1340.34 742.987L1269.42 422.869L965.881 344.058Z" fill="#826160"/>
<path d="M1089.29 344.058H965.88L954.238 809.511C954.238 809.511 1263.5 804.426 1273.87 803.578C1284.24 802.731 1340.12 743.199 1340.12 743.199C1337.37 677.099 1304.35 344.058 1304.35 344.058H1089.29Z" fill="white"/>
<path d="M1013.08 344.058C1032.35 350.202 1069.18 361.854 1077.86 362.49C1089.71 363.549 1201.48 352.744 1201.48 352.744L1177.98 344.058H1089.29H1013.08Z" fill="#E7DFEB"/>
<path d="M1340.12 743.199C1339.91 739.385 1339.7 734.725 1339.28 729.216C1335.04 733.242 1311.55 747.86 1276.62 745.953C1260.75 783.24 1192.37 791.926 1150.04 796.163C1117.23 799.553 1003.77 804.426 954.238 806.333V809.299C954.238 809.299 1263.5 804.214 1273.87 803.367C1284.45 802.519 1340.12 743.199 1340.12 743.199Z" fill="#E7DFEB"/>
<path d="M1307.1 757.605L1274.08 760.783C1274.08 760.783 1261.8 790.02 1223.91 804.638C1252.07 804.002 1271.75 803.578 1274.08 803.367C1279.8 802.943 1299.69 784.299 1316.21 767.774L1307.1 757.605Z" fill="#E7DFEB"/>
<path d="M1274.08 803.367C1274.08 803.367 1287.21 787.265 1293.98 752.097C1319.38 745.106 1340.12 742.987 1340.12 742.987C1340.12 742.987 1287.84 802.943 1274.08 803.367Z" fill="white"/>
<path d="M1116.17 273.933C1113.21 276.687 1111.09 291.941 1112.57 295.754C1114.05 299.356 1126.97 310.16 1124 317.576C1120.83 324.779 1151.52 312.067 1151.52 312.067L1131.84 293.847C1131.84 293.847 1122.94 279.865 1140.94 279.865C1158.93 280.077 1161.26 281.348 1159.14 293.847C1165.28 289.822 1165.28 282.407 1165.28 282.407C1165.28 282.407 1167.82 276.263 1157.02 270.967C1146.23 265.247 1121.46 269.272 1116.17 273.933Z" fill="#134284"/>
<path d="M1201.48 311.644C1201.48 311.644 1176.71 314.186 1167.82 307.406C1158.93 300.627 1187.51 291.941 1168.24 270.755C1149.19 249.569 1121.67 266.518 1115.96 273.933C1110.24 281.136 1123.16 297.237 1127.39 301.262C1131.62 305.5 1128.45 311.644 1116.59 311.644C1104.74 311.644 1086.54 310.161 1086.11 313.762C1085.69 317.787 1079.97 349.99 1081.03 352.532C1082.09 355.074 1191.74 352.108 1201.48 352.532C1211.43 353.168 1201.48 311.644 1201.48 311.644ZM1158.08 285.373C1155.97 294.271 1137.97 298.296 1131.62 285.373C1125.48 272.45 1139.46 268.001 1154.27 272.026C1159.78 273.297 1160.2 276.475 1158.08 285.373Z" fill="#C36357"/>
<path opacity="0.4" d="M1201.48 352.532C1204.44 352.744 1205.5 349.143 1205.71 344.058C1187.51 344.482 1112.57 345.753 1098.6 345.329C1082.73 344.905 1089.5 312.067 1089.5 311.855C1087.59 312.279 1086.32 312.703 1086.11 313.762C1085.69 317.788 1079.97 349.99 1081.03 352.532C1082.09 355.286 1191.74 352.109 1201.48 352.532Z" fill="#134284"/>
<path d="M1166.97 274.992C1166.97 274.992 1175.23 282.195 1166.97 293.847C1158.72 305.5 1159.35 309.101 1168.88 313.338C1178.4 317.575 1197.88 316.092 1197.88 316.092L1202.11 340.244L1193.86 321.601C1193.86 321.601 1177.13 320.118 1167.19 316.092C1157.45 312.279 1155.12 308.677 1161.47 298.72C1167.4 288.975 1169.73 283.254 1166.97 274.992Z" fill="#FFDBD4"/>
<path d="M985.566 651.464L986.625 606.55L1035.1 605.491L1035.73 648.922L985.566 651.464ZM989.588 609.304L988.53 648.286L1032.56 646.168L1031.92 608.669L989.588 609.304Z" fill="#C36357"/>
<path d="M1036.58 713.751H984.296L985.355 668.837L1035.95 666.93L1036.58 713.751ZM987.26 710.573H1033.41L1032.77 669.896L988.107 671.591L987.26 710.573Z" fill="#C36357"/>
<path d="M986.837 589.178L987.895 547.865H1034.25L1034.89 587.695L986.837 589.178ZM990.859 550.831L990.012 586L1031.92 584.729L1031.5 550.62H990.859V550.831Z" fill="#C36357"/>
<path d="M1032.77 418.42H990.647L991.493 384.311H1032.35L1032.77 418.42ZM993.61 415.454H1029.6L1029.17 387.277H994.245L993.61 415.454Z" fill="#C36357"/>
<path d="M1033.41 473.927H989.377L990.223 436.216H1032.98L1033.41 473.927ZM992.34 470.961H1030.23L1029.81 439.394H992.975L992.34 470.961Z" fill="#C36357"/>
<path d="M1034.04 530.493H988.106L989.165 490.876H1033.62L1034.04 530.493ZM991.282 527.527H1031.08L1030.65 494.054H992.128L991.282 527.527Z" fill="#C36357"/>
<path d="M1003.56 395.539H999.749L1003.56 411.005H1013.08L1041.87 371.811L1008.22 401.471L1003.56 395.539Z" fill="#C36357"/>
<path d="M998.902 564.39H994.668L998.902 581.975H1009.7L1041.87 537.696L1003.98 571.17L998.902 564.39Z" fill="#C36357"/>
<path d="M998.902 624.982H994.668L998.902 642.354H1009.7L1041.87 598.288L1003.98 631.55L998.902 624.982Z" fill="#C36357"/>
<path d="M1223.18 383.817L1220.22 384.015L1233.61 584.414L1236.57 584.217L1223.18 383.817Z" fill="#C36357"/>
<path d="M1139.46 392.573H1059.65V397.021H1139.46V392.573Z" fill="#92C4F5"/>
<path d="M1118.5 405.497H1062.41V409.945H1118.5V405.497Z" fill="#92C4F5"/>
<path d="M1161.26 405.497H1132.26V409.945H1161.26V405.497Z" fill="#92C4F5"/>
<path d="M1144.75 442.36H1060.5V446.808H1144.75V442.36Z" fill="#92C4F5"/>
<path d="M1102.62 452.741H1060.5V457.189H1102.62V452.741Z" fill="#92C4F5"/>
<path d="M1162.53 490.24H1063.89V494.688H1162.53V490.24Z" fill="#92C4F5"/>
<path d="M1133.53 508.46H1063.89V512.908H1133.53V508.46Z" fill="#92C4F5"/>
<path d="M1179.67 508.46H1147.92V512.908H1179.67V508.46Z" fill="#92C4F5"/>
<path d="M1107.28 525.197H1063.89V529.645H1107.28V525.197Z" fill="#92C4F5"/>
<path d="M1116.38 557.611H1067.91V562.059H1116.38V557.611Z" fill="#92C4F5"/>
<path d="M1130.14 569.899H1067.91V574.347H1130.14V569.899Z" fill="#92C4F5"/>
<path d="M1124.43 614.601H1067.91V619.049H1124.43V614.601Z" fill="#92C4F5"/>
<path d="M1179.67 614.601H1138.82V619.049H1179.67V614.601Z" fill="#92C4F5"/>
<path d="M1159.14 627.524H1067.91V631.972H1159.14V627.524Z" fill="#92C4F5"/>
<path d="M1110.03 678.158H1069.39V682.606H1110.03V678.158Z" fill="#92C4F5"/>
<path d="M1133.95 691.929H1070.03V696.377H1133.95V691.929Z" fill="#92C4F5"/>
<path d="M1183.7 724.766V721.8C1187.08 721.8 1314.72 719.047 1315.99 719.047V722.012C1310.91 722.012 1187.29 724.766 1183.7 724.766Z" fill="#C36357"/>
<path d="M1192.59 723.284L1188.99 666.93H1210.58V669.896H1192.16L1195.55 723.072L1192.59 723.284Z" fill="#C36357"/>
<path d="M1213.97 722.648L1210.58 649.769L1241.69 648.71L1246.56 721.801L1213.97 722.648Z" fill="#FDE0DD"/>
<path d="M1212.48 724.132L1209.1 648.286L1242.97 647.015L1248.05 723.284L1212.48 724.132ZM1212.27 651.252L1215.45 720.954L1245.08 720.318L1240.43 650.193L1212.27 651.252Z" fill="#C36357"/>
<path d="M1282.76 721.165L1279.59 628.371H1240.21L1246.56 721.801L1282.76 721.165Z" fill="#FFEA92"/>
<path d="M1245.08 723.496L1238.52 626.889H1280.86L1284.03 722.649L1245.08 723.496ZM1241.91 629.855L1248.05 720.318L1281.28 719.683L1278.1 629.855H1241.91Z" fill="#C36357"/>
<path d="M1310.49 720.53L1307.1 674.344H1281.07L1282.76 721.165L1310.49 720.53Z" fill="#FDC4BF"/>
<path d="M1281.28 722.649L1279.59 672.862H1308.59L1312.18 721.801L1281.28 722.649ZM1282.76 675.828L1284.24 719.471L1309.01 718.835L1305.83 675.828H1282.76Z" fill="#C36357"/>
<path d="M1132.22 758.095L988.298 760.075L988.339 763.04L1132.26 761.06L1132.22 758.095Z" fill="#92C4F5"/>
<path d="M1148.08 771.42L987.647 773.413L987.684 776.378L1148.12 774.385L1148.08 771.42Z" fill="#92C4F5"/>
<path d="M1281.07 415.454H1249.95V418.419H1281.07V415.454Z" fill="#92C4F5"/>
<path d="M1272.18 425.835H1252.07V428.8H1272.18V425.835Z" fill="#92C4F5"/>
<path d="M1281.07 503.799H1256.72V506.764H1281.07V503.799Z" fill="#92C4F5"/>
<path d="M1287.63 513.968H1257.36V516.934H1287.63V513.968Z" fill="#92C4F5"/>
<path d="M127.006 875.822C181.718 875.822 226.071 867.855 226.071 858.026C226.071 848.198 181.718 840.23 127.006 840.23C72.2942 840.23 27.9414 848.198 27.9414 858.026C27.9414 867.855 72.2942 875.822 127.006 875.822Z" fill="url(#paint8_linear_185_946)"/>
<path d="M241.1 821.798C241.1 807.604 278.99 810.146 285.128 801.248C291.267 792.138 299.946 754.639 299.946 737.479C299.946 721.801 270.523 726.038 258.881 724.555C250.625 723.496 249.567 718.412 250.202 706.971L242.37 709.09L239.406 761.631L246.18 762.054C246.18 745.953 247.027 747.224 259.939 747.648C272.851 747.86 279.413 745.741 277.296 762.054C275.18 778.367 274.545 786.63 266.078 788.748C257.822 790.867 244.275 793.621 244.275 784.935L238.348 785.147L236.866 822.01H241.1V821.798Z" fill="#C36357"/>
<path opacity="0.6" d="M251.26 809.087C262.902 805.909 266.924 798.918 268.829 791.714C254.647 795.104 243.428 797.223 241.523 787.901L237.713 790.019L236.866 821.798H239.618C239.195 813.536 243.428 811.205 251.26 809.087Z" fill="#92C4F5"/>
<path opacity="0.6" d="M264.807 738.326C249.143 737.902 247.45 734.513 247.873 725.615L241.311 728.369L239.83 754.851C241.735 756.334 243.216 756.546 244.063 754.215C246.815 745.953 247.662 745.317 261.844 745.529C276.026 745.529 281.953 746.377 280.26 757.393C278.566 768.41 277.931 780.062 273.698 792.562C282.377 788.325 285.34 769.045 288.092 754.215C290.632 739.385 280.471 738.75 264.807 738.326Z" fill="#92C4F5"/>
<path d="M170.188 715.869C214.963 715.869 251.26 705.056 251.26 691.717C251.26 678.379 214.963 667.565 170.188 667.565C125.413 667.565 89.1157 678.379 89.1157 691.717C89.1157 705.056 125.413 715.869 170.188 715.869Z" fill="#C36357"/>
<path opacity="0.9" d="M170.188 715.869C214.963 715.869 251.26 705.056 251.26 691.717C251.26 678.379 214.963 667.565 170.188 667.565C125.413 667.565 89.1157 678.379 89.1157 691.717C89.1157 705.056 125.413 715.869 170.188 715.869Z" fill="white"/>
<path d="M170.188 706.759C208.3 706.759 239.195 699.835 239.195 691.294C239.195 682.752 208.3 675.828 170.188 675.828C132.077 675.828 101.182 682.752 101.182 691.294C101.182 699.835 132.077 706.759 170.188 706.759Z" fill="#C36357"/>
<path d="M251.26 691.293C251.26 691.505 251.26 691.505 251.26 691.717C251.26 705.064 214.852 715.869 170.188 715.869C125.312 715.869 89.1157 705.064 89.1157 691.717C89.1157 691.717 97.1594 813.536 101.393 835.993C104.78 854.213 113.67 860.568 113.67 860.568C120.867 866.077 143.517 874.127 170.4 874.127C197.282 874.127 219.932 865.865 227.129 860.356C227.129 860.356 236.019 854.001 239.406 835.781C243.428 813.324 251.683 691.505 251.683 691.505L251.26 691.293Z" fill="#C36357"/>
<path opacity="0.3" d="M251.26 691.717C251.26 701.463 231.574 709.937 203.421 713.75C218.027 718.411 227.976 737.479 227.552 757.181C227.129 780.91 219.72 859.509 175.057 874.339C199.823 873.492 220.144 865.865 226.917 860.78C226.917 860.78 235.808 854.424 239.195 836.205C243.217 813.536 251.26 691.717 251.26 691.717V691.293C251.26 691.505 251.26 691.505 251.26 691.717Z" fill="white"/>
<path d="M238.983 708.454C239.618 722.225 241.1 758.876 236.443 802.095C233.056 833.239 229.034 849.764 226.071 858.238C228.188 856.331 234.115 849.975 236.655 835.781C239.83 817.349 245.968 730.911 247.45 709.725C247.662 705.7 244.275 705.912 238.983 708.454Z" fill="white"/>
<path opacity="0.3" d="M184.794 715.445C179.925 715.657 175.056 715.869 170.188 715.869C125.312 715.869 89.1157 705.064 89.1157 691.717C89.1157 691.717 97.1594 813.536 101.393 835.993C104.78 854.213 113.67 860.568 113.67 860.568C120.867 866.077 143.517 874.127 170.4 874.127C172.093 874.127 173.786 874.127 175.268 874.127C131.874 872.009 120.232 838.959 126.371 799.977C131.663 764.385 151.349 724.979 184.794 715.445Z" fill="#92C4F5"/>
<path opacity="0.3" d="M115.999 764.385C127.641 731.547 142.458 724.132 170.4 715.869C170.188 715.869 170.188 715.869 169.976 715.869C125.101 715.869 88.9043 705.064 88.9043 691.717C88.9043 691.717 96.948 813.536 101.182 835.993C104.568 854.213 113.459 860.568 113.459 860.568C120.444 865.865 142.458 873.915 168.706 874.127C101.182 870.526 102.663 802.307 115.999 764.385Z" fill="#92C4F5"/>
<path opacity="0.3" d="M113.459 860.568C118.962 864.806 133.356 870.526 151.772 872.856C116.846 866.077 104.357 849.34 101.182 801.884C98.2181 757.817 104.78 727.521 114.941 709.513C99.0648 705.064 88.9043 698.921 88.9043 691.929C88.9043 691.929 96.948 813.748 101.182 836.205C104.568 854.213 113.459 860.568 113.459 860.568Z" fill="#92C4F5"/>
<path opacity="0.5" d="M223.742 727.945C204.48 727.521 206.173 744.894 219.932 748.284C233.691 751.885 240.253 728.369 223.742 727.945Z" fill="white"/>
<path opacity="0.4" d="M227.553 754.216C217.181 753.792 216.969 762.266 224.589 764.173C231.998 766.291 234.961 754.639 227.553 754.216Z" fill="white"/>
<path d="M115.364 700.827C128.064 704.429 147.75 706.971 170.188 706.971C208.29 706.971 239.195 699.98 239.195 691.506C239.195 689.175 236.654 686.845 232.421 684.726C222.684 690.446 187.546 706.971 115.364 700.827Z" fill="#0D66C4"/>
<g opacity="0.6">
<path d="M258.669 726.462C254.647 726.038 252.318 724.555 251.048 721.589C251.26 724.979 252.953 729.852 259.939 730.276C270.734 730.699 282.588 731.123 289.785 732.606C296.982 733.877 294.865 748.707 292.114 761.207C289.785 771.588 286.187 791.926 280.048 803.155C281.953 802.307 283.223 801.248 284.07 800.189C290.209 791.503 298.464 755.487 298.464 738.962C298.464 723.708 269.888 727.733 258.669 726.462Z" fill="white"/>
<path d="M249.99 713.75C249.99 712.479 249.99 710.996 250.202 709.513L248.932 709.937L249.99 713.75Z" fill="white"/>
</g>
</g>
<defs>
<linearGradient id="paint0_linear_185_946" x1="35.3501" y1="83.0483" x2="1436.24" y2="749.419" gradientUnits="userSpaceOnUse">
<stop stop-color="#FFCA36"/>
<stop offset="1" stop-color="#D69300"/>
</linearGradient>
<radialGradient id="paint1_radial_185_946" cx="0" cy="0" r="1" gradientUnits="userSpaceOnUse" gradientTransform="translate(725 807.337) rotate(90.1019) scale(63.7117 1057.65)">
<stop stop-color="#575AA3" stop-opacity="0.46"/>
<stop offset="1" stop-color="#E5E5E5" stop-opacity="0"/>
</radialGradient>
<linearGradient id="paint2_linear_185_946" x1="35.562" y1="786.63" x2="36.9181" y2="834.872" gradientUnits="userSpaceOnUse">
<stop stop-color="#FFCA36"/>
<stop offset="1" stop-color="#D69300"/>
</linearGradient>
<linearGradient id="paint3_linear_185_946" x1="1122.59" y1="213" x2="939.44" y2="409.43" gradientUnits="userSpaceOnUse">
<stop stop-opacity="0"/>
<stop offset="1" stop-opacity="0.5"/>
</linearGradient>
<linearGradient id="paint4_linear_185_946" x1="1076.47" y1="183.002" x2="1126.3" y2="230.572" gradientUnits="userSpaceOnUse">
<stop stop-opacity="0"/>
<stop offset="1" stop-opacity="0.5"/>
</linearGradient>
<linearGradient id="paint5_linear_185_946" x1="1104.02" y1="192.754" x2="1202.02" y2="192.754" gradientUnits="userSpaceOnUse">
<stop stop-opacity="0"/>
<stop offset="1" stop-opacity="0.5"/>
</linearGradient>
<linearGradient id="paint6_linear_185_946" x1="930.588" y1="691.643" x2="953.37" y2="434.013" gradientUnits="userSpaceOnUse">
<stop stop-opacity="0"/>
<stop offset="1" stop-opacity="0.5"/>
</linearGradient>
<linearGradient id="paint7_linear_185_946" x1="722.026" y1="832.082" x2="1358.46" y2="832.082" gradientUnits="userSpaceOnUse">
<stop stop-opacity="0"/>
<stop offset="1" stop-opacity="0.5"/>
</linearGradient>
<linearGradient id="paint8_linear_185_946" x1="28.0822" y1="858.118" x2="226.051" y2="858.118" gradientUnits="userSpaceOnUse">
<stop stop-opacity="0"/>
<stop offset="1" stop-opacity="0.5"/>
</linearGradient>
<clipPath id="clip0_185_946">
<rect width="1414" height="879" fill="white"/>
</clipPath>
</defs>
</svg>
