<svg width="88" height="88" viewBox="0 0 88 88" fill="none" xmlns="http://www.w3.org/2000/svg">
<circle cx="44" cy="44" r="42" fill="white" stroke="#FCFAF9" stroke-width="4"/>
<path d="M42.14 45.7C43.68 42.92 46.64 41.28 48.36 38.82C50.18 36.24 49.16 31.42 44 31.42C40.62 31.42 38.96 33.98 38.26 36.1L33.08 33.92C34.5 29.66 38.36 26 43.98 26C48.68 26 51.9 28.14 53.54 30.82C54.94 33.12 55.76 37.42 53.6 40.62C51.2 44.16 48.9 45.24 47.66 47.52C47.16 48.44 46.96 49.04 46.96 52H41.18C41.16 50.44 40.92 47.9 42.14 45.7ZM48 60C48 62.2 46.2 64 44 64C41.8 64 40 62.2 40 60C40 57.8 41.8 56 44 56C46.2 56 48 57.8 48 60Z" fill="#0D66C4"/>
</svg>
